<?xml version="1.0" standalone="no"?>
<!DOCTYPE svg PUBLIC "-//W3C//DTD SVG 1.1//EN" "http://www.w3.org/Graphics/SVG/1.1/DTD/svg11.dtd" >
<svg xmlns="http://www.w3.org/2000/svg" xmlns:xlink="http://www.w3.org/1999/xlink" version="1.1">
<metadata></metadata>
<defs>
<font id="closeitalic" horiz-adv-x="1705" >
<font-face units-per-em="2048" ascent="1536" descent="-512" />
<missing-glyph horiz-adv-x="409" />
<glyph horiz-adv-x="0" />
<glyph horiz-adv-x="682" />
<glyph unicode=" "  horiz-adv-x="409" />
<glyph unicode="&#x09;" horiz-adv-x="409" />
<glyph unicode="&#xa0;" horiz-adv-x="409" />
<glyph unicode="!" horiz-adv-x="380" d="M182 473q2 14 4 40.5t4 39.5q2 18 6.5 55t6.5 56q5 42 8 57q2 19 8 58t8 59q10 61 13 106q2 15 6 43.5t6 42.5q37 217 41 250q3 18 4.5 51.5t3.5 46.5q0 26 4 66q6 26 39 63q4 3 12.5 7t10.5 6l8 4q26 13 57 6q6 0 14 -8q13 -13 41 -37q11 -11 11 -15q-1 -8 -1 -24.5 t-1 -24.5q-1 -18 -2 -54.5t-2 -55.5q-3 -21 -9.5 -60.5t-9.5 -60.5q-2 -25 -7 -78t-7 -78q-1 -9 -4 -27.5t-4 -27.5q0 -2 -5 -6t-6 -6q6 -4 6 -21q-4 -27 -12 -83t-12 -83q-1 -11 -4 -29.5t-5 -33.5t-3 -29q-2 -14 -13 -113q0 -51 -6 -104q0 -42 -2 -65q-1 -6 -6.5 -18 t-7.5 -17q-2 -8 -10 -29q-6 -12 -9 -12q-18 0 -22 -19q-4 0 -11 1t-8 1q-15 -12 -24 -24q-4 -4 -8 -19q-7 1 -23.5 3.5t-19.5 2.5q-4 2 -9 7q-3 5 -14 12q-9 6 -16 20l-3 9q-4 10 -10 12q-1 0 -6 10q-5 94 0 127zM416 961q-4 1 -6 -2t-4 -11q1 0 5.5 1.5t6.5 2.5 q1 2 0.5 5.5t-2.5 3.5zM352 84q5 0 0 -7q-2 -3 -6 -5q-12 -8 -33 -33q-2 -1 -6.5 -4t-7 -4.5t-5 -5.5t-3.5 -9q-19 0 -37 -22q-6 -7 -16.5 -20.5t-12.5 -16.5l-30 -6q-19 0 -23 2q-38 13 -76 43q-10 8 -13.5 32t7.5 40q2 4 6 13t6 13q11 22 27.5 37.5t42.5 32.5q16 11 59 22 q29 7 48 -2h6q12 0 18 -12q6 -19 27 -14q1 -1 2 -4t1.5 -5.5t3 -4.5t5.5 -1q7 1 8.5 -2t1.5 -10t4 -27l-4 -4t-4.5 -5t-0.5 -5t5 -6z" />
<glyph unicode="&#x22;" horiz-adv-x="520" d="M479 1243q-6 -127 -61 -260q-12 -18 -15 -22q-10 -15 -18 -23v-2h-2h-10q-23 0 -33 -10l-25 10l-2 2q-4 4 -8 16l-4 4q2 8 -4 48q-4 16 -4 22q0 2 2 4v4q2 9 6 28t6 28q25 112 29 135q2 15 14 43q16 48 17 57q0 3 10 8q23 10 41 15q2 1 6 2t6 2t7 2t7 2l33 -25v-10 q2 -27 2 -80zM90 1266q20 35 35 43q20 10 25 20l4 4h2q4 0 12 4l33 -22l6 10l4 -4l18 6q1 -2 1 -6t1 -6q-26 -52 -41 -135q-3 -13 -7 -38.5t-7 -39.5q-4 -18 -10 -53t-10 -52q-8 -40 -35 -71q-2 -2 -6 -6.5t-6 -6.5l-17 -16l4 16l-26 -16l-15 12l-6 -2q1 8 0 17.5t-3 21 t-3 17.5v22q-3 11 2 53q1 5 3 16.5t3 16.5q0 4 -1 12t-1 11v16v10q2 23 10 74q15 44 31 72z" />
<glyph unicode="$" horiz-adv-x="874" d="M399 743q-35 25 -57 68q-5 6 -15.5 18.5t-15.5 18.5q-15 29 -28 47q-5 0 -9 -2q-6 18 -17 49.5t-15 44.5q-2 8 -7 24.5t-7 29t-1 24.5q2 8 2 22q1 4 4.5 11.5t4.5 11.5q0 1 2 8.5t4 11.5q1 2 12 19q-9 14 4 33q6 6 6 12q3 17 21 35q35 38 90 61q13 3 45 17q34 9 43 10 q9 2 33 8.5t39 9.5q8 108 34 158q11 2 15 8t4.5 16t3.5 15v-10q8 4 20 12q15 10 21 16l6 -12q3 15 6 27q4 2 7 3t6 1t5 -0.5t4.5 -2.5t3.5 -3l3.5 -3.5l3.5 -3.5q6 -4 14 -4q5 -15 8 -16q6 -2 23 2q10 -36 10 -137q0 -5 -3 -18t-3 -19q-2 -11 0 -15.5t12 -5.5q46 -4 64 -6 q16 0 24 -2q21 0 25 -8q2 -2 6 -2q3 -1 13.5 -1.5t13.5 -2.5q2 -1 6.5 -7t9.5 -7q3 -1 5 -2.5t4 -4.5t3 -4q10 -9 27 -20q-8 -5 -11 -12t-3.5 -14.5t-1.5 -10.5q-3 -4 -11.5 -6t-9.5 -10q-12 -2 -18 -2q-16 0 -19 -15q-10 0 -29 -0.5t-33.5 -0.5t-27.5 1q-12 2 -35 -4 q-1 -2 -2.5 -8.5t-2.5 -9t-3 -8t-4 -8.5t-4.5 -7.5t-6 -7.5t-7.5 -6q-2 3 -4 8t-4 8l-3 -7q-2 -8 -8 -9q-4 -6 -6 -10q-2 -35 -6 -103.5t-6 -103.5q-1 -17 -4 -50t-4 -49q-1 -3 -2 -8t-2 -8t-2.5 -8.5t-3 -10t-1.5 -8.5q3 -11 13 -18q11 -6 34.5 -20t38.5 -21 q59 -27 107 -72q57 -66 61 -71q9 -11 13 -37q2 -5 4 -15.5t4 -15.5q5 -18 -4 -57v-4q-1 -16 -7.5 -30t-19.5 -33t-18 -27q-4 6 -4 10q-16 -6 -35 -27t-23 -24q-6 -4 -17 -13t-16 -12q-9 -5 -28.5 -14.5t-28.5 -14.5h-2q-16 -2 -55 -26q-3 -2 -47 -27q-9 -9 -9 -14 q-3 -16 -16 -72q-4 -21 -8 -64.5t-8 -64.5q-3 -28 -15 -63q-1 5 -2 14t-2 14h-2q-8 -16 -10 -24q-6 -14 -16 -11q-2 -6 -7 -36q-1 2 -6 5t-4 7q0 3 -8 3t-12 -3q-2 -2 -7.5 -6t-7.5 -6q-8 4 -11 16l-3 12q-2 0 -5.5 -1t-5 -1.5t-3.5 0.5q-8 4 -8 10q-2 2 -3.5 7.5t-3.5 7.5 q-9 -9 -10.5 -13t-1.5 -18q-8 4 -10 4q-1 -1 -1.5 -3t-1.5 -4t-3 -5q-4 12 -4 14q-2 1 -4 1.5t-3.5 1t-1.5 1.5q-1 2 -2 6.5t-2 6.5q1 3 1 6.5t-1 3.5q-6 4 -7.5 10t-0.5 14.5t0 12.5q-2 11 2 37q3 24 23 141q0 20 -21 24q-2 1 -8 0t-8 3q0 5 -10 8q2 2 3.5 4.5t2.5 3.5 l-4 2q-43 -3 -80 6q-4 1 -16.5 1.5t-18.5 2.5q-3 1 -6 3t-6.5 5t-5.5 4q-15 8 -7 21q-12 6 -28 18q-4 -8 -8 -12q-6 3 -11 7t-10 10t-7.5 9.5t-8 12t-6.5 10.5q-8 9 -21.5 27.5t-17.5 23.5q0 23 2 35l4 2q4 2 2 6q1 1 2 4.5t2 4.5q7 3 18.5 14t18.5 14q20 6 26 0 q9 -7 26 -21.5t26 -21.5q77 -64 170 -69h14q10 1 12.5 3.5t5.5 12.5q10 45 9 53q-3 6 0 9q3 21 4.5 58t3.5 52q4 34 8 102v58q-22 13 -25 31l-2 4q-9 -1 -14 2t-10 11.5t-6 10.5q4 -4 8 -6l4 4q-8 6 -25 23q0 -1 -1 -2t-1 -2q0 -5 4 -9zM494 926q2 0 4 2q1 4 2 11.5t2 10.5 q0 6 1 18.5t1 18.5q5 25 6 29q0 23 2 33q0 8 4 24q2 11 4 40.5t8 45.5q2 9 -3 14.5t-15 4.5q-24 -3 -47 -29q-29 -29 -25 -76q3 -67 43 -133q2 -7 13 -14zM653 561q-4 -8 -8 -24q-4 -62 -8 -91q0 -20 -2 -30h-2q-2 4 -2 12v8q-8 3 -4 21v16q-12 -24 -15 -33q2 -2 6 -5.5 t5 -4.5q-1 -7 -3.5 -20.5t-3.5 -20.5l2 2q4 8 7 17q8 0 8 -11q0 -10 -2 -16q63 21 98 68q17 19 6 40q-16 29 -65 68q-1 2 -3.5 2.5t-6.5 0.5t-7 1zM399 743q-4 4 -4 9q0 1 1 2t1 2q17 -17 25 -23l-4 -4q-4 2 -8 6q-9 5 -11 8zM494 926q2 0 4 2q1 4 2 11.5t2 10.5q0 6 1 18.5 t1 18.5q5 25 6 29q0 23 2 33q0 8 4 24q2 11 4 40.5t8 45.5q2 9 -3 14.5t-15 4.5q-24 -3 -47 -29q-29 -29 -25 -76q3 -67 43 -133q2 -7 13 -14z" />
<glyph unicode="%" d="M1210 956q-23 -51 -26 -57q-1 -3 -8 -17.5t-9 -21.5q-13 -26 -16 -35q-8 -20 -12 -28v-4q-1 0 -2 -2t-2 -3q-29 -29 -43 -73q-8 -12 -11 -21q-7 -13 -17.5 -36.5t-14.5 -32.5q-6 -12 -18.5 -37.5t-18.5 -38.5q-14 -28 -17 -37q-12 -18 -26 -51q-5 -12 -16.5 -36.5 t-16.5 -37.5q-10 -21 -29.5 -63t-29.5 -62q-5 -12 -18 -33.5t-19 -33.5q-8 -11 -19 -29l-4 -4q-1 -1 -3 -4.5l-4 -7t-3 -7.5q-7 -24 -27 -57q-2 -4 -6 -13.5t-6 -13.5q-4 -7 -11.5 -21.5t-11.5 -21.5v-4q-22 -6 -34 -26q-3 -4 -11 -6q-2 -3 -14 -15q-4 2 -10 2 q-19 0 -39 -16l-6 47l-25 -31l-22 -10q-6 3 -6 6q-14 14 -9 21q1 5 3 12t5.5 15t4.5 12q6 25 26 75q10 28 31 81.5t29 76.5l4 10q2 6 8 18.5t8 18.5q2 4 5 11.5t5 11.5q6 9 9 18q2 4 6 12.5t6 12.5l16 39q29 66 60 124q8 20 36 66l3 6q32 54 38 62q5 9 17.5 28.5t17.5 28.5 q16 30 19 61q0 33 14 68q5 17 17 46t16 42q6 10 16 41l2 4q39 20 53 62q43 105 103 198q25 38 37 53l6 9q7 10 21.5 29.5t21.5 29.5q43 58 59 82q21 30 60 55q21 15 28 15q6 0 13 -7q16 -12 26 -12v-26l37 22l33 -29q-14 -22 -13 -33t17 -22l-12 -14q-3 -3 -13.5 -17.5 t-17.5 -21.5q-1 -3 -8 -17q0 -1 -1 -3t-1 -3q-6 -6 -10 -18q-12 -24 -21 -33q-39 -43 -94 -139q-6 -7 -15 -35q-1 -1 -2.5 -7t-3.5 -9l-12 -37l16 6q-3 -5 -9 -15.5t-9 -15.5q-6 -3 -6 -6q-40 -14 -64 -70zM877 1044q-40 -28 -60 -36q-29 -13 -49 -13q-28 0 -57 19 q-4 4 -6 8q0 1 -2 2t-3 2q-2 3 -7 8t-7 8q-2 2 -12 12.5t-12.5 14.5t-7 13t-5.5 18q-11 54 8 88q25 41 54 65q7 5 21.5 16.5t21.5 16.5q0 4 6 4q4 0 4 -2q16 -4 24 -4h17q1 0 4.5 1t5.5 1h2q10 0 14 -4q8 -8 21 -8q24 -3 51 -21q15 -10 45 -53q2 -2 6.5 -7t6.5 -7 q-1 -4 -7 -39l-2 -8q-25 -59 -53 -78q-5 -2 -12.5 -9t-9.5 -8zM772 1081q36 0 70 27l12 6l14 10l4 9q6 19 5 28l43 23l-54 10v2q-1 1 -4.5 4t-6 5t-7 3.5t-10.5 1.5q-18 0 -21 15q-9 16 -29 16q-4 0 -16 -4q-43 -19 -59 -55q-15 -35 0 -62q9 -30 32 -35q16 -4 27 -4z M1391 418v-8q-24 -57 -56 -78q-3 -2 -11 -8.5t-11 -8.5q-32 -25 -60 -36q-26 -13 -47 -13q-28 0 -57 19l-8 8l-4 4q-7 11 -15 16q-31 35 -37 58q-10 50 9 88q25 43 53 65q16 14 43 33q8 4 10 4t2 -2q12 -4 25 -4h14q2 2 10 2h4q5 0 9 -1l4 -1q3 -4 20 -10q27 -3 51 -21 q30 -18 45 -53q2 -2 6.5 -7t6.5 -7q0 -3 -6 -39zM1315 432l43 23l-53 10l-2 2q-9 14 -29 14q-15 0 -21 15q-9 16 -24 16q-9 0 -21 -4q-39 -18 -59 -55q-13 -30 0 -62q12 -28 35 -35q16 -4 24 -4q28 0 74 27q1 1 4 3t4 3l19 10l2 11q4 8 4 26z" />
<glyph unicode="&#x26;" horiz-adv-x="1030" d="M530 1270q-3 3 -2 4h2v-4zM1118 616q-13 -20 -18 -32l-10 14l-15 -16v-2q-6 -3 -10 -15q-1 -5 8 -14l2 -4v-4l-8 -8q-2 -3 -2 -5q-8 -7 -21 -21.5t-18 -19.5q-15 -18 -35 -38q-3 -7 -4 -7l-6 -6q-13 -13 -37.5 -36t-36.5 -35q-28 -22 -18 -52q2 -2 12 -22q18 -53 47 -76 q19 -16 19 -43q-3 -32 -23 -51q-5 -6 -12 -27q3 -7 0 -10q-8 -8 -14 -12l-21 16q-10 -6 -12 -8q2 2 2 4q1 3 1 7.5t1 6.5l-2 19l-19 -10l-2 -3q-7 0 -10 -6q-10 -10 -4 -22v-2l6 -15q-4 0 -16 -4q-50 43 -68 76q-4 8 -29 33q-8 8 -12 10l-6 6l-53 -16l-6 -4q0 -1 -1 -3 t-1 -3q-1 0 -3.5 -2t-3.5 -2q-38 -20 -61 -43l-2 24l-27 -29q0 -6 -4 -6q-2 -2 -3.5 -4.5t-2.5 -3.5q-2 -2 -3.5 -5.5t-2.5 -4.5q-8 -12 -10 -14q0 2 -11 2q-15 0 -20 -5q-10 -3 -45 -16l-16 -8l-33 -12l18 -11q-4 -4 -16 -8q-25 -10 -33 -14q-38 -17 -51 -17h-4 q-45 3 -76 25q-2 1 -5 2t-5 2h-2l-15 6l-8 -16q-2 -4 -2 -19q-1 1 -2 3t-2 2q-2 2 -4 2l-8 8q-13 9 -15.5 11t-13.5 11t-15 14t-9.5 13.5t-8.5 17.5q-8 16 -18 21q-15 5 -21 24q-9 35 -53 54l-2 2q0 4 -4 12q-3 24 2 33q4 9 12.5 28.5t12.5 28.5q2 4 4 12t4 11v2q4 4 4 12 q0 46 37 96q3 5 9 16.5t9 16.5q12 23 23 37q17 25 61 65q3 3 10.5 8.5t10.5 8.5l24 18q5 6 16.5 18.5t16.5 18.5l2 4q2 1 3.5 4.5t2.5 3.5l31 31q9 3 12 12q11 27 53 64q3 2 11 8t10 8q33 33 31 62q0 4 10 24q30 52 -23 92l-8 7q-7 47 -2 88q23 126 25 133q9 30 18 49 q14 22 31 29h4q28 9 35 30l2 11l-6 4l6 2q2 2 4 2l14 4l-2 14v8q0 19 -4 27l-2 2q0 2 2 4q10 10 16 19q56 68 80 96q9 9 11 10l34 -6l7 8l6 8h2q20 -4 28 -4q11 0 31 4q2 1 10 5.5t11 5.5q4 -2 14 -2q7 0 31 6q2 2 4 2q89 32 157 35q2 0 50 6q17 0 41 4h12q21 0 33 -2l4 -4 l-15 -21l21 -35l33 11q0 -15 16 -25l-8 -12q-14 -5 -17 -19q-5 -9 3 -24q2 -2 5 -7.5t5 -7.5q2 -4 6 -8l6 -12l10 8l13 -14v2q-5 -17 -9 -62q0 -16 -2 -24q0 -17 -10 -37q-4 -12 -4 -19q-8 -13 -8 -28q-7 -18 -21 -64q-8 -20 -14 -30l-14 -21q-19 -23 -23 -35 q-24 -43 -51 -65q-42 -37 -66 -64q-20 -16 -28 -24l-2 -4q-10 -3 -41 -29q-10 -10 -19 -16q-5 -3 -14 -9.5t-14 -9.5q0 6 -2 10l-5 15l-51 -33v-29h2q-13 -10 -30 -20q-34 -23 -37 -25q-8 -3 -15 -10q-6 -2 -10 -6q-26 -20 -20 -45q2 -2 2 -6q1 -3 4 -14t6 -17 q15 -30 39 -74q2 -5 7 -15.5t7 -15.5l4 -8l11 4q20 5 53 29q2 1 4.5 3t4 3t3.5 2l12 -8l88 72q0 -1 9 -6q2 0 2 -5l4 -4q3 -6 10 -6q10 0 16 6q18 17 37.5 21t52.5 4q3 0 7 -4q1 0 3 -1t3 -1q2 -2 6 -2q4 -4 8 -6l6 -2q0 -3 -2 -5zM1120 1114l-4 -5q-4 -5 -4 -9 q-3 -13 4 -17l6 -14l17 12h2q1 1 4.5 6t5.5 9q2 3 2 6t-1 6t-1 4l-2 2l-6 23l-21 -21q0 -2 -2 -2zM498 1090l28 20l-30 6h-4q-1 0 -2.5 1t-2.5 1h-2q-14 -3 -14 -8l-14 -10l8 -13q6 -6 14 -6h2q7 0 13 6zM315 412l31 8l-20 18l-4 2q-3 3 -9 6h-4q-6 0 -14 -4h-2l-12 -8 l4 -12v-2l2 -5q2 -5 6 -7h8q6 0 10 2q2 0 4 2zM575 350q33 17 29 43v10q0 34 -10 46q-7 10 -14 30q-2 10 -11 27q-4 4 -2 6q-1 2 -4 6.5l-5 7.5t-6 5.5t-9 3.5l8 34l-27 -14q-1 -1 -4 -2t-6 -2.5t-6 -3.5q-71 -36 -94 -78q0 -2 -4 -6q-7 -3 -7 -6l-6 -4q-39 -43 -41 -76 q-6 -38 -6 -76v-16t8 -17t23 -8t25 4q41 9 77 33q11 6 33 18.5t33 18.5q3 2 26 16zM715 948q45 21 92 68q31 27 55 55q20 24 31 35q28 28 68 90q1 4 4 8.5t4 5.5q12 18 6 31q-4 12 -23 12h-4q-30 -4 -45 -8q-48 -14 -86 -59q-6 -3 -6 -8l-29 -29q-53 -42 -90 -111 q-17 -35 -8 -49q2 -1 6 -14q0 -11 6 -23l4 -10zM877 59q-4 2 -13 2h-2l10 11l5 -9v-4z" />
<glyph unicode="'" horiz-adv-x="327" d="M215 995v4q11 24 55 88q7 7 15 19q6 8 16 21t14 18q24 22 60 72q12 20 20 28q18 25 35 45q12 10 35 25q2 2 10 6h6h13q5 1 15 2t15 2h6q12 0 17 -16l4 -6q1 -4 3 -11.5t3 -11.5v-4q-56 -90 -74 -113q-35 -43 -59 -90q-10 -18 -43 -55l-4 -6q-30 -35 -68 -62 q-14 -14 -24 -22q-3 -2 -9.5 -7.5t-9.5 -7.5q-10 -10 -20 -10q-7 0 -15 -4l-10 27l-6 2q-4 0 -4 12q0 13 -2 16q-6 15 6 39z" />
<glyph unicode="(" horiz-adv-x="638" d="M375 395q6 -1 2 -9.5t-2 -10.5q4 -6 4 -21q0 -6 4 -22q10 15 14 20q-2 -9 -4.5 -20.5t-3.5 -14.5t-1.5 -7.5t-0.5 -7.5t-2.5 -6t-7.5 -5q-7 -3 -6.5 -14t8.5 -13q14 -2 14 -24q3 2 13.5 8t13.5 8q3 -6 18 -31q-1 -1 -6.5 -3.5t-7.5 -4.5q-1 -1 -3 -3.5t-3 -4t-1.5 -3.5 t0 -3t2.5 -3t5 -3q4 -2 4 -21q-4 -26 6 -31q1 -1 1 -8t1 -10q0 -26 21 -35q-10 -17 -4 -26q2 -5 2.5 -16.5t1.5 -14.5q-23 -11 -22 1q0 2 1 5q0 3 2 9t2 9q0 1 -3 4t-5 3q-1 0 -10 -9q0 -10 2 -16q-1 -2 -1 -5t-0.5 -5t-2.5 -4.5t-6 -3.5q-1 -1 -2 -4t-2 -8t-2 -7 q0 -22 -13 -33q-8 20 -30 25q-14 6 -27 31q-11 22 -29 24q-8 0 -12 8q-25 20 -35 33q-2 -2 -7 -5t-7 -5q-4 4 -2 6q-31 59 -35 66q-1 2 -7 13.5t-7 18.5q-1 4 -4.5 8.5t-10 9.5t-8.5 7h2q8 22 -8 57q-27 52 -27 86v6q-6 24 -4.5 31t15.5 31q-21 9 -17 47q2 31 3 93t3 93 q0 13 2.5 27t7.5 32t7 27q3 14 13 49.5t13 53.5q11 60 49 160q15 53 43 104q10 16 38.5 65t49.5 81.5t46 60.5q118 138 206 205q44 33 89 41q9 1 25.5 5t25.5 5q16 4 49 4q-4 -30 -8 -82q3 3 17.5 7.5t14.5 17.5q4 -2 9.5 -4t7.5 -3q19 19 24 23q0 -6 4 -14q4 2 27 6 q0 -6 -1 -18t-1 -17q2 -1 5.5 -2t4.5 -2q-6 -8 -21.5 -29t-25.5 -33q7 -2 18.5 -4t12.5 -2v-28q-26 -22 -49 -25q-13 -13 -43 -30t-43 -29q-18 -17 -76 -66q-8 -7 -20 -21.5t-17 -19.5q-4 -3 -11 -9t-11 -9q-1 -1 -2.5 -1.5l-3 -1t-1.5 -1.5q1 -7 -9 -18t-11 -17q0 2 -1 4.5 t-1 3.5q-2 -1 -5 -3t-5 -3q0 -1 1 -2t1 -2q2 1 5 2t5 2q-4 -13 -8 -15q-16 -11 -26.5 -24.5t-23.5 -38t-16 -29.5q-11 -19 -22 -45q-1 -1 -3 -3.5t-3.5 -4t-2.5 -3t-2 -1.5q-7 -1 -10.5 -4.5t-5 -10t-2.5 -8.5q-13 -40 -25 -49q0 -2 -2 -4q0 -13 -13 -42t-11 -46 q1 -13 -6 -38.5t-6 -37.5q-13 -13 -17 -43q-4 -13 -2 -20q0 -8 -4 -15t-10.5 -15t-9.5 -13q0 -4 -2.5 -12t-2.5 -11q9 -39 -14 -75v-7q-2 -2 0 -4q11 0 25 19q0 -3 1 -11t1 -12q-1 -1 1 -4t1 -4q-8 -12 -8.5 -22.5t3.5 -16t11 -13.5t10 -13q0 -5 4 -5q-2 -2 -2 -4 q-2 -1 -5.5 -4.5t-6.5 -5.5h-31q6 -8 12 -14q15 10 19 14q-4 -26 -8 -37q-1 0 -6 4t-7 3.5t-8 -5.5q-12 -11 8 -18q6 9 15 18zM168 678q-19 -10 -8 -21q2 -1 6 -0.5t6 2.5q8 7 -4 19zM350 356q1 0 2 -1t2 -1q5 5 8 11l-2 2q-2 -2 -5 -5.5t-5 -5.5zM793 1501q-2 0 -2 4 q-1 -1 -3 -2l-4 -2t-2 -2q-4 -4 -6 -8q2 -2 4 -2q1 2 6.5 6.5t6.5 5.5zM418 240l-2 2q-2 2 -4 -2q0 -1 1 -3.5t1 -3.5q1 1 2 3.5t2 3.5z" />
<glyph unicode=")" horiz-adv-x="641" d="M397 377q22 7 17 18q-4 5 -6 5.5t-9 -3t-10 -4.5q4 11 8 37q12 -12 15 -14q2 2 7 6t9 8h-31q-4 8 -8 10q0 2 4 4q2 3 2 5q3 3 19.5 15.5t22.5 23t3 26.5q0 2 6 8q1 2 5 11t6 12q5 -19 16 -19l4 4v7q-5 32 19 75q7 11 4 23q1 5 -4 20t0 23q1 3 3 10t3 10q10 28 0 43 q9 14 12.5 40t7.5 36q8 16 8 44.5t5 43.5q2 2 2 4q-4 4 -5.5 10.5t-1.5 11.5t1 13.5t1 13.5q0 1 0.5 6t0.5 8t-2.5 5.5t-8.5 3.5q-2 0 -2 4.5t2 7.5q-2 7 -4 22.5t-4 22.5q0 1 -0.5 10.5t-1 11.5t-1 10.5t-1 11.5t-2 10t-3 10.5t-4 9t-5.5 10t-7 8.5q-2 1 -2.5 3.5t-0.5 6 t-1 5.5q2 -1 5.5 -2t5.5 -2q0 1 1 2t1 2q0 2 -4 6q-1 -1 -4 -3.5t-5 -4.5q3 7 -3 17.5t-1 17.5q0 1 -3 2q-1 1 -1.5 1t-1.5 1q-2 3 -7 9t-7 9q-3 5 -9.5 19.5t-11.5 21.5q-7 14 -25.5 37.5t-21.5 28.5q-8 12 -30.5 29.5t-30.5 29.5q-18 2 -37 25q2 5 6 14t6 14q1 0 12.5 2 t18.5 4q-6 23 -19 62q1 1 5 2t6 2l14 35q5 -1 25 -6q2 2 5.5 6.5t6.5 7.5q7 -14 10 -23q14 3 21 7q-5 -13 7.5 -17t14.5 -8q4 16 13.5 43t13.5 39q33 0 49 -4q7 -1 21.5 -5t21.5 -5q42 -8 72 -41q62 -66 120 -205q8 -18 14 -37.5t10.5 -43.5t7 -39.5t6 -45.5t5.5 -41 q5 -27 5 -104q-15 -134 -21 -160q-14 -76 -20 -103q-7 -49 -17 -86q-47 -114 -73 -186q-16 -39 -39 -47q4 -24 2 -31t-17 -31q0 -2 -4 -6q-13 -36 -63 -86q-29 -32 -31 -57q-3 -3 -15.5 -11t-15.5 -14q-8 -16 -30 -32q-29 -29 -58 -66q-4 -2 -8 -6l-10 10q-6 -5 -45 -33 q-16 -8 -19 -8q-15 -2 -41 -24q-22 -26 -39 -31q-26 -6 -39 -25q-8 10 0 33q3 4 4 11t-1 8q-8 3 -3 18q1 2 4 7.5t3 8.5q1 1 -0.5 5t-3.5 4q-3 0 -7 -2.5t-4 -4.5q-2 -3 -2.5 -9.5t-1.5 -8.5q-6 -18 -24 -6q2 3 6.5 14.5t9.5 16.5q11 9 8 26q18 5 39 35q0 15 8 18 q19 8 19 31q0 4 4.5 11.5t7.5 9.5q6 2 9 3.5t3.5 4t0.5 3.5t-2.5 4.5t-2.5 4.5q-2 2 -5.5 4.5t-4.5 3.5q3 3 9.5 9t12 11.5t9.5 10.5q6 -4 18 -16q1 1 3 4t2.5 4.5t2.5 4t3 3.5t3 2.5t4 2.5l4 2t5 1q7 1 13 12.5t1 14.5q-6 3 -7 6.5t2 10.5t3 9q0 11 6 35q6 -15 6 -20 q6 8 13 22q3 3 7 10.5t7 10.5q2 2 2 10t8 10zM705 659q2 -2 6 -2.5t6 0.5q12 12 0 21q-16 -12 -12 -19zM393 367q-4 -2 -6 -2q4 -8 4 -11q1 0 2 1t2 1q0 2 -1 5.5t-1 5.5zM449 1489l4 2v8q-1 1 -2 3t-2 3l-7 -4q1 -2 3.5 -6t3.5 -6zM283 233q1 1 2 3.5t2 3.5v2q-4 0 -8 -2 q1 -1 2 -3.5t2 -3.5z" />
<glyph unicode="*" horiz-adv-x="473" d="M672 1196q3 -9 2 -12q3 -9 6 -15q0 -2 -4 -6q-9 -22 -10 -28q0 -4 -7 -9q-21 -14 -53 -14q-12 0 -24 -6q-30 -14 -23 -45q2 -8 -2 -29l-2 -4q-11 -11 -14 -20q0 -5 -4 -9q-25 21 -45 21h-5q-3 12 -18 12h-6h-2q-3 0 -15 4l-8 2l-6 -6l-8 -8q-10 -10 -18 -16q0 -2 -7 -9 q-10 -13 -18 -16q-13 -6 -19 -16q-11 0 -30 -15q-4 -4 -19 -14q-2 -2 -4 -2q-4 4 -4 10q-4 6 -4 17q0 13 -8 18l14 33l-6 4l25 47h-19h-8q-4 0 -10.5 1t-9.5 1q-7 0 -11 2q-2 0 -6.5 1t-7.5 1h-2h-8h-2l4 6l-4 6l-4 4q0 1 -1 2.5t-1 2.5q-3 4 -3 14q15 25 13 41v4v2q2 3 4 8 t4 8v2q2 1 2 3q9 3 12 6q4 1 13.5 2t13.5 2h8q6 1 18 2t17 2l29 2v12q0 1 1 3t1 3q0 2 1 6.5t1 6.5q3 28 18 63q6 12 14 16q2 1 5 2t5 2t3 1q2 0 4 -2q29 -7 43 -23q8 -8 16 -8q16 0 27 16l2 2q10 10 18 23q14 26 49 37v2q12 -4 17 -4q2 -1 7.5 -2t7.5 -1.5t6 -2t6 -3 t4.5 -3.5t3.5 -5l4 -8q-3 -7 0 -10v-6q0 -2 -1 -7t-1 -8q-5 -5 -2 -10q-3 -18 -23 -45l-10 -14l24 -6q15 -5 17 -5q2 -2 8 -2q19 -4 23 -10q4 -4 6 -4z" />
<glyph unicode="+" horiz-adv-x="671" d="M788 745q-3 -19 -12 -26q-6 -6 -6 -12l-2 -2q-5 -9 -8.5 -11.5t-16.5 -3.5h-10h-16h-2q-1 0 -5.5 -1t-7.5 -2t-8 -4t-8 -7q-1 0 -4 -1t-4 -1q-7 0 -10 -6q-15 -15 -35 -15q-8 0 -23 -1t-22 -1q-6 -2 -21 -2h-8l-6 -10q-8 -11 -8 -27l-41 -30l4 -7l-6 -6l-15 -67l-10 -10 q-7 -4 -12 -15h-4l-8 -8l-2 -2q-8 -8 -9 -10q0 -2 -2 -4l2 2h-4q-8 0 -12 -2l-8 -4q-12 -6 -15 -7h-10l10 50l-30 -33l-8 24l-19 -34q-1 0 -3 1t-3 1t-3 1t-3 1l-4 2q-2 4 -2 16q1 8 4 25.5t4 25.5q1 7 3 20.5t3 20.5q1 4 2 12.5t2 12.5v12v4h10l4 17l5 22h-19h-4 q-3 6 -14 6h-19q-21 0 -49 -4h-8q-1 0 -9.5 3.5t-13.5 4.5q-3 2 -9 6.5t-9 6.5q-5 2 -13.5 7t-13.5 7q-11 4 -14 14q-3 3 -8 13l-4 4q-2 6 -2 8q2 3 1.5 8.5t0.5 5.5l-2 2v4l2 2q10 10 28 21q2 2 4 3.5t5.5 3.5t5.5 3l2 2q2 2 6 5t6 5q15 12 23 9h2q6 0 10 -2q33 -4 59 8h4 h4q15 0 23 2h35h2q22 0 33 18q1 0 3 1t3 1l18 10l-14 15q-3 3 0 14v2q6 27 6 49q2 39 37 103q0 5 8 10q17 14 31 35q12 8 24 8q3 1 6 1t7 -0.5t6 -0.5h14q10 0 16 2h5q2 -2 6.5 -5.5t5.5 -4.5l4 -2q0 -1 1 -3t1 -3q0 -9 4 -21h2q4 -4 6.5 -9l3.5 -7q0 -11 -2 -19q0 -1 -1 -3 t-1 -3q-8 -52 -10 -71q0 -14 6 -23l-22 -66l12 -2l6 -2q2 0 6 -1t6 -1h9h4q29 -8 47 -10q5 -1 16 -2t15 -2q4 0 12 -1t12 -1h2q36 -6 47 -31v-2q0 -13 10 -18v-11z" />
<glyph unicode="," horiz-adv-x="407" d="M330 8q-5 -9 -55 -92t-76 -127q-12 -19 -43 -53q-3 -3 -7.5 -8.5t-7.5 -8.5q-5 -6 -14.5 -17t-17.5 -20t-15 -16q-12 -12 -28 -24q-8 -4 -9 -4q0 1 -1.5 2.5t-2.5 3.5l-6 6q0 4 -2 4l-6 12l-16 -8h-3q-3 0 -6 8q-1 2 -3 5t-3 5q-1 3 -3 7.5t-3 8t0 7.5q3 10 0 20 q0 15 2 21q6 50 41 88q4 8 6 10q6 9 12 15q38 38 87 122q5 10 20 35q21 36 57 92q6 8 25 27q4 4 8 6q27 3 53 19q3 -1 8.5 -3.5t8.5 -3.5q4 -2 7 -4.5t6 -7t4.5 -8t4 -9.5t4.5 -9v-7q2 -2 2 -8q1 -3 3.5 -9t3.5 -9q3 -6 -3 -15z" />
<glyph unicode="-" horiz-adv-x="808" d="M911 803q1 -1 5 -3t5.5 -3t4 -3t2.5 -4t-1.5 -4.5t-4.5 -5.5h-25q3 -22 0 -45q0 -13 -18 -20q-37 -11 -82 -21q-16 -3 -32 -3.5t-38 0.5t-31 1q-14 0 -39 -1t-39 -1q-17 0 -49 4q-19 0 -59 4q-59 3 -107 9q-26 0 -38 2q-67 10 -113 26q-49 18 -62 41q-4 3 -4 17 q-2 5 -2.5 16t-3.5 16q-9 15 6.5 35t42.5 31q29 11 45 20q21 12 29.5 13t32.5 -6q35 -12 65 -7q2 0 22 3.5t30 3.5q29 2 84 2q15 -1 41.5 -3.5t37.5 -3.5q15 0 23 2q-4 1 -12.5 4.5t-12.5 4.5l2 2q40 -3 84 -6q13 0 58 -5q6 -1 17.5 -2.5t18.5 -2.5t16.5 -4t16.5 -7 q9 -6 32.5 -13t29.5 -9q9 -2 20 -13q4 -4 10.5 -13t10.5 -13q12 -14 9 -19t-28 -16z" />
<glyph unicode="." horiz-adv-x="337" d="M276 53q-4 -6 -8 -22q-9 -12 -18 -29q-3 -10 -8 -12h-17l-10 -10l-10 12l-31 -21q-9 6 -20 6h-11h-2q-11 7 -22 7q-9 0 -23 -7q-12 3 -20 3q-2 1 -5 1.5t-5 1t-3 1.5q-4 4 -6 4q0 2 2 4l7 18l-21 -2h-4l-2 4q-20 10 -31 43q-1 1 -2 4t-2 4q-6 15 0 35q5 36 43 80 q17 20 33 33q12 7 47 20l14 7q8 4 21 4q12 0 18 -2q8 -2 29 -2h27h4q4 0 6 -2q10 -14 26 -17q4 0 5.5 -0.5t2.5 -4t1 -11.5q0 -21 8 -37q0 -2 -2 -4q1 -3 2 -9.5t2 -9.5q10 -17 -6 -53q-7 -7 -4 -16q2 -5 -5 -21z" />
<glyph unicode="/" horiz-adv-x="663" d="M711 1057l16 6q-3 -5 -9 -15.5t-9 -15.5q-7 -4 -7 -6q-39 -14 -63 -70q-4 -9 -12.5 -28.5t-12.5 -28.5q-12 -21 -18 -39q-13 -26 -16 -35q-4 -10 -13 -28v-4q-1 0 -2 -2t-2 -3q-23 -23 -43 -73q-8 -12 -8 -21q-23 -45 -35 -69q-6 -12 -18.5 -37.5t-18.5 -38.5 q-11 -22 -16 -37q-15 -24 -27 -51q-5 -12 -16 -36.5t-16 -37.5q-31 -64 -58 -125q-5 -10 -18.5 -31.5t-20.5 -35.5q-3 -4 -18 -29l-4 -4q-1 -1 -3 -4.5l-4 -7t-3 -7.5q-7 -24 -27 -57q-1 -6 -12 -27q-4 -7 -11.5 -21.5t-11.5 -21.5v-4q-24 -6 -35 -26q-4 -4 -8 -6 q-5 -8 -16 -15q-2 2 -11 2q-18 0 -38 -16l-7 47l-24 -31l-23 -10q-1 1 -2.5 2t-2.5 2t-1 2q-11 14 -6 21q3 18 10 39q4 19 27 75q10 29 30.5 82t28.5 76l4 10q14 28 17 37q2 4 5 11.5t5 11.5q4 6 8 18q2 4 6 12.5t6 12.5l17 39q34 76 59 124q15 29 37 66l2 6q26 44 39 62 q5 9 17.5 28.5t17.5 28.5q14 27 18 61q0 21 15 68q6 17 17 46.5t15 41.5q8 14 17 41l2 4q39 19 53 62q45 109 102 198q25 38 37 53l6 9q7 10 22 29.5t22 29.5q10 14 30.5 41.5t30.5 40.5q18 30 57 55q21 15 29 15q5 0 12 -7q16 -12 27 -12v-26l37 22l33 -29q-14 -22 -13 -33 t17 -22l-13 -14q-5 -6 -14 -19.5t-14 -19.5q-9 -14 -9 -17q-4 -4 -4 -6q-2 -3 -5 -9t-5 -9q-13 -26 -20 -33q-41 -46 -95 -139q-5 -9 -14 -35q-1 -2 -2 -7.5t-2 -8.5z" />
<glyph unicode="0" horiz-adv-x="1120" d="M291 117q-13 7 -17 12q-12 9 -26 23q-86 94 -107 274q-3 20 -8 127q-3 105 39 223q9 27 51 109q2 2 5 7t5 7q13 29 60 84q50 66 78 96q41 43 102 101q1 2 5.5 6.5t6.5 7.5q34 39 95 74q8 4 25.5 13t25.5 13q2 2 14 6q52 10 121 54q17 11 25 6q3 -3 10 0q16 4 21.5 4.5 t19.5 -3t18 -3.5q19 -3 37 -10q7 -2 12 -7q7 -11 27.5 -23t24.5 -15q5 -4 73 -58q7 -5 35 -28q4 -3 12 -10t13 -11q46 -41 71 -131q31 -110 35 -174q1 -17 0 -48t0 -46q0 -36 2 -54q9 -65 -4 -143q-9 -43 -14 -61v-13q3 -11 -6 -47q-4 -32 -23 -49q-7 -7 -16 -29 q-12 -27 -25 -53q-32 -46 -49 -65q-60 -63 -100 -99q-8 -8 -43 -30q-3 -2 -13 -9t-16 -12q-25 -17 -35 -18q-6 0 -10 -4q-13 -13 -29.5 -22.5t-37.5 -18.5t-31 -15q-4 -3 -10 -4.5t-14 -3t-13 -2.5l-35 -10t-43 -10q-94 -14 -184 14q-25 9 -67 32t-62 31q-2 1 -5.5 4.5 t-5.5 4.5q-3 1 -10 3t-10 3zM866 1169q-16 -7 -43 -17t-35 -13q-9 -5 -27 -15.5t-24 -13.5l-32 -16q-12 -6 -25.5 -15.5t-20 -14.5t-23.5 -20t-20 -18q-7 -6 -21.5 -18.5t-21.5 -18.5q-36 -32 -114 -119q-55 -63 -70 -98q-49 -96 -29 -176q5 -16 19 -80q24 -88 67 -133 q15 -17 42 -49t42 -49v-6q2 -13 25 -17q9 0 29 -4q29 -3 143 12q56 9 72 9q30 0 37 2q63 17 98 57q52 69 70 100q29 50 51 129q12 43 8 107q0 125 2 186q0 37 -2 55q-3 11 -11 34.5t-10 35.5q-10 20 -8 27q2 23 -16 45q-13 18 -31.5 36t-32.5 29t-39 30t-36 28q-3 0 -5 2 q-8 8 -22 -4q3 -1 7 -4.5t7 -4.5z" />
<glyph unicode="1" horiz-adv-x="1032" d="M981 152q6 2 14 6q7 -7 23 -31q-10 5 -19 8q-1 -6 0.5 -16t1.5 -13q-1 -1 -4 -5.5t-4 -8.5q1 -2 5 -7t6 -9q-9 3 -15 6q-2 -5 0 -8t6.5 -5.5t5.5 -5.5q-12 -36 -67 -79v-15q-29 -12 -31 -12q-28 -4 -45 -4q-82 0 -125 -8q-4 -1 -12.5 -1t-13.5 -1q-13 -1 -37 -4.5 t-37 -4.5q-20 -2 -60.5 -6t-60.5 -6q-29 -2 -106 -10q-1 0 -19 -6q-38 -10 -41 -10q-60 -6 -115 -9q-36 0 -43 4q-6 4 -23.5 11.5t-25.5 13.5q-20 24 -18 39l12 12q-8 0 -12 2q2 6 5.5 18t7 22.5t7.5 19.5q4 5 23 20q38 33 57 47q53 33 115 49q106 29 184 39q2 1 8 2t9 2 q0 9 4 25q-3 140 24 281q23 115 49 206q12 31 32.5 93t31.5 92q25 61 65 143q4 8 17.5 36t19.5 44q2 3 5.5 10t5.5 10l-5 2q-8 -4 -18 -14q-87 -102 -104 -123q-23 -27 -63.5 -77.5t-59.5 -73.5q-2 -3 -68 -80q-2 -2 -5 -7t-5 -7q-23 -30 -51 -21q-3 0 -8.5 -1t-8.5 -1 q-11 -3 -13 -2t-3 10q-31 0 -35 2q-7 5 -27.5 8t-27.5 9q-5 -1 -21.5 -1.5t-25.5 -2.5t-22 3t-19 3q-12 24 -21 45q-7 19 -2 32q13 49 37 84q29 42 49 64q2 2 5.5 4.5t4.5 3.5q2 1 5 3t5 3t4.5 2.5t3.5 3.5t2 5t-1 6q0 5 16 16q22 19 65 51.5t56 42.5q26 20 76.5 59t90.5 71 t75 61q75 61 252 217q55 45 90 80q10 10 22 14q19 6 41 10q23 0 25 -12q7 -16 18 -21q27 -14 25 -34q6 -5 7 -13.5t-0.5 -19.5t-0.5 -16q3 -27 -10 -54q-14 -49 -47 -125q-45 -115 -121 -297q-49 -135 -76 -221q-28 -83 -84 -274q-50 -205 -59 -246q-4 -11 -6.5 -23 t-5.5 -26t-5 -23q-1 -3 -2 -9.5t-2 -10.5q0 -14 15 -14q11 1 30 2t29 2h27h20q11 6 33 2q49 -12 78 -21q10 -4 12 -8t4 -18zM565 369l-14 -7q4 -4 6 -3.5t7 8.5q1 1 1 2z" />
<glyph unicode="2" horiz-adv-x="968" d="M946 309q-1 -5 -5.5 -10.5t-6 -8t1.5 -7.5q4 -4 25 -4q2 0 7.5 1t8.5 1q-15 -15 -23 -21q4 -4 11.5 -10t11.5 -10q-5 -2 -13.5 -5.5t-13.5 -5.5q4 -3 5 -13.5t10 -12.5q-13 -7 -19 -15q-2 -3 -2 -6.5t1 -8t1 -7.5q-22 -7 -24 -21q-6 -6 -13 -6q-13 2 -33 -7.5t-30 -10.5 q-6 0 -6 -4q-6 -15 -27 -19q-28 -11 -121 -30q-126 -29 -178 -43q-44 -11 -92 -37q-8 -5 -37 -15q-71 -16 -104 -20q-17 -4 -43 0q-65 7 -117 -4q-33 -7 -53 8q-1 1 -5.5 4t-7 5t-4 6.5t3.5 9.5q1 2 0.5 4t-2.5 2q-3 2 -5.5 4.5t-4 7.5t-2 7.5t-1.5 9.5t-1 8q0 6 -1 13 t-2.5 15t-2.5 13v73q0 21 8 27q1 0 1 2t-1 4q0 13 20 41q37 62 50 86q7 15 32 53q2 2 2 4q21 36 53.5 77t51 61t65.5 69q57 60 91 119q8 14 24.5 43t24.5 43q2 2 4 6.5t4 7.5q-3 2 -11 8.5t-15 10.5t-15 6q-37 7 -47 33q-11 23 -51 63q-9 8 -17 19t-18.5 27t-14.5 22 q-2 2 -2 10q5 11 1 36.5t-3 33.5q-4 70 -4 104q6 30 6 31q0 15 4.5 30t13 33.5t11.5 28.5q4 9 33 43q4 4 8 6q29 18 47 31q22 14 27 18q5 2 28 16t37 19q44 20 107 27q2 1 7 1t7 1q32 13 74 6l-10 -10v-4q20 5 53 -7q53 -17 110 -57q33 -16 43 -59q2 -6 7 -29q-4 -3 -29 -18 q-1 -10 4 -60q1 -3 4.5 -11t3.5 -13q-8 -70 -10 -103q0 -2 -1 -5.5t-1 -4.5q2 -18 2 -23t-6.5 -22.5t-7.5 -22.5q-1 -4 -4.5 -12t-4.5 -12q-4 -18 -12 -38t-19 -44.5t-16 -38.5q-8 -23 -20.5 -47.5t-29.5 -54t-25 -45.5q-1 -1 -4.5 -6t-6.5 -7q-9 -10 -41 -67 q-2 -5 -8.5 -15.5t-9.5 -15.5q-1 1 -4 3t-6 3q-62 -93 -76 -111q8 -4 10 -4q0 -2 -2 -4q-5 -7 -27 -35q-5 -8 -8 -16q-14 -28 -26 -35q-11 -7 -13 -12q-3 -4 -8 -11.5t-8 -12.5t-6 -12t-4 -13q0 -1 -3 -3t-6.5 -4.5t-5.5 -4.5q-2 -9 -4.5 -12.5t-17.5 -10.5q3 -12 -8 -20 q-7 -7 -20 -22.5t-17 -20.5h24q45 12 131 12q8 1 26 1t32.5 1.5t27.5 5.5q2 2 9 2q78 10 135 21q22 3 63 10t58 10q11 2 32 5t31 5zM506 1114q0 -5 1.5 -13.5t1.5 -15t-3 -10.5q-3 -6 -3.5 -11.5t0.5 -13t1 -10.5q1 -6 2 -19.5t2 -19.5q3 -7 4 -21.5t5 -25t15 -14.5 q2 -1 3 -4t2 -4q7 -17 20 0q2 2 5 7t5 7l54 123q24 58 28 88q5 31 -17.5 52t-53.5 14q-20 -5 -48 -17q-24 -10 -30 -19.5t-4 -33.5q0 -1 1 -3t1 -3q-4 -20 -4 -33l2 -4q1 0 2 0.5t3.5 1.5t4.5 2z" />
<glyph unicode="3" horiz-adv-x="831" d="M322 1163q1 2 3.5 5.5t3.5 5.5t2 4.5t0 5t-3 4.5q-3 -1 -8 -2t-8 -2t-5.5 -4t-3.5 -9q0 -4 -8 -4q-16 4 -23 11q-10 10 -18 8q1 3 5 8t5 6q-4 4 -4.5 8t1.5 7t6 8.5t5 7.5l-10 10q4 9 11.5 14.5t19 10t14.5 6.5l2.5 7.5t2.5 8.5t1 8q0 16 19 27q24 14 37 18 q156 50 233 56q102 10 162 -23q17 -9 55 -47q19 -16 31 -37q18 -22 10 -49q-3 -3 0 -6q6 -52 -43 -141q-3 -6 -10 -19t-10.5 -20t-8 -18t-6.5 -21q-8 -37 -51 -94q-9 -12 -24 -35t-19 -29q-4 -5 -13 -15.5t-13 -15.5q10 -10 16 -12q5 -3 17.5 -8t17.5 -8q72 -34 125 -111 q37 -50 51 -137q-1 -2 -1 -7t-1 -7q-6 -24 0 -45v-15q-14 -86 -29 -147q-4 -13 -8 -43q-1 -5 -4 -11.5t-9 -15t-8 -12.5q0 -1 -3.5 -16t-8.5 -21q-29 -45 -67 -86q-8 -10 -54 -51q-6 -6 -14 -8q-6 -3 -19 -9t-18 -8q-45 -26 -98 -39q-16 -3 -51 -13.5t-54 -12.5 q-73 -7 -120 6q-4 2 -13 2q-15 3 -28.5 7t-31.5 11t-26 10q-6 2 -13 8.5t-11 8.5q-64 35 -86 49q-7 3 -17.5 12.5t-15.5 12.5q-6 0 -6 4q2 10 -5 24.5t-8 18.5q-5 20 2 30q7 7 7 21q-2 9 10 29q1 2 4 8.5t6 9.5q15 26 27 43q6 6 10 8q38 13 53 21q3 2 10.5 0.5t8.5 -4.5 q28 -26 90 -37q26 -4 33 -11q71 -54 206 -47q25 0 37 2q20 2 29 21q13 30 43 80q27 48 16 119q-19 104 -100 157q-62 39 -143 51q-12 3 -35 10.5t-35 10.5l-4 4q-1 7 -6 19t-6 19t4 23q2 5 2.5 14.5t1.5 12.5q5 17 39 51q33 38 94 78q74 53 133 131q26 41 18 74 q-8 51 -14 80q-7 31 -35 28q-51 0 -80 -2q-5 0 -45 -10l-69 -18q-20 -10 -29 -13q-6 -4 -22 -8z" />
<glyph unicode="4" horiz-adv-x="739" d="M840 1165q24 4 34 6q0 -2 -3.5 -14t-2.5 -18q6 -24 6 -27q0 -7 1.5 -22.5t1.5 -22.5q1 -3 2 -8t2 -8q0 -1 1.5 -5t0.5 -6q0 -65 -4 -84q-7 -34 -23.5 -97t-21.5 -83q-4 -17 -11.5 -51t-11.5 -51q-21 -85 -39 -146q-36 -115 -53 -260q-8 -86 -21 -200q-1 -12 -2 -37 t-2 -37q-1 -11 -14 -53q-5 6 -12 9.5t-12.5 5t-15.5 3t-13 2.5q-6 3 -13 10q-1 -3 -5 -9t-5 -9q-20 2 -31 29q-5 -7 -12.5 -10.5t-19 -6t-15.5 -4.5q-2 -1 -6 1t-6 5q-4 20 -4 31q4 128 8 186q0 56 27 158q28 125 30 133q1 6 4.5 20.5t4.5 22.5q-18 -3 -33 -6 q-16 -3 -46 -10.5t-40 -9.5q-18 -6 -33 -9q-12 -2 -37.5 -5t-38.5 -5q-15 0 -39 -4h-20q-7 3 -20.5 9.5t-21.5 10.5t-18.5 11.5t-17.5 15.5q-2 6 -14 10q-32 11 -43 60q-6 28 -10 88q0 23 6 41q8 76 18 112q44 126 78 285q14 66 47 162q1 6 7 22t7 25q0 1 11 18q4 5 12 15.5 t12 15.5q0 -4 8 -4q12 -4 19 8q0 1 1.5 2t3.5 2t3 2q11 12 16.5 12t12.5 -12q3 -13 16 -16q4 0 6 -2t5 -6t5 -6q13 4 17 0q2 -3 7 -8.5t7 -8.5q-7 -15 -10.5 -29.5t-5 -39t-2.5 -29.5q-2 -20 -10 -55q-1 -1 -2.5 -8.5t-5.5 -11.5t-13 -5q-5 -15 -16 -37q-14 -36 -15 -47 q-4 -8 -8 -24q-1 -5 -4 -19t-4 -22q-4 -13 -2 -23q0 -22 -8 -41q-3 -13 -9.5 -36t-11 -42t-8.5 -35q-16 -45 -23 -122v-9q0 -23 5 -29t28 -7q75 -7 187 14q14 2 51 14q47 18 59 66q8 33 24.5 98t24.5 98q13 42 52 152q10 31 51 63q2 2 7 6.5t7 6.5q16 16 25 -2v-13z" />
<glyph unicode="5" horiz-adv-x="901" d="M1135 1298q-7 -2 -16 -5.5t-11 -4.5q0 -2 -4 -10q-3 -18 -25 -27q-47 -27 -108 -30q-13 -1 -27.5 -2.5t-32.5 -4.5t-30 -4q-13 0 -19 -2q-11 -6 -23 -8t-26 -2.5t-22 -1.5q-78 -12 -115 -18q-20 -4 -31 -4q-24 -3 -27 -25q-45 -175 -49 -191q-7 -23 -39 -104q0 -2 -2 -6 q15 0 23 2q8 1 24.5 3t24.5 3q59 8 119 -18q112 -48 160 -150q22 -44 34 -102q13 -64 15 -92q3 -68 -13 -129q-9 -42 -14 -56q-9 -37 -37 -65q-13 -11 -24.5 -23.5t-26 -31t-20.5 -25.5q-12 -12 -60 -72q-6 -6 -19.5 -21t-20.5 -23t-19 -18.5t-23 -17.5q-37 -22 -80 -41 q-41 -18 -75 -18q-3 0 -21 -6q-20 -5 -29 -8q-1 0 -8.5 -2.5t-9.5 -4.5q-4 -6 -9 -9t-8.5 -4t-10.5 -2t-9 -1q-51 -6 -96 0q-8 0 -25.5 1t-25.5 1q-5 0 -16.5 1t-16.5 1h-4q-21 -1 -101 8q-12 2 -26 13q-2 3 -6.5 9t-7 9.5t-4.5 10t-1 12.5q-1 0 -1 1t-1 1q-10 7 -15 18 t-8 29.5t-5 25.5q-1 4 -4.5 17t-3.5 20q1 4 2.5 16.5t3 18t5 15.5t9.5 18q0 7 9.5 16.5t10.5 16.5q0 1 11 6q4 3 8 5t8.5 4t7.5 3q36 22 54 -6l10 -10q5 -5 14 -15.5t14 -15.5q7 -11 21 -20t21.5 -12.5t29.5 -12.5q48 -17 107 4q96 30 155 59q66 32 107 66q9 7 22 24 q64 94 49 197q-11 77 -14 90q-6 19 -20 41q-10 17 -41 14q-57 -8 -131 -47q-68 -28 -115 -28q-9 0 -26.5 3.5l-22.5 4.5q-21 7 -25 8q-2 2 -10 6q-4 7 -11.5 21.5t-11.5 21.5q-6 12 -4 15q3 32 9 61q6 27 28 109q2 13 7.5 36.5t7.5 34.5q3 14 6 38l4 32l18 117q14 79 15 104 q1 5 4.5 15t5.5 18t2 14q5 36 10 49q8 22 27 47q1 1 16 9q2 1 7 3t8 4t4 5q4 8 11 13.5t10.5 6.5t16.5 4q161 30 226 41q78 14 166 27q32 5 116 14q43 5 47 7q19 7 41 -11q25 -21 45 -28q11 0 11 -13q-6 -36 -6 -37q-1 -2 -3 -8.5t-2.5 -9.5t-1 -8.5t1.5 -9.5t7 -7z" />
<glyph unicode="6" horiz-adv-x="798" d="M473 696q41 -5 45 -4q43 6 76 -14q67 -43 115 -78q41 -30 53 -80q3 -7 10 -19.5t10 -19.5q31 -54 31 -157q0 -43 -8 -76q-9 -58 -43 -103q-8 -10 -17.5 -20.5t-20.5 -22t-17 -18.5q0 -4 -2 -4q-32 -48 -84 -80q-13 -9 -52 -53q-52 -55 -112 -58q-14 -1 -41 -7t-35 -7 q-79 -18 -102 -18q-88 0 -134 49q-6 6 -19 17.5t-21.5 21.5t-12.5 22q-8 6 -14 16.5t-12.5 24.5t-10.5 21q-6 10 -6 43q-2 33 -2 98q0 21 4 53q9 61 21 123q2 6 37 103q29 68 63 122q7 14 14 21q8 11 16 23.5t16.5 27t14.5 23.5q20 30 23 36q3 4 7 13t7 12q30 39 76 107 q24 35 109 120q75 86 88 101q18 21 52.5 62.5t51.5 62.5q9 10 30 29.5t30 29.5q33 33 38 41q6 8 39 31q32 28 45 32l9 9q36 40 59 63q7 7 27 17q23 8 37 20q8 -4 12 -4q12 4 16 8q10 14 37 10q10 0 14 -2q12 -6 13 -8q4 -39 0 -59q0 -7 -4 -19q-1 -2 -7 -13t-8.5 -15.5 t-8 -11.5t-11.5 -11q-22 -21 -53 -65t-37 -52q-14 -16 -45 -47q-28 -29 -119 -139q-30 -38 -92 -104q-44 -48 -148 -156q-6 -6 -8 -10q-18 -22 -27 -35q-2 -3 -5.5 -10.5t-6.5 -12.5zM244 256q-6 -69 -6 -76q-3 -47 10 -80q6 -14 20 -20q40 -9 84 0q92 17 158 53q15 5 29 19 q66 76 63 147q-3 54 -12 107q-3 32 -29 55q-17 20 -53 14h-23q-38 3 -69 -14q-14 -7 -17 0q-3 4 -6.5 5t-5.5 0.5t-7 -2t-7 -1.5q-19 -4 -23 0q-29 9 -43 -17q-14 -27 -28 -67q-13 -43 -21 -80q-3 -7 -7.5 -21.5t-6.5 -21.5z" />
<glyph unicode="7" horiz-adv-x="1030" d="M383 823q6 1 27.5 8.5t31.5 6.5q7 0 11 4q20 14 67 22q21 2 63.5 7.5t63.5 7.5q24 3 33 24q43 90 137 240q22 32 70 114q4 6 12 18.5t12 18.5q1 3 5 11.5t6 13.5q-28 2 -78 -6q-155 -28 -193 -33q-94 -16 -174 2q-5 1 -39 12q-16 0 -22 2q-8 4 -24.5 12.5t-24.5 12.5 q-13 7 -27 10q-24 3 -27 19q-2 4 -9.5 11t-8.5 15q4 42 20 58q25 20 27 32q33 25 51 25q10 0 21 -1t24 -2.5t21 -2.5q22 -2 137 -2q2 0 119 6q12 1 38 4t38 4q21 3 63 8t64 8q43 5 100 15q19 2 59 18q21 7 35 4t16 -12q10 -10 15 -12q30 -10 38.5 -45t-5.5 -64 q-16 -41 -68 -135q-47 -75 -96 -170q-10 -24 -34 -65t-30 -54q-39 -76 -43 -84q16 -4 23 -4q13 0 42 1t44 1q11 0 8 -12q13 2 35 6t35 6q4 0 4 -2q24 -12 32 -20q26 -21 31 -27q7 -6 7 -10.5t-7 -13.5q-8 -10 2 -23q-18 -3 -35 -6q-7 -30 -24 -47q-1 -1 -5.5 -6t-7 -7t-6 -5 t-7.5 -4t-9 -1h-2q-4 -6 -9 -9.5t-11 -5.5t-10 -3t-11.5 -1.5t-9.5 -0.5q-68 -13 -125 -21q-18 -1 -53 -2t-52 -2q-16 0 -22 -8q-5 -7 -19.5 -23t-21.5 -26q-40 -70 -59 -109q-36 -65 -68 -164q-9 -18 -10 -22q-8 -20 -62 -184q-8 -44 -18 -68q-2 -8 -11.5 -24t-9.5 -17 q-38 -3 -51 -35q-1 4 -2 10.5t-2 10.5q-6 -12 -6 -15q-12 -21 -35 -14q-22 3 -41 -8q-5 -3 -13 -5.5t-11 -4.5q-8 11 -9 12q-6 3 -9.5 8.5t-5 9.5t-3 13t-2.5 12v8l4 6q-3 3 -3.5 7t0 7t2 9t1.5 8q7 26 20.5 73t18.5 66q16 71 51 129q22 33 52 99t34 73q9 22 29.5 62 t25.5 49q11 22 13 27h-35q-84 -14 -107 -17q-17 -3 -32 0q-6 1 -21.5 1.5t-26.5 1.5t-20 5q-1 1 -4 2t-5 2.5l-4 3t-1.5 4.5t2.5 7v2q-7 12 -7 17.5t4 19t5 18.5v6q2 1 6.5 4t7 4.5t4.5 5t2 7.5t15 12l30 18q19 9 29 37z" />
<glyph unicode="8" horiz-adv-x="800" d="M270 -106q-45 0 -63 2q-55 0 -84 36q-3 5 -15.5 18.5t-17.5 22.5q-16 38 -16 107q-5 66 14 149q2 9 23 62q8 23 32 69q50 90 72 121q53 74 217 260q2 1 5 5l3 4q9 10 9.5 15t-7.5 15q-41 55 -108 99q-55 36 -78 90q-14 31 -18 102q-9 58 24 109q4 6 18 30t20.5 34.5 t20 27t27.5 28.5q14 10 29 29l4 4q10 4 27 19t26 20l4 2q17 14 39.5 29t38.5 24t44 24t40 22q19 8 31 10t34.5 6t34.5 6h43q17 0 23 2q30 3 57 -18q20 -20 41 -29q9 -5 17 -12.5t13 -13t13 -16.5t11 -15t8 -13.5t8 -13.5q18 -26 29 -76q18 -52 0 -135q-5 -32 -35 -111 q-7 -21 -27 -57q-15 -25 -59 -94q-12 -17 -37 -47t-31 -37q-2 -4 -8 -10q-20 -30 -20.5 -33.5t16.5 -28.5q8 -14 15.5 -30t15 -35.5t12.5 -30.5q7 -11 14 -33q3 -12 12 -40.5t13 -45.5q2 -14 2 -49q-5 -88 -8 -106q-1 -3 -6.5 -25t-10.5 -33q-10 -21 -28 -51 q-6 -15 -19.5 -41.5t-15.5 -30.5q-8 -13 -17 -16q-4 -1 -18 -20q-1 -2 -4.5 -7.5t-5.5 -8t-5.5 -6.5t-7 -6.5t-8.5 -4.5l-4 -4q-34 -38 -92 -86q-9 -9 -29 -25t-26 -22q-9 -4 -9 -9q-5 -16 -36 -26q-35 -9 -88 -31q-12 -5 -25 -8t-22.5 -4.5t-24 -3t-21.5 -2.5h-43zM559 596 q-4 -4 -16 -12q-104 -100 -152 -174q-5 -9 -24 -36t-27 -44q-32 -56 -41 -111q-3 -20 0 -27t20 -14q4 -2 12 -5t13.5 -6t9.5 -7q19 -16 47 -13q4 1 14.5 2.5t14.5 2.5q96 16 160 86q40 43 43 98q4 39 -17 119q-5 26 -26 86q-12 40 -31 55zM604 936q8 8 12 10q6 10 13.5 21 t17.5 24t15 21q71 109 83 223q4 43 -6 61q-7 17 -26 11q-90 -20 -156 -62q-7 -4 -15.5 -10.5t-18.5 -14.5l-15 -12q-61 -39 -74 -114q-3 -16 6 -25q24 -21 45 -39q30 -23 76 -59q13 -9 43 -35z" />
<glyph unicode="9" horiz-adv-x="813" d="M147 4q6 17 -8 23q-2 2 -4 8t-4 8q26 30 74 61q89 52 143 86q33 17 70 54q15 15 45.5 43.5t46.5 42.5q30 27 43 59q35 94 65 162l5 10q-3 3 -9 6q-44 9 -90 21q-22 6 -47 18q-9 3 -37 17q-63 22 -92 53q-3 3 -12.5 9.5t-11.5 10.5q-4 6 -18 19.5t-17 23.5q-9 24 -19 54 q-20 50 -26 77q-13 44 -15 62q-12 102 4 166q12 49 27 76q17 27 23 55q5 14 26 43q37 47 49 57q26 24 68 49q28 17 51 29q25 10 33 10q17 2 34.5 6.5t40.5 12t33 10.5q30 10 60 16q5 2 14 -2q6 -2 19 -9t22 -7q12 -2 33 -2h14q62 -12 84 -29q65 -50 109 -119q0 -5 6 -8 q8 -3 15 -17t12 -18q7 -10 4 -22q-3 -31 -10.5 -91t-10.5 -91q-1 -3 -2 -10t-2 -11q0 -1 -2 -4.5t-2 -5.5q-2 -39 -19 -114t-18 -83q-5 -19 -17.5 -56.5t-17.5 -57.5q-11 -32 -16 -56q-26 -81 -66 -147q-10 -14 -19.5 -29.5t-19.5 -35t-16 -29.5q-8 -12 -23.5 -35.5 t-23.5 -36.5q-38 -57 -76 -107q-14 -20 -57 -63q-6 -5 -24.5 -23t-28.5 -26q-106 -98 -164 -129q-27 -12 -51 -21q-32 -12 -48 -16h-22q-56 -6 -64 -4q-23 4 -28 14q0 3 -4.5 12.5t-3.5 16.5q1 2 -0.5 4t-3.5 5t-3 5zM539 872q53 0 90 23q27 17 121 88q45 38 49 107 q0 17 -4 49q-9 27 -15 37q-9 13 -49 53q-16 16 -43 6q-41 -13 -94 -59q-64 -54 -117 -154q-28 -51 -28 -90q0 -55 45 -55q40 -5 45 -5z" />
<glyph unicode=":" horiz-adv-x="329" d="M307 143q10 -17 -6 -53q-7 -7 -4 -16q2 -6 -4 -21q-4 -6 -8 -22q-12 -15 -19 -29q-3 -10 -8 -12h-16l-11 -10l-10 12l-31 -21q-9 6 -20 6h-10h-2q-10 7 -23 7q-8 0 -22 -7q-12 3 -21 3l-12 4q-4 4 -6 4q0 2 2 4l6 18l-21 -2h-4l-2 4q-19 9 -30 43q-1 1 -2.5 4t-2.5 4 q-6 15 0 35q5 36 43 80q16 20 33 33q12 7 47 20q12 6 15 7q8 4 20 4q13 0 19 -2q8 -2 28 -2h27h4q4 0 6 -2q9 -14 27 -17q4 0 5 -0.5t2 -4t1 -11.5q0 -21 8 -37q0 -2 -2 -4q1 -3 2 -9.5t2 -9.5zM121 510l-4 8q-6 12 0 35q9 40 43 80q28 28 33 31q22 13 47 22q8 4 14 6 q16 4 20 4q13 0 21 -2q12 -4 27 -4q5 0 13.5 1t12.5 1h4q4 0 6 -2q11 -16 27 -16q8 0 8 -17q0 -20 8 -36q0 -1 -1 -3.5t-1 -3.5q1 -2 2 -8.5t2 -9.5q9 -16 -6 -51q-6 -12 -4 -17q2 -7 -4 -20q-5 -9 -8 -23q-14 -17 -19 -30q-5 -10 -8 -13h-16l-8 -8l-13 12l-30 -20 q-9 6 -21 6q-6 0 -10 -2q0 2 -2 2q-9 6 -23 6q-10 0 -22 -6q-6 2 -19 2q-12 0 -14 4q-2 0 -6 4q2 2 2 4l6 17h-18h-4l-4 2q-22 13 -31 45z" />
<glyph unicode=";" horiz-adv-x="366" d="M301 94l6 -18q3 -7 -2 -15l-33 -53q-5 -9 -55 -92t-76 -127q-12 -19 -43 -53q-3 -3 -7 -8.5t-7 -8.5q-5 -6 -14.5 -17t-17.5 -20t-15 -16q-9 -9 -29 -24l-8 -4q0 2 -2 6l-6 6q0 4 -2 4l-6 12l-17 -8h-2q-3 0 -6 8q-1 2 -3 5t-3 5q-1 3 -3 7.5t-3 8t0 7.5q3 10 0 20 q0 15 2 21q6 50 41 88q4 8 6 10q1 2 3 5.5t3.5 5.5t3.5 4q36 36 86 122q3 5 6.5 11.5t8 13.5t6.5 10q21 36 57 92q6 8 25 27q4 4 8 6q27 3 53 19q3 -1 8 -3.5t8 -3.5q4 -2 7.5 -4.5t6 -7t4.5 -7.5t5 -9.5t4 -9.5v-7q2 -2 2 -8zM397 346v-4q-2 -3 -5 -8t-5 -8 q-3 -5 -12 -18.5l-14 -21t-11 -20t-10 -24.5q-3 0 -9.5 -1t-8.5 -1h-7q0 2 -4 2q-26 0 -43 -27h-4q-8 4 -16 4h-6q-7 7 -9 8q-13 10 -24 29q-29 48 16 98q29 29 47 45l9 7q3 -3 10 -3t22 5q2 0 4 2q4 1 12.5 2t12.5 2h2l8 -4q4 -2 10.5 -5.5t10.5 -5.5q14 -8 20 -32 q1 -3 2 -10t2 -11z" />
<glyph unicode="=" horiz-adv-x="1163" d="M1321 961q-6 -6 -28 -15.5t-31 -9.5h-11h-16q-44 0 -64 -29q-6 -2 -26 -2q-53 0 -76 2h-25q-10 1 -31 2t-30 2q-12 1 -33 4.5t-30 4.5q-32 4 -48 4q-4 1 -14.5 2t-15.5 2q-8 1 -24.5 2t-24.5 2h-2l-5 12h-2q0 15 -16 17q-3 0 -9 1t-9 1q-16 4 -27 4q-89 11 -223 14 q-144 0 -203 2q-17 0 -27 2q-4 2 -14 2q-2 2 -4 2q0 21 -12 33l18 4l-10 21q3 6 -8 12q-10 11 -10 17t10 16q2 2 12 22q16 3 22 12l37 -2h113q71 0 106 -2q179 0 269 -2q20 -1 58.5 -4t57.5 -4q28 -4 84 -8q19 -1 57.5 -2t57.5 -2q49 0 72 -2q5 0 16.5 -1t16.5 -1 q50 -8 90 -37q28 -22 22 -58q0 -8 -2 -10v-16q-2 -2 -4 -7t-4 -7zM967 696q-9 -9 -4 -20q2 -6 -15 -21q-4 -4 -20 -4q-3 -1 -9.5 -2t-9.5 -2h-12h-16l-54 -2l25 -24q-34 -6 -64 -29l-2 -2q-6 2 -18 2q-17 0 -23 2h-6l-24 6q-34 6 -142 6h-32q-23 0 -72 -1t-72 -1 q-33 -2 -98 -2q-29 0 -43 2q-10 16 -29 19q-6 2 -16 2h-2q-6 0 -19 10q-5 5 -14 8q-1 1 -3 4t-3 4t-2 3t-2 3q0 29 -12 43l2 7q0 6 2 8q9 18 2 30q0 1 4 5q1 0 3 1t3 1q21 14 25 22q6 0 12 6q2 1 5 3t5 3q25 15 31 29q33 4 96 4h51q17 0 53 1t54 1q86 4 125 4q120 5 225 -8 h4q54 -9 92 -53l4 -2q0 -4 9 -8q7 -7 10 -23q5 -16 -4 -35z" />
<glyph unicode="?" horiz-adv-x="665" d="M371 23q7 -5 -6 -29v-2q-7 -13 -11 -23l-37 -41q-2 0 -6 1t-6 1q-18 0 -41 -14l-4 -2q-12 -8 -16 -12h-2q-12 0 -29 -17q-17 -6 -31 -16q-9 -6 -12 -12q-2 -2 -4 -2q-1 0 -2 -1t-2 -1q-1 1 -3 2l-4 2t-5 2q-17 8 -25 10q-10 2 -16 20q-5 5 -3 7v4v18q0 3 3 6q0 2 1 8 t1 11.5t-2 9.5q-1 2 0.5 7.5t1.5 6.5q4 8 4 13l2 2q10 14 24 22q44 38 54 53q4 2 10 2q23 3 51 13q16 4 29 4t41 -4q2 -2 10 -2q2 -1 6.5 -2t5.5 -2t6.5 -11t7.5 -16q0 -11 9 -16zM870 1174q-1 -8 -4 -24t-4 -24q-5 -27 -28 -59q-23 -26 -43 -59q-3 -4 -9.5 -13.5 t-9.5 -13.5q-2 -4 -8 -10l-19 -19q-26 -30 -49 -45q-10 -4 -22 -16q-8 -4 -12 -8q-2 -1 -13 -8t-18 -11l-6 -4l-2 -2q-7 0 -11 -4q-13 -6 -49 -29q-1 0 -32 -18.5t-48 -26.5q-6 -4 -41 -24q-6 -3 -17 -9.5t-17 -9.5q-63 -37 -60 -94q0 -10 2 -30.5t2 -30.5q4 -20 4 -35v-31 v-4q-4 -53 6 -78q0 -14 -2 -18q-12 -18 -12 -39q0 -11 -4 -27l-8 4l-12 -20v-4q-2 -2 -5.5 -6.5t-5.5 -6.5v-8q-2 4 -6 8l-8 25l-23 -23q-9 -7 -20 -36v-2l-31 -13l-47 27l-6 -19q-13 25 -20 68q-1 8 -2.5 25t-2.5 26q-6 36 -6 39q-10 45 -10 80q-5 42 2 107q10 59 53 110 q8 8 9 10q9 9 12 15q6 6 26 22l7 6h2q1 1 4.5 4t5.5 5q37 33 119 67q4 2 14 6t14 6q95 47 181 101q35 20 88 69l6 7q42 36 33 81q-6 35 -23 70q-28 54 -98 72l10 22q-37 15 -76 15q-21 0 -31 -2l-14 -2l-6 -19v-2q-2 2 -8 2q-20 0 -70 -10q-4 -1 -11 -2t-11 -2h-7 q-2 2 -12 2t-18 -4l-6 18q14 19 14 33q0 1 -1 4.5t-1 5.5q6 10 6 27v4q8 9 14 39q-3 3 0 6q2 1 6.5 3t6.5 3q5 2 24 10t29 11q46 16 70 18q25 4 67 8l14 2h7h16q16 -4 27 -4q11 -4 45 -8q27 -2 61 -16q3 -1 19 -9q37 -13 69 -57l8 -6q26 -35 31 -49q1 -3 3 -9.5t3 -9.5 q1 -5 8 -24.5t9 -30.5q2 -6 2 -18l-4 2z" />
<glyph unicode="@" horiz-adv-x="1753" d="M664 1339q148 97 280 136q60 15 146 30q8 1 23.5 4t23.5 4q41 9 129 -8q20 -5 73 -14q12 -3 47 -8q9 -2 29 -6.5t29 -6.5q13 -2 36.5 -7t35.5 -7q8 0 10 -2q2 0 14 -4q2 0 7 -1t7 -1q27 -9 64 -6h4q41 -18 94 -53q46 -36 96 -121q24 -40 56 -127l8 -21q12 -38 18 -78 q3 -59 0 -118q0 -59 -6 -86q-29 -131 -57 -199q-14 -33 -33 -64q-3 -7 -10 -20t-10 -20l-9 -9q0 -3 -6 -6q-13 -12 -14 -20q-11 -25 -37 -54q-29 -29 -33 -36q-1 0 -2 -1t-2 -1q-1 -1 -5 -3.5t-5 -3.5l-2 -2q-1 -1 -6 -4.5t-9 -7.5t-6 -8q-4 -7 -10.5 -14.5t-11 -11 t-15.5 -12.5t-14 -11q-17 -8 -35 -23q-7 -7 -18 -10l-18 -12q-20 -16 -62 -23q-16 -4 -20 -4q-3 -1 -9.5 -2t-9.5 -2q-20 0 -39 -8q-44 -15 -90 -4q-21 5 -28 8q-52 19 -117 57l-15 8q-11 8 -20 19q-10 10 -16 14q0 4 -4 4q-17 17 -27 19q-12 3 -23 -4l-20 -5q-31 0 -57 -20 q-38 -30 -97 -41q-16 -2 -43 -10q-25 -8 -35 -10q-12 -2 -40 -2l-7 2h-18q-30 4 -45 0q-21 0 -33 2q-27 9 -37 14q-29 16 -53 37q-2 2 -6.5 10t-7.5 12q0 1 -2 7t-4 8q-3 2 -3 4q-6 18 -18 22q-3 1 -8 17l2 4q-6 40 6 78q25 78 68 147q54 78 98 115q127 104 252 121 q70 11 160 14l32 2q13 0 21 -2q17 -3 51 -29q4 0 8 -4l6 -6q17 -17 7 -37q-6 -6 -7 -8q-5 -11 -10 -37q-4 -18 -8 -22q-4 -8 -6.5 -17.5t-3 -16t-1.5 -17.5t-1 -15q3 -6 0 -12q0 -62 26 -142q23 -77 109 -122q6 -3 31 -13q69 -16 147 31q85 53 143 127q33 52 45 84 q30 89 33 158q0 6 1 14t2.5 18t2.5 15v4q13 80 -26 198l-4 11q-4 13 -41 84l-4 4q-34 64 -119 94l-21 8q-80 32 -106 39q-6 0 -8 2q-32 8 -105 12q-20 2 -53 -2h-37h-22q-62 0 -80 -4q-32 -4 -43 -4q-6 -1 -19.5 -3t-19.5 -3q-51 -7 -117 -41q-2 -1 -17.5 -8t-23.5 -12 q-49 -20 -86 -45q-59 -35 -113 -80q-73 -58 -125 -152q-10 -20 -55 -92q-19 -33 -26 -43q0 -2 -7 -12q-9 -26 -22 -56q-40 -107 -45 -137q-20 -123 -25 -164q-9 -124 -8 -161q6 -150 90 -269q2 -3 68 -92l16 -24l-22 -13l26 -22q-5 -17 4 -35l-12 -8l-18 4l-13 -13 q-5 -7 -8 -4q-8 0 -12 4q-20 10 -23 11q-3 0 -9 1t-9 1h-51q-7 3 -19.5 10t-19.5 10l-70 27l12 -25q-4 3 -8.5 7.5t-9 7.5t-8.5 6q0 8 -2.5 16.5t-4.5 12.5t-7.5 13.5t-6.5 10.5q-5 5 -10 21l-4 8l-12 4h-9h-2l-18 2q-16 24 -23 55q-1 8 -12 41q-4 8 -4 12q-14 28 -16 33 q-1 3 -4.5 8t-4.5 6q-4 8 -4 13q-27 115 -8 248q0 3 6 57q4 26 11.5 80.5t11.5 81.5q2 11 9 32.5t9 30.5q1 1 6 23q7 20 16 42t16.5 37.5t21 41t19.5 37t23 40.5t21 37l2 4q76 128 178 242q94 105 220 186zM930 473q55 31 55 88q0 23 4 31q26 70 21 141l-2 19h-19 q-85 0 -158 -37q-48 -22 -79 -70q-1 -3 -5 -10t-6 -10q-13 -26 -20 -33q-31 -40 -31 -74q0 -82 62 -100q24 -3 49 0q41 5 84 31q7 5 19.5 11.5t15.5 8.5zM1051 1370l-33 -10l14 -29q0 -10 15 -16h2q9 -1 24 6l27 12l-10 23q0 13 -13 18h-2h-2q-11 3 -20 -2z" />
<glyph unicode="A" horiz-adv-x="948" d="M20 35q5 8 5 31q0 12 -2 18q0 17 10 25q-3 17 2 49q4 26 8 37q12 59 12 61q2 16 12.5 45.5t12.5 34.5q2 2 2 6q6 22 23.5 63.5t21.5 53.5q18 51 70 174q35 87 84 203q7 18 20.5 53t20.5 53q5 14 15 39t15 39q3 7 37.5 79t50.5 111q4 9 13.5 29t13.5 29q3 10 9 30.5 t9 30.5q15 12 19 31q2 8 10 24q0 1 4 5q15 24 33 51q34 17 41 20q1 4 4 15t4 18q4 1 13 2t12 2l8 -4t9 -5t7 -5t5.5 -6.5t2.5 -8.5q26 -9 39 -34q2 -4 9.5 -12.5t9.5 -12.5t6 -12.5t6 -12.5q1 -1 2 -3t2 -3q6 -13 18.5 -37t18.5 -36q26 -72 35 -103q15 -40 24 -84 q1 -10 7.5 -37t7.5 -43q0 -10 3.5 -28.5t4.5 -22.5q2 -13 7 -37.5t7 -36.5q2 -10 5 -30.5t5 -30.5q9 -54 13 -68q0 -12 2 -16q6 -12 6 -23q0 -18 2 -28q18 -122 23 -199q1 -20 4 -61t4 -62v-106q0 -15 1 -42.5t1 -41.5v-29q0 -5 -1 -15t-1 -18.5t2 -15.5q0 -23 -15 -66 q-1 -2 -6 -16h-6q-2 -4 -8 -10q-27 -13 -29 -15q-51 15 -71 31q-8 -4 -15 -4q-2 3 -5 9.5t-5 9.5q-4 7 -4 34q0 64 -4 82q0 4 1 12.5t1 12.5q0 86 -2 129q0 14 1 41t1 41q0 12 -1 25.5t-2.5 29.5t-2.5 25q-1 16 -3 46.5t-3 45.5q-6 19 -9 47q-17 3 -34 -2q-4 -1 -31 -17 q-1 -1 -4 -10q-9 0 -25 -4h-4v2q-28 -4 -43 -4q-46 -3 -94 0q-17 0 -33 -8q-57 -20 -69 -23q-1 -1 -7.5 -3t-7.5 -3q-10 -8 -10 -22q-7 -22 -25 -66t-24 -67q-8 -33 -29.5 -97.5t-28.5 -91.5q-16 -86 -16 -115q-2 -15 -22 -43q-3 -1 -8.5 -3t-8.5 -3q-1 -4 -4 -8.5t-4 -5.5 q-4 0 0 -1t0 -1q-18 9 -21 12q-14 -23 -16 -26q-6 -4 -17.5 -12.5t-17.5 -12.5q-20 -10 -33 -10h-16v2v-2q-8 5 -27 20h-14q-15 9 -29 23zM721 774q-1 2 -1 6t-1 6q-2 15 -7 43.5t-7 42.5q-1 4 -10.5 45.5t-14.5 63.5q0 2 -12 70q-1 6 -3 17t-3 17q-19 74 -25 91 q-2 3 -4.5 7.5t-5 7.5t-6.5 5q-2 -5 -9 -16q-4 -10 -11 -31t-11 -31q-11 -24 -30.5 -72.5t-22.5 -54.5q-2 -5 -12 -26t-15 -33q-5 -11 -15.5 -37.5t-17.5 -40.5q-14 -32 -37 -94q-1 -2 -1 -6t-1 -6h11q10 1 30.5 4t30.5 4q15 3 57 8q37 4 115 4q25 0 39 6zM213 63v3h-6v-3h6 zM664 627v-4q1 0 2 1t2 1v2h-4z" />
<glyph unicode="B" horiz-adv-x="974" d="M868 836q3 -2 31 -23q5 -4 17 -13t18.5 -14t16 -14t16.5 -18q51 -66 69 -127q11 -50 11 -82q0 -7 -4 -22t-5 -19q-8 -34 -16 -49l-10 -15q-2 -7 -6 -17t-5 -15q-6 -28 -30 -56q-20 -25 -35 -37q-5 -5 -15.5 -15t-15.5 -15q-54 -58 -110 -82q-32 -14 -60 -31 q-17 -13 -71 -35q-37 -16 -70 -24q-86 -25 -148 -27q-42 -3 -69 2q-17 4 -36 5t-42 0.5t-35 0.5q-13 1 -34.5 4t-34.5 4q-10 1 -29.5 2t-28.5 2q-2 0 -12 5q-26 -13 -31 -15q-3 2 -9 7.5t-9 7.5q-16 13 -19 30v6q-10 17 4 58q5 16 21.5 48.5t21.5 49.5q7 17 7 25 q13 65 28 106q28 79 43 156q2 20 6 43t10 50.5t9 41.5q1 12 2 35t2 35q4 64 8 102q2 29 10 102q2 8 7.5 30.5t7.5 35.5q0 2 1 6t1 6q0 54 14 129q1 5 1 16.5t1 16.5q1 1 1.5 4.5t2 6t4.5 3.5q10 14 13 27q3 9 12 18q3 2 19.5 12.5t25.5 14.5q65 29 127 43q93 22 151 29 q141 13 244 -13q50 -11 80 -20q9 -3 26.5 -8t25 -8t20 -8.5t22 -13.5t19.5 -19q37 -37 47 -72q11 -59 -8 -105q-4 -9 -16 -55t-25 -65q-5 -9 -16.5 -25.5t-14.5 -21.5q-4 -7 -11 -15t-11.5 -12t-15.5 -14t-13 -11q-13 -12 -39.5 -32t-32.5 -25q-25 -15 -31 -18zM291 244 q9 0 25 -2t29.5 -2t25.5 4q11 3 38.5 9.5t36.5 8.5q8 2 53.5 9t67.5 18q29 14 162 82q48 22 80 59q16 19 21.5 38t3 30.5t0.5 25.5q0 3 -5 13q-40 75 -65 131q-8 14 -41 24q-10 5 -32 6t-29 2q-33 2 -101 2q-30 0 -72 -10q-8 -2 -12 -6q-4 -1 -8 -2.5t-6.5 -2.5t-5.5 -3 l-25 -10q-11 -2 -19 -5.5t-21 -10t-27 -11.5q-3 -2 -19 -12t-22 -13q0 -10 -3 -31.5t-4 -27.5q-3 -25 -10 -59l-12 -60q-4 -26 -2 -39q0 -3 -1 -9.5t-1 -8.5q-2 -14 -1.5 -35t-0.5 -33q-2 -12 -2 -37q2 1 2 -6q1 -10 2 -10q-1 -7 0 -8.5t0 -7.5zM360 852h54q55 8 78 10 q54 6 106 21q121 35 201 84q53 32 84 71q52 63 73 107q16 34 -18 55q-3 1 -7 4t-5 4q-61 21 -68 23q-88 24 -190 18q-74 -3 -150 -18q-18 -2 -88 -17q-18 -4 -22.5 -8t-10.5 -22v-8q-2 -8 -16 -37t-14 -45q1 -16 2 -50t2 -51q-4 -93 -11 -129v-12z" />
<glyph unicode="C" horiz-adv-x="907" d="M807 303q-1 -1 -9 -5.5t-10 -6.5t-2 -4q30 9 57 3t38 -34l-21 -14q0 -18 17 -39q-2 -3 -6.5 -8.5t-6.5 -8.5t-4 -8.5t0 -9.5q3 -6 -12 -16q-6 -4 -24 -15t-25 -18q-4 -5 -8.5 -9t-10 -7.5t-8.5 -5.5t-10 -4.5t-9 -3.5t-10.5 -4t-9.5 -3q-1 -1 -3 -2t-3 -2 q-52 -33 -139 -29q-143 6 -226 92q-77 81 -116 162q-2 4 -6.5 12.5t-6.5 12.5q-15 20 -32 80q-38 126 -41 143q-17 78 -4 174q11 76 57 156q83 136 143 204q49 52 107 101q41 39 106 86q44 29 107 63q50 24 102 45q1 0 23 6q41 12 188 35q53 9 96 -2q46 -14 54 -53 q0 -1 1 -4t1 -4q10 -25 1 -49t-32 -56q-30 -34 -70 -34q-34 -3 -63 0q-7 0 -57 -11q-13 -4 -40.5 -12t-41.5 -12q-157 -48 -275 -160q-113 -106 -174 -229q-47 -90 -47 -191q2 -62 39 -141q20 -56 65 -101q34 -34 103 -45q59 -9 127 7q19 4 51.5 10t40.5 8q13 2 23 -6 t10 -21z" />
<glyph unicode="D" horiz-adv-x="874" d="M66 98q1 -1 2.5 -1.5t4.5 -1t5 -1.5q3 18 0 35q-16 0 -12 25q1 4 4.5 42.5t7.5 59.5q2 8 5 24.5t5 24.5q3 14 8.5 39.5t9.5 47t7 40.5q19 112 30 217q11 84 27 135q13 49 30.5 140t28.5 133q5 26 17.5 74.5t17.5 70.5q15 73 33 117q2 4 7 17t8 19t8 17t11 19t13 16 q8 8 14 12q3 3 12.5 9t12.5 8q7 0 27 4v8q10 7 20 10q18 8 49 0q5 -1 15.5 -3t15.5 -3q25 -5 31 -8q91 -34 141 -82q5 -5 26 -22t31 -27q9 -8 54 -58q7 -6 20.5 -19t20.5 -19q39 -34 57 -66q39 -56 41 -59q3 -5 7 -17.5t7 -17.5q17 -64 17 -66q2 -5 4 -16.5t4 -16.5 q17 -110 14 -202q-3 -68 -27 -135q-10 -35 -28 -64q-8 -16 -26.5 -46t-26.5 -46q-8 -13 -25 -40t-25 -40q-5 -10 -8 -12q-9 -15 -49 -66q-4 -8 -8 -10q-21 -21 -33 -29q-50 -35 -74 -49q-12 -7 -42.5 -26.5t-47.5 -28.5q-57 -33 -94 -51l-39 -13q-52 -13 -63 -18 q-19 -7 -33 -19q-19 -16 -80 -38q-39 -15 -45 -19q-22 -13 -37 -6q-6 1 -12.5 -0.5t-10 -3t-11 -6.5t-9.5 -6q-2 0 -4 -2q-38 9 -57 34q-1 1 -1.5 2.5l-1 3t-1.5 3.5q-5 29 -5 67q0 4 5 6zM506 1292q-3 -15 -6 -24q-1 -3 -2 -11t-2 -12q-3 -10 -10 -32.5t-11.5 -39.5 t-7.5 -34q-1 -4 -3 -13.5t-3 -13.5q-11 -42 -27 -92q-3 -14 -7 -29.5t-9 -33.5t-8 -29t-15.5 -54t-17.5 -67q-13 -57 -27 -131q-4 -16 -10 -48.5t-10 -49.5q-12 -64 -27 -129q-2 -11 -8 -35t-8 -35q-15 -65 -29 -156v-14q10 0 14 2q25 4 74.5 13.5t73.5 13.5q100 18 184 90 q19 15 52 46t44 40q2 2 6.5 7t6.5 7q10 15 36.5 57t41.5 64q22 38 38 80q19 58 21 90q7 100 -8 166q-18 90 -47 137q-40 62 -66 84q-34 30 -49 41q-53 39 -82 76q-18 25 -63 53q-3 3 -14.5 8.5t-14.5 7.5z" />
<glyph unicode="E" horiz-adv-x="729" d="M287 981l12 -4q0 2 2 7t2 7q5 21 15.5 63t15.5 64q9 40 26.5 113t24.5 106q11 33 -8 49q-4 4 -4 17q6 4 16 14q-5 5 -16.5 11t-19 13t-11.5 17l6 12l-18 9q-1 -3 -1 -8t-1 -7q-6 -3 -11 -1.5t-4 7.5q0 6 13 15q4 4 10 4q11 -2 21 1.5t22.5 12t17.5 10.5q5 5 17 9 q7 0 22 1t21 1q32 5 55 20q-6 3 -13.5 3t-15.5 -1.5t-12 -1.5q-8 1 -23 -0.5t-20 -1.5q-25 -4 -41 2q3 1 21 10q-3 3 -7 11q15 3 60 8q7 1 64.5 10.5t86.5 13.5q76 12 154 15q39 4 117 8q5 0 13 -1t13 -1q13 2 33 -14q2 -2 8 -7t8 -8t4 -9t1 -13q4 -2 6 -4q11 -7 22 -11 q-1 -13 -2 -35t-2 -34q-8 -5 -12 -20t-6 -19q-20 -5 -43 -31q-11 -13 -29 -16q-35 -3 -162 -17q-13 -1 -41 -4t-41 -4q-38 -3 -65 -6q-14 -4 -29 -6q-3 -12 -10 -36.5t-10 -37.5q-38 -178 -47 -223q-3 -9 -3 -21h41q27 -1 82 -2t82 -2q5 0 17 -4q4 -3 9.5 -5.5t12 -5.5 t10.5 -5q-1 0 -6 -3.5t-8 -4.5q8 -23 27 -25q16 0 39 -14q12 -7 13 -12.5t-7 -20.5q20 -20 0 -45q-17 -25 -29 -35q-4 -4 -9 -6t-12 -3.5t-10 -2.5q0 -13 -8 -21q-2 -4 -18 -4q-31 -2 -94 -2q-43 0 -66 2l-45 3l-45 3q-18 1 -26 -6t-13 -26q-19 -132 -25 -164 q-30 -133 -36 -158q-15 -61 -27 -123q0 -1 -1 -4.5t-1 -5.5q-3 -14 0 -17.5t16 -3.5q18 1 51.5 4.5t51.5 4.5h129q8 0 25.5 1t25.5 1q19 0 39 -4q2 -1 3.5 -4.5t3.5 -8.5t3 -8q2 0 18 -4q-7 -12 -14 -29q17 0 17 -12q2 -2 9 -5t9 -5q-1 -3 0.5 -8t0.5 -10.5t-7 -10.5l16 -8 q0 -1 -7 -16.5t-14 -21.5t-20 -9q2 -15 -22 -35q-29 -25 -47 -31q-14 -7 -23 -10q-88 0 -131 -2q-19 -1 -51.5 -3.5t-40.5 -2.5q-16 -2 -47 -2q-38 0 -56 -2q-22 -2 -47 12q-41 27 -61 84q-25 66 -6 145q4 20 59 273q0 2 1 6t1 6q3 23 8 49t12.5 58t10.5 49q7 30 20 88 t15 67q6 34 8 39q0 5 -4 15t-4 12zM467 1565l-2 -4q13 -3 24 8q-4 -1 -11.5 -2t-10.5 -2z" />
<glyph unicode="F" horiz-adv-x="907" d="M51 -57q-5 4 -13 10.5t-13 11t-9 8.5q-8 14 -9.5 30.5t0 26.5t7.5 31q15 49 27 99q47 165 53 188q5 22 16.5 64t19 75.5t11.5 63.5q4 31 39 172q7 33 22.5 99.5t22.5 99.5q19 70 23 108q2 8 3 17.5t1.5 20.5t1.5 17t3.5 17.5t4.5 20.5t4 16q5 28 12.5 79.5t10.5 69.5 q1 6 6.5 24.5t7.5 28.5v13q-6 26 25 53l12 6q5 4 22 21q20 3 64 12q0 2 -2 2q30 0 93 -1t93 -1q134 -4 232 14q25 3 71.5 10.5t67.5 10.5q14 2 45 2q6 -3 24.5 -9.5t26.5 -11.5q13 -4 27 -18q4 -3 10 -11.5t10 -11.5q0 -3 -1 -12t-1 -16q9 -9 15 -13q0 -2 -2 -2 q11 -37 14 -45q-8 -7 -37 -26q1 -3 2 -10t2 -11q-4 -3 -11 -9t-11 -9q-1 0 -23 -7.5t-33 -7.5q-6 0 -19.5 -1t-19.5 -1h-43q-20 -3 -43.5 -6t-52.5 -6.5t-45 -5.5q-17 -1 -49.5 -3t-48.5 -3q-22 -1 -68.5 -4t-68.5 -4q-12 -2 -39 -2q0 -15 2 -19h-2q-2 -8 -9.5 -30t-9.5 -35 q-6 -33 -20 -95t-19 -88q-1 -4 -1 -11t-1 -11q11 -4 33 -8q52 -3 107 6q9 2 57 2q2 0 5 -2t5 -2q26 -11 39 -13q1 -1 14.5 -9.5t14.5 -18.5q30 -3 43 -29q0 -2 -2 -6t-2 -6t2 -7.5t2 -7.5q-2 -5 -11 -32q-4 -2 -49 -27q15 -15 0 -35q-20 -4 -30 -4q-96 -4 -144 0 q-23 1 -123 10q-1 -4 -4 -11t-4 -11q-6 -12 -6 -27q-3 -38 -35 -155q-15 -45 -32 -127.5t-27 -116.5q-15 -58 -39 -137q-2 -6 -14.5 -39t-18.5 -54q-15 -15 -43 -51q-3 -3 -11.5 -18.5t-17.5 -22.5h-43q-1 -1 -20.5 -16.5t-34.5 -15.5q-13 13 -41 6z" />
<glyph unicode="G" horiz-adv-x="1013" d="M999 324q1 -4 -1 -9t-6 -10.5t-5 -7.5q-5 -19 -22 -39q0 -1 -1.5 -2l-3 -2t-2.5 -2q-2 -2 -5 -6t-5 -6v-2q-9 -2 -12.5 -16t-7.5 -17q-6 -6 -8 -10v14q-7 -3 -8 -12.5t-3 -12.5q-19 -3 -24 -22q-1 -3 -7 -9l-8 -8q-5 -5 -16.5 -14.5t-15.5 -13.5l-4 -2q-10 -3 -32.5 -17 t-35.5 -16q-6 -1 -15.5 -7t-13.5 -7q-5 -2 -16 -7t-16 -6q-57 -14 -121 -14q-68 4 -99 14q-30 13 -94 29q-23 6 -74 39q-3 3 -11.5 7t-12.5 7q-2 1 -6.5 3.5t-7 4.5t-3.5 5q-54 46 -71 69q-7 8 -13 18t-13.5 26t-10.5 22q-41 90 -47 194q-3 97 26 209q19 81 60 182 q1 4 10 17l4 8q6 15 17.5 43.5t17.5 42.5q0 1 2 6.5t4 7.5q8 23 19 41q3 -2 5.5 -5.5t4.5 -4.5l2 2q30 43 43 68q5 8 13 22t11 19q8 13 14.5 27.5t14 33.5t12.5 29q0 6 2 8q-6 19 15 45q42 59 110 98q56 31 74 37q36 10 84 10q23 0 68.5 1t66.5 1q17 0 49 -4q3 0 15 -6 q35 -19 53 -33q46 -41 55 -51q66 -84 86 -157q10 -35 17 -80q5 -14 10 -52q4 -29 -12 -43q-1 -1 -1.5 -5.5t-2.5 -6.5q-24 -4 -46 -4l-6 -6q-3 6 -12 18q0 -14 -2 -18q-18 0 -37 25q-3 -6 -6 -15q-2 4 -6.5 24.5t-13.5 26.5q-1 -4 -11 -24h-2q-2 6 -5 19.5t-5 19.5 q-10 60 -35 106q-32 59 -72 78q-57 32 -118 4q-6 -3 -18.5 -11t-18.5 -11q-22 -13 -53 -62q-1 1 -3.5 5t-3.5 7q-7 -11 -24 -34.5t-25 -36.5q-40 -61 -90 -166q-42 -95 -80 -199q-26 -69 -35 -110q-40 -152 -10 -256q20 -77 72 -107q28 -18 80 -41q58 -19 114 6q10 5 87 47 q11 11 12 13q66 63 108 137q8 12 7 18t-13 7q-32 4 -47 4q-43 2 -106 24q-4 1 -10.5 4t-8.5 4q-22 3 -22 25q0 3 -3 13.5t-1 17.5q-1 2 -5.5 6t-5.5 6q0 1 3.5 6t4.5 8q-3 2 -11.5 2t-13 4t-3.5 15q8 -2 28 -6q4 3 11.5 9t11.5 9q-13 10 -17.5 11t-13.5 -7q1 2 11 27 q34 4 51 8q2 0 22 10q10 3 17 10q33 10 69 25q11 4 29 18q2 1 6 4.5t6 4.5q46 21 94 30h15q6 -8 33 -8q1 -1 7 -4.5t11 -5.5q-1 -1 -2 -3l-2 -4t-2 -5q26 4 35 8q2 -2 4 -6.5t4 -7.5q24 3 18 -25q13 0 18.5 -5t4.5 -16q6 -6 10 -8q14 -5 14 -22q-1 -5 -2 -15t-2 -16 q3 1 8.5 2t8.5 2l2 -4q-2 -7 -4 -21.5t-4 -21.5q-3 -20 -9 -37q-7 -31 -22 -51q-18 -18 -15 -39q4 -22 -14 -33q-4 -2 -6.5 -6.5t-5 -11t-4.5 -10.5l2 -2q8 12 12 20q0 -36 -29 -61q12 18 11 26q-15 -10 -11 -26zM571 1384q14 -6 19 11q-10 -5 -19 -11z" />
<glyph unicode="H" horiz-adv-x="813" d="M920 1503q8 -4 24 -8q9 -6 21 6l10 15q0 -8 4.5 -12.5t13 -8.5t11.5 -6q-6 -24 10 -43q10 -20 4 -43q-3 -20 -23 -123q-1 -4 1.5 -13t2.5 -12q0 -22 -2 -34q0 -34 -4 -50q0 -3 -18 -100q-2 -10 -12 -47t-13 -57q-8 -39 -20 -113q-1 -12 -2 -35t-2 -35q-2 -26 -15 -100 q0 -5 -12 -47q-2 -4 -6 -8q-15 -13 -19 -35q-16 -74 -22 -111q-14 -62 -16 -77q-7 -28 -17 -48q-7 -13 -11 -27t-7 -34t-4 -27q-9 -58 -15 -110q-3 -23 -5 -47.5t-4 -54t-3 -46.5q-4 -42 -10 -61q-3 -23 -19 -39q-6 -11 -20 -14q-5 0 -14 -9q-8 -4 -11 -10q-4 1 -13.5 4 t-16.5 4q-8 -8 -9 -10q-2 -2 -6 -2q-10 3 -10 16q0 10 -8 13q-10 2 -10 20q0 15 -2 17q-7 18 -3 51v71q3 40 3 82v33q5 93 8 113q2 18 2 55q9 87 16 113q2 7 4 22.5t4 22.5q0 8 -2.5 10t-9.5 2q-79 -4 -108 -6q-12 -4 -23 -4h-18q-1 0 -3.5 1t-3.5 1q-11 -4 -22 -4t-22.5 2 t-18.5 2q-12 0 -33 1t-33 1q-4 0 -8 -2q0 -3 -2.5 -10.5l-3.5 -10.5q-2 -14 -6 -40l-6 -39q-2 -15 -7 -30.5t-14 -38t-12 -30.5q-18 -42 -20 -57q-1 -3 -11 -29q-8 -24 -41 -106q-4 -10 -16 -30.5t-16 -33.5q0 -2 -1.5 -3.5t-4 -2.5t-3.5 -2q-20 -17 -28 -35q-2 -5 -13 -16 q-4 6 -12 14h-2q-6 -12 -19.5 -8.5t-17.5 0.5q-12 29 -22 37q-4 8 -4 24q0 56 16 125v45q0 39 6 52q2 4 6 16q0 19 4 29q3 10 9.5 30.5t9.5 30.5q5 21 16.5 63t16.5 62q2 10 5 29.5t5 29.5q1 13 6 38t6 32q3 18 10.5 55t10.5 56q17 127 26 184q2 23 10 63q2 8 6.5 28.5 t8.5 31.5q7 41 14 72q2 13 4 38t4 37q5 37 15 90q4 31 16 93q4 44 12 63q5 15 9 23t12.5 18t21.5 16q5 3 10 8t10.5 13t8.5 12q7 7 10 8q-3 -24 6 -36q0 -4 11 -9q1 2 4 6.5t4 6.5q4 4 6 8v-25q0 -2 2 -2q9 2 15.5 -1.5t9 -6.5t6.5 -12q15 -21 24 -45q10 -38 -4 -72 q-12 -28 -20 -80q-14 -104 -27 -217q-4 -29 -4 -88q-5 -74 -29 -170q-4 -16 -10 -48t-10 -48q0 -13 2 -16.5t12 -4.5q86 -14 156 -6q10 0 10 4q2 10 21 10q7 1 27.5 3.5t31.5 3.5q2 1 6 2t6 2q3 0 10 2t9 2q23 0 28 24q3 12 29 115q2 7 16.5 58.5t20.5 78.5l2 4 q15 45 37 160q5 21 9 45t8 53t7 45q16 72 31 115q16 39 53 76q1 2 5 6.5t6 7.5zM631 -78h4q0 6 -2 10l-2 -2v-8z" />
<glyph unicode="I" horiz-adv-x="311" d="M260 109q-3 1 -8 3t-8 3q0 -7 -6 -13q-12 -6 -17 -6q-6 4 -17.5 4t-15.5 2q-1 3 -10 14t-8 21l-4 4q-6 2 -10 4.5t-7 6.5t-4.5 7t-2.5 9.5t-1.5 9.5t-1 10.5t-0.5 10.5v141q4 118 13 166q8 37 21 105.5t15 80.5q17 73 27 103q1 7 8.5 22t9.5 23q1 5 16 54.5t21 76.5 q7 28 29 43q3 -6 6 -15q12 16 23 39h4q-3 -11 6 -23t10 -18q4 7 11 18t8 13q9 -29 10 -31q4 3 6 7t3 9.5t1 6.5q7 -11 10 -19q3 -13 19 -16q5 -2 8 -12q11 -25 18 -60q3 -18 -4 -39q-5 -23 -7 -64.5t-3 -51.5q-1 -14 -4 -29t-7.5 -33.5t-6.5 -29.5q-11 -38 -13 -43 q-25 -76 -41 -168q-9 -41 -26 -136q-1 -6 -1 -17t-1 -17q-10 -44 -15 -72q-2 -9 -6 -26.5t-6 -26.5q1 -2 -0.5 -7.5t-1.5 -7.5q-29 -3 -39 -36zM342 1409q8 6 18 8h9v-4q8 2 21 3t23 4t19 10q6 -3 10 -7q0 -5 1.5 -9t5.5 -6.5t6 -3.5t8.5 -3t7.5 -2q11 -5 14 -15 q5 -12 14 -31t11 -24q1 -2 2 -7t2 -7q3 -7 0 -17q1 -2 1 -6t1 -6q0 -2 -4 -6q6 -8 2.5 -30.5t-0.5 -30.5q3 -12 -8 -23q-6 -3 -6 -8q0 -11 -11 -29t-12 -22q-3 -5 -14 -13l-5 5t-9 6q-5 -8 -19 -27q-23 -8 -37 4q-51 27 -80 68q-4 6 -16.5 25t-20.5 28q-4 6 -5 13t0 19t1 15 q1 6 4 16t3 11q6 41 38 73q1 2 3.5 3.5t7 4t6.5 3.5q8 3 8.5 5t-0.5 13z" />
<glyph unicode="J" horiz-adv-x="790" d="M197 705q6 -3 10 -3q14 12 41 31q3 -4 6.5 -6.5t9.5 -4t10 -2t12.5 -1t12.5 -0.5q6 -8 25 -27q-1 0 -2.5 -1t-2.5 -1q2 -7 10 -26.5t11 -30.5v-27q-1 -7 -3 -21.5t-3 -21.5q-8 -46 -8 -63q0 -1 -11 -45q-24 -110 -16 -162q8 -59 13 -59q1 0 4 3q6 9 12 3q3 1 9.5 2t8.5 2 q17 9 71 22t77 35q5 5 20.5 19t22.5 22q4 3 5.5 9t4.5 9q35 50 51 95l4 4q8 10 14 29t11 47t6 30q23 61 35 127q6 19 16 90q3 25 8 73t8 73q5 63 5 73q8 122 10 193q1 19 5 56t5 55q7 84 -12 122q5 30 6 37q30 12 37 15q2 4 6 8q3 1 9 4.5t9 5.5q3 -1 8.5 -4t8.5 -4 q12 4 16 24q8 1 14.5 -7.5t12.5 -10.5v25q6 -2 7 -6.5t-1 -9t0 -9.5q24 -14 67 -35q-2 -13 9 -27.5t12 -17.5q2 -14 2 -37q0 -31 4 -45q3 -9 4 -19.5t1 -24t1 -21.5q0 -8 2 -24.5t2 -24.5q2 -22 5.5 -65t5.5 -64q0 -5 -2.5 -16t-2.5 -17q0 -4 1 -7.5t2 -8.5t2 -9 q-4 -10 -7 -37.5t-12 -42.5q4 -4 8 -6q-3 -9 -9 -28.5t-9 -28.5q-1 -2 -1 -6t-1 -6v-19q-23 -106 -33 -141q-25 -100 -47 -150q-9 -24 -23.5 -72t-21.5 -69q-8 -21 -22.5 -62t-22.5 -61q-6 -14 -20 -39t-19 -35q-8 -18 -29 -49.5t-26 -40.5q-23 -43 -37 -67 q-6 -11 -18.5 -30t-14.5 -22q-6 -7 -31 -32q-17 -24 -41 -29q-3 1 -7 4t-5 4h-4q-7 -4 -16 -5.5t-16.5 -0.5t-16.5 0q-3 -1 -11.5 -6t-11.5 -6h-33q-1 0 -61 6q-4 0 -13 3.5t-16 2.5q-14 -2 -35 5.5t-24 8.5q-15 5 -23 7q-8 6 -24 22q-5 3 -31 14q0 1 -3 3q-2 1 -3 2 q-6 9 -20.5 26.5t-20.5 26.5q-21 36 -27 45q2 6 2 18q-6 5 -8.5 13.5t-3.5 19.5t-2 16q-3 11 -8 70q-3 50 4 88q2 10 18 137q4 29 11 47q17 60 41 109q5 14 41 66zM539 -23q-14 0 -17 -8q10 -5 17 8z" />
<glyph unicode="K" horiz-adv-x="1011" d="M504 717q12 -13 34 -40t33 -40q62 -90 95 -135q55 -79 94 -133q4 -6 19 -29t24 -35q24 -28 35 -39q10 -14 30.5 -41.5t30.5 -42.5q33 -45 37 -51q20 -28 20 -49q1 -11 17 -59l2 -3q-10 -10 -14.5 -12t-16.5 -2q-16 -26 -18 -33q-5 -8 -2 -18q-3 -31 -19 -49 q-17 -20 -41 -6q-41 21 -71 69q2 2 -2 2q-5 -5 -5 -6q2 -2 0 -10q-5 5 -30 25l-5 5t-4.5 5t-5 4.5t-6 3.5t-6.5 1.5t-8 0.5q-6 -2 -14 6q-78 100 -86 111q-55 81 -127 200q-48 82 -109 152q-11 17 -57 70q-1 1 -3 2l-5 2.5t-5 3.5q0 -3 -2 -9t-2 -8q-4 -24 -10 -72t-10 -73 q-2 -18 -9 -62.5t-8 -68.5q-1 -16 -11.5 -44.5t-12.5 -39.5q-2 -13 -5.5 -27t-9.5 -32t-8 -27q-23 -75 -34 -135q0 -11 -7 -21q0 -4 -10 -14q-29 -13 -53 -4q-12 4 -14 4q-33 -7 -46 12q-4 5 -15 11.5t-13 7.5q-33 22 -15 80q9 23 9 30q4 50 28 138q6 19 19 77q4 25 12 74.5 t12 73.5q18 93 25 121q5 26 33 116q1 4 18.5 67t24.5 95q20 94 28 141q2 13 11.5 81t13.5 104q8 92 31 203q2 13 13.5 34.5t14.5 30.5q5 -1 13.5 0t13 0t6.5 -6q4 4 9.5 7.5t13 8.5t12.5 9q-4 -16 -4 -19q5 -5 11 1.5t9 6.5q8 -1 9.5 -13t3.5 -15l10 10q6 -3 8 -5.5t8 -15.5 q2 0 6 4q2 -6 6 -17.5t7 -21t6 -18.5q-3 -16 -11.5 -69t-13.5 -82q-3 -22 -16 -89q-2 -14 -9 -50t-10 -56q-1 -11 -5 -35t-5 -35v-16q22 13 25 16q69 53 127 111q32 34 94 82q90 70 129 113q46 57 102 67h13h16q32 8 48.5 5.5t45.5 -13.5q3 -1 5 -3.5t3.5 -6t3.5 -8t5 -7.5 q-1 -2 -4 -10.5t-5 -13.5q0 -1 -2 -5t-2 -5q4 -4 2.5 -12t-3 -12t-6 -11.5t-5.5 -10.5q0 -4 -6 -10q-10 -5 -19.5 -14.5t-19.5 -22t-16 -18.5q-111 -120 -160 -180q-26 -28 -70 -60q-31 -27 -102 -82q-27 -22 -31 -24q-7 -7 -16 -10q-20 -5 -39 -33z" />
<glyph unicode="L" horiz-adv-x="911" d="M403 1423q7 -23 27 -26q28 -6 25 -43q-3 -30 2 -51q7 -108 -11 -279q-9 -92 -32 -260q-2 -17 -10 -49.5t-9 -38.5q-12 -41 -28 -119q-2 -10 -23 -80q-30 -104 -35 -147q-7 -41 -2 -70q16 -4 53 4q200 43 252 53q56 9 115 15q2 0 34 4t48 8q17 4 33 -8q14 -12 30 -14 q0 -2 -1.5 -6.5t-1 -8t4.5 -6.5q2 -1 2 -3.5t-1 -7t-1 -7.5h17q4 -1 14 -11q-4 -16 -4 -20q3 -3 10 -7.5t9 -6.5q-4 -6 -13 -15q0 -4 8 -8q-18 -13 -20 -14q-2 -2 -5 -2.5t-8 -0.5t-8 -1q-4 -30 -26 -45q-7 -4 -27 -35q-6 -7 -11 -8t-15 4q-22 -19 -47 -25q-33 -5 -156 -33 q-24 -5 -74 -16t-74 -16q-48 -11 -77 -13q-67 -11 -111 -6q-10 2 -25 10q-71 48 -84 119q-4 29 -20 92q-23 92 8 201q2 8 25.5 95t34.5 132q30 125 43 195q1 3 18 110q6 36 10 103q3 32 6 90.5t4 77.5q2 17 7 100q3 19 10 41q0 10 4 10q4 3 13.5 8.5t13.5 8.5q16 16 26 14 q5 -1 18 4.5t21 3.5q1 0 14 4z" />
<glyph unicode="M" horiz-adv-x="1243" d="M1219 123q7 -14 -2 -29q-2 -3 -5 -20q-10 -15 -16 -23q-7 -5 -25 -16q-7 0 -23 -1t-26 -1q-5 6 -39 16q-3 0 -7.5 2t-6.5 2q-1 8 -4 20t-4 17h-2q0 9 4 21q0 31 -4 39q-2 6 -2 24q0 31 1 92t1 90v129q-2 35 -2 109q-1 14 -1 29.5t0.5 35.5t0.5 31q0 113 2 170q0 50 4 152 q-2 6 -2 20l-6 -8t-4 -4q-10 -25 -30 -70.5t-26 -60.5q-4 -9 -11 -26.5t-11 -26.5q-41 -108 -55 -140q-8 -21 -24 -59t-20 -49q-5 -11 -20.5 -47t-22.5 -56q-13 -30 -34 -96q-1 -2 -17 -45q-4 -6 -24 -41q-25 -4 -37 -14q-6 -9 -25 -4l-10 10q-23 0 -43 4q-24 9 -18 31 q-1 2 -2.5 8t-2.5 8q-5 7 -10 39q-2 29 -10 92q-2 17 -4 50.5t-4 50.5q-7 79 -25 198q-4 21 -13 61t-13 60q-2 7 -9 20t-10 19q-6 -12 -8 -18q-9 -28 -35 -95q-15 -38 -26 -69q-4 -10 -14.5 -30t-14.5 -30q-7 -15 -20 -42.5t-23 -50t-17 -42.5q-19 -39 -63 -151 q-9 -22 -26.5 -65.5t-20.5 -49.5q-39 -99 -53 -131q-4 -9 -35 -45q-2 -2 -10.5 -9t-10.5 -10q-13 -3 -20 -6q-5 1 -16 2t-17 2q-6 19 -10 25q-14 7 -23 10q0 3 -2.5 11t-3.5 10v2q0 2 -4 6q-16 16 -2 41q17 33 29 67q2 7 59 162q39 100 74 174q95 201 104 221q17 35 45 101 q3 9 9.5 27.5t9.5 27.5q16 48 33 106q13 30 22 56q3 9 8 29t8 30q18 56 29 72q1 1 2 3t2 3q19 16 19 39q12 12 14 16q3 1 8 2t8 2q14 6 29 0q5 -3 18 -7t19 -7q1 -4 2.5 -9t4 -13t3.5 -13q14 -8 14 -30q9 -33 15 -46q30 -120 61 -217q5 -18 13 -52.5t10 -43.5q1 -5 12 -72 q8 -56 10 -79q1 -2 6 -17q4 4 8 12t5 9q37 82 45 104q7 20 23.5 60.5t23.5 60.5q10 23 29.5 70t29.5 71q33 88 41 113q19 47 39 106q5 15 15.5 46t15.5 47q3 9 8 14q0 4 8 20q1 1 3.5 5t4.5 6h15q18 12 22 14q0 -2 2 -2q2 4 6 4.5t7 5.5h12q2 -4 8 -3.5t8 -2.5q2 0 7 1t6 1 q5 -2 17 -5t17 -5t14 -8.5t13 -8.5q0 1 8 5q3 -3 8 -13v-4q-11 -25 -8 -55q0 -92 4 -137q1 -30 7 -84t8 -74q4 -14 4 -47q4 -16 4 -25q0 -3 -1 -11.5t-1 -12.5q0 -10 1 -31t1 -33q-1 -13 -3 -37t-3 -37v-20q-2 -16 -3 -33t-1.5 -37.5t-1.5 -31.5q-1 -7 -1.5 -29t-2.5 -33 q-3 -33 2 -139q2 -33 2 -98q1 -13 2.5 -34.5t2.5 -40t1 -34.5q1 -16 1 -49.5t1 -50.5q-3 -37 0 -74q0 -32 -10 -45z" />
<glyph unicode="N" horiz-adv-x="944" d="M1081 1352q-10 -17 4 -23q16 -6 19 -22q2 -4 8 -10.5t8 -10.5q4 -4 4 -12v-17q0 -29 11 -40q4 -2 -2 -15q-5 -25 -5 -31q2 -26 -16 -94q-5 -21 -15.5 -62t-15.5 -61q-22 -80 -24 -90q-22 -86 -29 -141l-24 -141q-1 -8 -3.5 -21.5t-3.5 -17.5q-23 -137 -24 -140 q-2 -21 -9.5 -59t-9.5 -49q-3 -20 -9.5 -54t-11.5 -62.5t-9 -53.5q-3 -43 -17 -80v-12q0 -23 -24 -35q-2 -2 -7.5 -6t-7.5 -6q-16 -16 -18 -17q-13 -9 -30.5 -7.5t-26.5 13.5q-29 41 -31 43q-2 3 -8.5 8.5t-8.5 8.5l-10 10q-4 13 -15 37t-15 37q-11 34 -33.5 100t-34.5 100 q-7 22 -21.5 71.5t-23.5 74.5q-20 58 -33 104q-4 15 -16.5 40t-16.5 40q-2 10 -9 27t-9 24q-4 18 -32 59.5t-32 61.5q-6 18 -6 23q-1 0 -3 -1t-3 -1q-1 -4 -6 -29q-1 -6 -3 -18.5t-3 -18.5q-27 -110 -39 -211q-5 -27 -14.5 -82.5t-14.5 -83.5q-3 -12 -17 -75.5t-20 -96.5 q-4 -31 -24 -98q-3 -9 -11.5 -27.5t-11.5 -27.5q-6 -36 -28 -64q-14 -17 -31 -24q-6 -3 5 -6q1 0 4 -1l6 -1l-3 -1q-1 -3 -4 -9t-4 -9q-6 0 -17 -1t-16 -1q-3 5 -11.5 16t-13 21t-3.5 22q-3 -1 -8.5 -3t-8.5 -3h-14q-3 5 -11.5 18.5t-11.5 20.5q-2 0 -8 -1t-8 -1 q-12 6 -8 14q8 17 -8 37q6 16 6 47q0 10 2 32t2 34q1 22 2.5 45t6 52t7 44.5t9 52t8.5 46.5q11 74 20 116q3 17 11.5 51t11.5 52q5 29 20.5 86.5t20.5 85.5q3 15 6 43t4 37q10 98 33 170q19 79 34 122q4 28 29 31q8 0 14 6q8 4 19 15q8 12 35 57q2 0 2 2h4q10 -6 14.5 -5 t11.5 11q1 2 11 12q4 -8 8 -10l-2 -4q4 -14 8.5 -16t19.5 2q16 4 62 -6q3 -7 14.5 -16t14.5 -15q13 -18 53 -45q14 -7 14 -21q4 -26 19 -145q2 -12 4 -35t5 -41.5t9 -34.5q1 -5 3 -11t5 -13.5t4 -11.5q5 -15 16.5 -43.5t16.5 -42.5q3 -9 11.5 -37t13.5 -45q2 -16 5 -49.5 t5 -49.5l6 -30q4 -14 13.5 -39.5t13.5 -38.5q0 -3 1.5 -5.5t4.5 -6.5t4 -7q4 15 8.5 38t5.5 26q3 26 23 131q3 14 9 40.5t11 48t10 40.5q1 5 10.5 38.5t14.5 51.5q23 97 45 178q12 48 23 72q7 16 15 48l9 36q11 45 31 65q17 17 29 17q10 0 16 2q25 5 28.5 4.5t22.5 -10.5h2 h6z" />
<glyph unicode="O" horiz-adv-x="759" d="M434 41l-7 -7q-1 0 -3 3q-4 7 -14 2q-13 -1 -35 -4t-33 -4q-47 -7 -72 8q-10 4 -47 31q-1 1 -41 34q-9 9 -17 21.5t-12.5 21.5t-12.5 26t-11 24q-13 27 -16 36l-3 5q-3 5 -1.5 8t6.5 8q2 4 0 4q-5 3 -1 19t3 20v12q-11 -3 -13 -6l-2 2q8 11 0 19l-6 18q-8 56 6 137 q12 82 43 172q10 32 31 93.5t31 93.5q23 59 39 104q15 38 30 72q8 18 23 53.5t23 54.5q5 13 16.5 36.5t15.5 31.5q2 5 6 9t7.5 6t9.5 5l8 4q6 3 8 5q2 -2 5 -6.5t5 -6.5q9 19 17 29h2l-6 -18q9 -6 14 8q7 20 29 35q7 4 21.5 12t21.5 12q11 8 14 23q-6 0 -10 4l2 4 q51 26 84 31q11 0 26 -3q25 -9 56 3q6 3 12 0q51 -26 74 -80q8 -22 26 -47q15 -25 19 -33q33 -70 59 -160q3 -12 6 -37.5t4 -32.5v-8q13 -42 5 -127q-10 -121 -33 -209q-23 -103 -53 -159q-1 -2 -13 -21q-1 -3 -5.5 -11t-6.5 -11q-8 -26 -25 -41q-3 -3 -8 -13 q-7 -12 -21.5 -36t-21.5 -37q-7 -10 -25 -31.5t-26 -34.5q-21 -29 -82 -86q-1 -1 -5.5 -6t-7 -7.5t-7 -5.5t-8.5 -4.5t-9 -1.5q-4 -6 -9.5 -10.5t-14 -9t-11.5 -6.5q-8 -5 -24.5 -15.5t-24.5 -15.5q-6 -3 -6 -8h2zM705 723v18q1 6 2 19.5t2 19.5q15 78 6 150q-8 45 -35 119 l-6 18q2 8 0 12.5t-6.5 8.5t-5.5 6q-7 12 -27 8q-31 -3 -57 -21q-12 -6 -17 -6q-12 -3 -37 -6q-10 0 -12 6q-2 10 -14 -2q-2 -3 -5.5 -8t-5.5 -8q-29 -65 -45 -92q-23 -42 -39 -91q-12 -31 -33 -92.5t-32 -91.5q-5 -18 -18.5 -52t-18.5 -52q-30 -123 -41 -176 q-10 -42 -6 -103q4 -69 49 -76q4 0 2 -2q18 -15 47 -8q15 4 68 27q2 2 10 6q2 4 19 16q8 8 26 24.5t30.5 29.5t22.5 28q68 93 88 135q10 21 9 23q0 8 8 20q39 85 47 115q4 14 12.5 39.5t12.5 38.5z" />
<glyph unicode="P" horiz-adv-x="925" d="M219 61q-12 24 -8 37q1 4 -1.5 13t-2.5 12q10 80 29 147q8 34 36 133.5t39 153.5q9 37 88 401q6 29 17.5 88.5t17.5 88.5q3 14 9.5 39.5t9.5 39.5v37q-11 -1 -28 8t-26 5q-27 -11 -28 -11q-47 -11 -68 33q-10 18 -14 45q-1 7 -1.5 11.5t0.5 9t1.5 6.5t3.5 6.5t4.5 6.5 t7 8t8.5 10q5 5 15.5 15t15.5 15q7 7 14 11.5t17.5 8t14 4.5t18.5 4t16 3q2 1 7.5 1t8.5 1q52 16 119 16q15 0 30 -1t33.5 -2.5t28.5 -2.5q32 -2 115 -24q26 -9 80 -37q7 -3 65 -39q3 -2 9.5 -7t9.5 -7q72 -53 98 -91q25 -32 35 -63q28 -72 33 -131v-59q-2 -11 -6.5 -33 t-6.5 -33q-6 -18 -41 -64q-3 -3 -11 -12.5t-10 -12t-8.5 -10t-9.5 -10l-9 -7.5t-11 -8t-12 -7t-15 -8q-45 -22 -208 -80q-10 -3 -34.5 -11.5t-35.5 -11.5q-22 -6 -62.5 -10t-62.5 -10q-20 -4 -28 -15t-13 -34q-6 -17 -24 -54t-23 -57q-9 -33 -26.5 -97t-26.5 -97 q-13 -43 -23 -101q-8 -56 -18 -84q-17 -38 -19 -65q0 -12 -8 -17q-4 -4 -3.5 -12.5t-0.5 -15.5q-1 -4 -5.5 -6.5t-6.5 -0.5q-3 2 -7 5t-7 4.5t-7 3t-8 0.5q-2 0 -6 4q-2 2 -7 5t-7 5q-6 7 -24.5 11t-21.5 5q-2 0 -7 -1t-7 -1zM649 1237q-1 -2 -11 -6q-9 -3 -9 -5q0 -1 2 -1 q2 3 7.5 6t9 4.5t1.5 3.5q4 -3 -5.5 -12.5t-6.5 -12.5q4 -8 3 -13.5t-5.5 -15.5t-5.5 -16q-1 -4 -0.5 -15t-1.5 -15q-5 -15 -18.5 -54t-20.5 -61q-4 -11 -11.5 -32.5t-11.5 -33.5q-13 -44 -20 -61q-4 -8 7 -19.5t23 -17.5q15 -7 54 4q164 29 235 58q46 20 56 26q19 10 22 25 q0 6 4 26q4 30 -19 77.5t-46 74.5q-29 37 -113 76q-42 23 -100 26q-15 0 -23 -8q0 -4 4 -8z" />
<glyph unicode="Q" horiz-adv-x="1280" d="M981 -31q3 -2 8 -7t8 -7q25 -23 84 -74q15 -11 13 -24q-1 -3 4 -13q9 -14 -2 -34q-17 -28 -17 -29q-5 -19 -30 -33q-2 -2 -4.5 -4t-5 -3.5t-5 -5t-4.5 -7.5q-3 -8 -13.5 -13t-17.5 -2q-4 0 -16 4q-11 5 -34.5 15.5t-35.5 15.5q-49 27 -55 33q-8 5 -15 12t-17.5 20 t-12.5 15q-12 12 -14 20q-13 9 -25 7l-33 -11q-106 -26 -147 -26l-8 1q-8 1 -8 -1q-90 -16 -177 32q-5 2 -16 8t-18 7q-44 14 -76 51q-58 51 -107 158q-30 64 -49 121q-24 58 -31 137q-2 17 1.5 50.5t3.5 45.5q4 40 4 59q0 52 24 154q3 8 9.5 24.5t9.5 24.5q14 33 40.5 98.5 t39.5 98.5q19 47 47 84q10 14 27.5 41.5t27.5 40.5q68 101 108 141q7 7 21.5 17.5t17.5 13.5q8 6 25 17.5t25 17.5q16 12 143 106q15 10 74 41q24 16 43 23q22 9 65 20q6 2 19.5 5t19.5 5q56 14 98 6q1 -1 6.5 -2.5t6.5 -3.5q5 -6 12.5 -9.5t21 -6t15.5 -2.5q30 -4 67 -37 q18 -18 31 -41q23 -36 29 -49q45 -92 53 -176q6 -70 41 -133q3 -8 8 -26t8 -26q2 -7 6.5 -21.5t6.5 -21.5q3 -8 8 -24t8 -23q2 -2 2 -8q10 -11 17.5 -39.5t11.5 -36.5q8 -10 8 -45v-84q3 -78 -27 -157q-40 -99 -80 -170q-8 -13 -20.5 -34.5t-23 -38.5t-21.5 -32 q-16 -22 -84 -104q-29 -34 -35 -47q-26 -40 -78 -82q-8 -8 -10 -9q0 -4 -4 -8zM696 336q2 -1 7.5 -3t7.5 -3q14 -2 22 -19q1 -4 4 -11t4 -11q21 -32 31 -56q10 -36 49 -96q9 -15 23 -26q10 -6 14.5 -5t13.5 13q6 6 17.5 20.5t17.5 20.5q72 77 142 200q0 1 49 101 q46 98 57 176q7 76 2 127q-8 45 -6 67q0 72 -29 164q-3 8 -10.5 28.5t-11.5 31.5t-9.5 28t-9.5 32.5t-6 31.5q-13 54 -20 76q-13 48 -54 61q-6 1 -16 6l-12 6q-7 2 -20.5 7.5t-20.5 7.5q-21 4 -23 14q-3 5 -8 8q-25 6 -22 41q-4 -2 -15.5 -5t-15.5 -5q-42 -21 -49 -25 q-71 -36 -107 -75q-16 -16 -28 -23q-16 -10 -47 -30.5t-46 -30.5q-40 -29 -63 -62q-11 -14 -34 -44t-34 -44q-4 -6 -14.5 -19.5t-15.5 -19.5q-8 -14 -25 -41t-25 -41q-35 -67 -38 -75q-5 -19 -26.5 -79t-27.5 -93q-3 -17 -11 -49t-11 -48q-7 -27 0 -47q5 -9 7 -27t3 -22 q7 -34 4 -84q0 -10 10 -25q3 -8 13.5 -21.5t13.5 -19.5q10 -17 31 -65q3 -5 14.5 -29t16 -33t14 -27t18.5 -31t19 -25q44 -54 106 -62q51 -7 125 -4q10 5 14 6q-7 22 -14 33q-29 59 -31 106q0 13 4 37q7 36 15 62q6 19 12 22q9 9 16 23q1 2 6 5t7 5q3 -1 8.5 -9.5t13.5 -6.5 q1 2 2 5t2 5z" />
<glyph unicode="R" horiz-adv-x="880" d="M119 -63q-9 -3 -15 0q-9 9 -24 6q-8 8 -12 14q-3 1 -12 2t-13 2q1 2 12 35q-8 0 -20 4q-3 15 10 59l-2 2l2 -2q-5 5 -2 11q1 4 2 11.5t2 12.5q2 0 4 -2q3 4 2.5 10t1.5 9q1 3 3.5 12t2.5 14q5 23 17 65t14 52q13 54 33 125q22 84 27 121q5 27 16 76t19.5 90t13.5 77 q0 6 1 20t1 21q1 3 -4 31q0 2 4 6q9 15 12 37q8 63 14 98q-1 2 0.5 7.5t1.5 7.5q-1 14 2 29.5t8 36t7 32.5q2 3 8 10.5t8 10.5h-14q0 16 2 22q3 18 8 51.5t8 50.5q2 13 6.5 36.5t6.5 35.5q2 8 12 76q0 14 2 22q4 8 4 13q4 10 4 30q2 2 6 6.5t6 6.5q1 3 2 8t2 8h3q3 9 12 25 t12 24q9 3 37 11q2 2 6 7t6 7q0 4 -2.5 5.5t-6 2t-5.5 2.5q2 2 5.5 4.5t4.5 3.5q1 2 4.5 8.5t5.5 8.5h2l1 -1q-2 1 -3 1q40 14 119 26q65 8 142 -2q28 -4 40 -4q21 -3 31 -6q2 -1 8.5 -4.5t8.5 -5.5q4 3 12.5 0.5t11 -3.5t10 -5t9.5 -5q38 -21 49 -38q5 -5 8 -5 q21 -3 18 -24q6 -3 11 -8q4 -8 12 -24.5t12 -24.5q18 -11 21 -33q-3 -13 6 -17q4 0 8 -2q-8 -5 -8 -8q-5 -10 4 -10q2 -5 5 -15.5t5 -15.5q-11 -11 0 -16q0 -2 -2.5 -7.5t-3.5 -7.5q4 0 8 -4q4 -12 -4 -20h2q-1 -9 -6 -59q-5 -56 -35 -123l-14 -35q-11 -35 -39 -70 q-10 -7 -22 -23.5t-17 -21.5l-29 -29q-42 -37 -61 -45q-11 -5 -30.5 -16.5t-22.5 -13.5q-10 -6 -21 -4q-16 -12 -26 -17v2q-8 -3 -27 -8q-8 -2 -26.5 -8t-32.5 -9.5t-27 -4.5q-1 0 -4 -1.5t-4 -1.5q-29 -11 -47 -16q-6 -10 2 -18q30 -34 47 -58q3 -5 20.5 -30t24.5 -41 q3 -6 12 -17.5t12 -17.5q1 -3 18.5 -31.5t24.5 -44.5q6 -10 17.5 -29.5t17.5 -29.5q4 -11 21 -37q30 -50 35 -60q0 -2 4 -6q9 -11 24.5 -35.5t26.5 -35.5q10 -15 26 -43q24 -31 43 -58q25 -33 27 -47l2 2q8 -8 4 -14q-1 -2 -5.5 -7t-6.5 -8q-2 -8 -7.5 -15.5t-15.5 -17.5 l-14 -14q-2 1 -5 3.5t-5 3.5l-1 -2q-2 -3 -4 -4.5t-5 -2.5q2 -1 3.5 -4t2.5 -4l-4 -2q-13 0 -19 -2q-3 -1 -9 -4.5t-9 -5.5q-12 4 -17 4q-58 53 -114 147q-11 16 -23 47q-1 2 -8 9q-4 8 -8 24q-4 2 -13 2q-14 17 -14 43q-1 0 -4.5 1t-5.5 1q-3 6 -14 24t-15 28q0 2 -1 7.5 t-1 8.5q-4 12 -4 18l-14 7q0 2 -1 6t-1 6q-10 6 -17 15t-14.5 26.5t-9.5 21.5v-2q-1 2 -29 41q-58 76 -78 101q-3 2 -8 7t-8 7q-4 -2 -10 -19q-2 -12 -17 -86q-31 -149 -37 -172q-11 -46 -22 -71q-23 -71 -27 -92q-4 -18 -16 -58q-5 -15 -19 -74q-4 -12 -6 -14t-2 -4 q0 2 2 4q0 -2 1 -6t1 -6q0 -13 -4 -29q-6 -9 -20 -37q-9 -12 -21 -24q-4 -6 -22 -10h2zM244 1008v-2v2zM702 1059q31 22 50 53q30 44 47 111q2 4 2 16q1 8 0 23.5t0 23.5q-3 34 -21 55q-33 33 -61 45q-44 21 -119 25q-28 2 -82 -2q-6 0 -24 -6q-5 -1 -15.5 -4t-15.5 -4 q-1 -1 -9.5 -4.5t-13.5 -8.5q-1 -7 -24 -163q-20 -134 -23 -166q-19 -123 -20 -162q2 -1 3.5 -2.5t2.5 -1.5q27 0 39 4q22 5 59 16q11 4 32 12.5t32 12.5l12 6q0 1 -1 2t-1 2q-23 0 -33 2q8 3 23.5 10.5t23.5 10.5q4 2 58 26q2 1 5 3t5 3q10 11 18 13q21 9 58 37 q1 1 3.5 4.5t4.5 5.5q-11 0 -15 2zM633 920q5 10 3.5 13t-11.5 3q-7 -5 -4 -14q3 -6 12 -2zM285 1276v-2q0 2 2 2h-2zM666 848l2 2z" />
<glyph unicode="S" horiz-adv-x="690" d="M59 285q7 3 18.5 9t20.5 10.5l17 8.5q3 4 3 15.5t3 17.5q5 9 -4 37q-3 14 4 23t20 8q4 0 7 2t6 5t6 5q3 -3 10 -8t10 -8q56 -49 123 -52q63 -5 90 2q106 27 146 127q6 16 10 70q-7 7 -9.5 27.5t-9.5 27.5q-15 18 -73 68q-4 3 -16.5 13.5t-17.5 15t-15.5 14t-16.5 16 t-14.5 15.5t-14.5 18t-12 19q-19 34 -39 79q-6 9 -6 21q-15 88 -16 104q-5 87 -2 113q13 86 20 119q18 86 84 159q11 11 15 17q28 50 96 67q20 5 45 5q12 -1 57 12q6 2 12 2q40 -4 54 -8q27 -6 55 -6q20 1 40 -4.5t43 -14.5t36 -12q5 -1 10 -4.5t11 -10.5t7 -8q-5 -11 3 -25 t8 -20q3 -7 -2 -12q-7 -12 2 -29q-7 -16 -25 -45q-30 8 -33 8q-6 -21 9 -34q-13 -1 -32.5 -3.5t-27.5 -3.5q-2 -2 -10 -14q-7 1 -18 4t-15 4q-61 15 -104 6q-4 -1 -15 -3t-19 -4.5t-15 -6.5q-27 -18 -31 -22q-82 -105 -70 -220q2 -17 11 -33t17 -24t25 -24q35 -28 84 -70 q0 -1 3.5 -3.5t3.5 -4.5q0 -9 5 -14.5t13.5 -10.5t11.5 -8q23 -23 43 -61q6 -10 14.5 -32.5t10.5 -27.5q22 -49 22 -96q-1 -6 9 -41q5 -20 0 -29l-5 -6q5 -10 5 -22.5t-2.5 -21t-7.5 -23t-7 -21.5q-3 -9 -9 -19t-17.5 -24.5t-14.5 -19.5q-4 -7 -11.5 -21.5t-10.5 -19.5 q-30 -57 -61 -96t-79 -66q-60 -34 -81 -39q-3 -1 -18.5 -4t-24.5 -4q-5 0 -47 -7.5t-62 -1.5q-6 2 -18.5 2t-16.5 1q-2 1 -50 7.5t-71 16.5q-10 5 -22 17q-32 48 -39 57q-8 11 0 24q4 11 -2 17q-17 34 -19 37zM530 1462q-28 0 -34 -2.5t-13 -19.5q3 1 11 2.5t13 3t11.5 6 t11.5 10.5zM733 440h-8q0 -4 -6 -16q2 -2 6 -2q4 6 8 18z" />
<glyph unicode="T" horiz-adv-x="1239" d="M348 1458h86q13 0 36.5 3.5t33.5 4.5q9 1 26 1t25 1q197 0 338 5q33 0 203 10q34 1 100 2t100 2q34 3 72 6q54 0 64 -25q11 -28 43 -28q2 0 10 -4q-9 -17 -10 -23q-12 -26 2 -47q11 -14 2 -33q-14 -14 -17 -20q-17 -27 -43 -27q-8 0 -24 -1t-26 -1t-24 -2t-26 -6 q-13 0 -19 2q-11 4 -32 0q-22 -4 -59.5 -7.5t-43.5 -4.5q-37 -6 -69 -6q-11 -1 -34 -2.5t-34 -2.5h-24q-4 -12 -5 -14q0 -3 -6 -45q-9 -35 -12 -63q-4 -29 -11.5 -85.5t-11.5 -84.5q-4 -61 -20 -168q-4 -29 -12.5 -88t-12.5 -89q-30 -182 -53 -296q-3 -13 -24.5 -99 t-30.5 -131q-16 -70 -27 -102q-10 -33 -51 -51q-1 -1 -5 -1t-5 1q-11 9 -43 14q-7 0 -10 6q-13 25 -13 27q-7 18 -18 22q-2 2 -6 10q-10 45 -11 54q-1 4 5 39q2 9 20 82t29 112q21 76 24 178q0 56 11 146q2 35 2 104q-12 107 -5 172q1 8 6.5 31.5t6.5 34.5l6 57l6 57 q1 23 4 71t4 73q1 11 -1.5 13.5t-14.5 2.5q-41 2 -123 2q-19 -4 -27 10q-7 7 -12 7q-50 4 -72 4q-71 0 -106 2q-41 3 -60 35q-2 4 -8 10q-10 13 -10 28q0 3 -6 27q-3 27 14 47q2 3 10 10t9 13q0 1 2 2t2 2q16 0 16 14z" />
<glyph unicode="U" horiz-adv-x="720" d="M782 492q-1 -17 -9.5 -47.5t-10.5 -38.5q-1 -3 -3 -10.5t-3 -10.5q-4 -22 -11 -37q-4 -6 -6.5 -13t-4.5 -16.5t-3 -13.5q-4 -16 -12 -46.5t-12 -45.5q-16 -43 -41 -78q-46 -54 -70 -78q-50 -47 -102 -71q1 1 2.5 3.5t3.5 4.5q-2 1 -21 -4q-21 -7 -35 -2q-8 2 -26 2 q-10 1 -28 1.5t-33 1.5t-29 3q-40 3 -78 18q-37 15 -49 43q-26 71 -23 162q1 14 1 42t1 42q5 63 8 78q4 24 14 71t11 54q12 74 8 108q0 67 15 181q3 32 16 120q0 11 -4 35q4 70 4 107q0 23 2 33q0 21 6 45q3 8 4.5 22.5t3.5 20.5q0 1 6 43q6 17 2 22q-2 2 -2 8q13 40 13 95 q3 24 14 40q2 4 6 12.5t6 12.5v2q8 5 20 20.5t21 22.5q0 -15 4 -43q10 10 11 12q3 -7 9 -24t11 -25q25 -35 27 -67q0 -11 2 -19q2 2 4 6.5t4 6.5l-2 -3v-34q-20 -143 -23 -170q-2 -16 -4 -46.5t-4 -45.5t-7 -46.5t-7 -46.5q-5 -28 -15.5 -82t-15.5 -81q-2 -17 -5 -50.5 t-5 -50.5q0 -7 -1.5 -18.5t-3.5 -24.5t-3 -18q1 -30 3 -89t3 -89q1 -17 -3.5 -49t-4.5 -46q0 -1 1.5 -53.5t-1.5 -54.5q-1 -8 4.5 -11.5t17.5 -3.5h21q13 1 39.5 1.5t40.5 1.5q1 0 9 -1t16.5 -0.5t17.5 3.5q2 0 6 8q6 15 24 48t23 50q6 23 20.5 66.5t20.5 66.5 q4 18 14.5 69.5t18.5 80.5q4 16 7.5 45t4.5 33q17 73 33 157q3 20 8 62.5t8 64.5q4 35 16 105q16 115 11 211q1 10 0.5 29.5t0.5 36t5 32.5q2 5 7.5 25t10.5 32q10 0 10 -2q7 27 16.5 36.5t39.5 18.5q5 -2 14 -5t14 -5v-6l2 -2q16 4 19 -8q2 -2 7 -6t7 -6q3 -2 8 -11 q0 -4 4 -4q9 0 9 -12q2 -14 2 -45q0 -8 -4 -12q-7 -10 -7 -37q-1 -22 -2 -65.5t-2 -65.5q0 -15 -4 -47q-3 -61 -12 -123q-1 -7 -4.5 -64.5t-7.5 -87.5q-6 -31 -13.5 -88.5t-9.5 -71.5q-8 -72 -18 -106q-16 -53 -19 -100z" />
<glyph unicode="V" horiz-adv-x="946" d="M1092 1364l4 -16q26 10 28 12q3 3 5.5 7t6.5 11t7 11v-19q0 -5 1 -7.5t2 -2.5t6 -1q1 0 2.5 -0.5t2.5 -0.5q17 -4 17 -12q2 -3 -7 -25q0 -5 4 -21q0 -1 1.5 -4t1.5 -4q-5 -6 -6.5 -14t-0.5 -14.5t0 -14.5q-5 -25 -8 -30q-33 -72 -47 -119q-1 -4 -6 -12.5t-6 -12.5 q-5 -18 -21 -65q-5 -14 -14 -41.5t-14 -42.5q-23 -65 -23 -66q-7 -17 -21.5 -52t-21.5 -52q-1 -4 -24 -80q-3 -8 -13.5 -35t-15.5 -41q-18 -44 -21 -59q-7 -38 -41 -125q-34 -80 -69 -162q-5 -11 -37 -98q-2 -6 -10.5 -22t-10.5 -25q-2 -8 -2 -29q0 -29 -6 -45v-4 q-6 -4 -9.5 -10.5t-5 -10t-3 -12.5t-2.5 -12q-9 -40 -45 -60q-13 6 -20 3.5t-13 -15.5q-9 -12 -12 -25q-3 -20 -19 -26q-12 -5 -20 8q0 1 -3.5 6t-4.5 8q-26 -5 -37 23q-16 37 -19 72q-2 29 -10 92q-42 287 -47 325q-5 40 -16.5 120t-16.5 120q-4 17 -29 100q-25 86 -71 258 q-7 30 -20.5 89.5t-20.5 89.5q-2 10 -9.5 29t-9.5 24q-10 19 -2 28l2 5q-1 12 3.5 24t11.5 25.5t10 21.5q2 4 2 12q4 1 9.5 5t6.5 4q-1 3 -1 8t-1 8q40 16 45 43q3 3 14.5 5.5t14.5 10.5q8 0 10 -2q9 18 11 23q3 -5 8 -13t6 -10q1 0 3 1t3 1q-2 6 -2 21q20 -3 31 -18 q22 -27 24 -29l6 12q2 0 2 -2q5 -12 23 -49q2 -6 18 -10q4 -2 13 -5t10 -4q13 -26 14 -30q1 -8 4 -23.5t4 -23.5q3 -68 23 -148q1 -7 2 -22.5t2 -22.5q2 -19 7 -55.5t7 -54.5q1 -8 3.5 -25t3.5 -25q0 -6 12 -108q15 -90 20 -109q2 -13 35 -153q0 -2 2 -21.5t4 -29.5 q4 -14 6 -29q26 29 41 59q49 106 68 180q6 27 31 84q26 55 49 127q35 94 59 144q28 68 43 117q1 2 29 67q7 15 51 100q1 3 4 6t7.5 8t7.5 9z" />
<glyph unicode="W" horiz-adv-x="1343" d="M303 1395q-6 16 2 30q2 3 6 23q14 21 17 25q20 12 28 18q34 0 52 2q8 -9 47 -18q3 0 6.5 -2.5t5.5 -2.5q2 -6 5 -18.5t5 -19.5h2q-4 -16 -4 -25q-6 -22 2 -41q4 -6 4 -27q-4 -132 -4 -198q-2 -46 2 -137q2 -39 2 -117v-105q-1 -31 -2 -93t-2 -93q0 -28 -1 -82t-1 -82 q0 -12 2 -22q8 11 8 14q10 23 31 70.5t31 70.5q4 9 11 29t11 29q8 21 30 72.5t32 78.5q8 20 23.5 60t23.5 59q3 7 21 47t26 61q26 69 37 107q15 40 18 49q2 2 11.5 17.5t15.5 23.5q27 9 39 19q8 8 26 4l11 -11q33 -3 49 -6q23 -9 20 -33q-2 -7 2 -16q6 -9 11 -43 q2 -8 12 -100q2 -22 4 -64t2 -45q14 -131 31 -215q3 -26 13.5 -72.5t12.5 -58.5q3 -8 11.5 -22.5t11.5 -20.5q2 4 4 11t4 10q23 66 37 102q4 14 14.5 39.5t14.5 36.5q19 32 30 63q43 91 66 148q31 66 67 161q43 102 52 127q9 23 28.5 70.5t28.5 71.5q6 14 39 47q6 8 22 20 q4 1 11.5 3t11.5 3q5 0 15 -1t16 -1q5 -6 12 -28q9 -3 25 -11q4 -6 8 -22v-2q1 -1 2 -3t2 -3q16 -19 4 -45q-12 -20 -33 -72q-12 -32 -63 -176q-50 -125 -80 -191q-19 -41 -115 -237q-7 -18 -47 -111q-4 -9 -20 -57q-6 -19 -18.5 -58t-18.5 -59q-3 -10 -10.5 -29.5 t-10.5 -29.5q-7 -16 -20 -66q-16 -53 -31 -75q0 -5 -4 -9q-21 -18 -21 -41q-3 -3 -8 -9t-8 -9q-2 -1 -7 -2t-7 -2q-18 -6 -33 0q-15 8 -41 14q-6 15 -12 39q-12 9 -15 33q-2 8 -6 24.5t-6 24.5q-59 201 -68 236q-13 35 -24 104q-4 12 -14 76q-2 17 -6.5 46.5t-6.5 41.5 q-4 8 -4 16q-5 -3 -7.5 -6t-5 -8t-3.5 -6q-34 -78 -47 -115q-7 -19 -16 -40.5t-20.5 -48t-17.5 -40.5q-29 -83 -61 -156q-37 -91 -47 -118q-7 -21 -41 -119q-15 -50 -33 -99q0 -4 -8 -16q-1 -3 -2.5 -6t-4 -7t-3.5 -7q0 -3 -8 -11q-3 0 -8 -1t-7 -1q-4 -2 -12 -7t-12 -7 l-2 2q-3 -4 -7 -5t-6 -5h-16q-3 3 -9 2.5t-9 3.5q-2 0 -6 -1t-5 -1q-6 2 -19.5 5t-19.5 5q-4 2 -8.5 4.5t-10 6.5t-9.5 6q-3 0 -9 -3q-2 2 -5 6.5t-5 6.5v4q14 23 10 61q0 74 -6 148q-1 27 -16 170q-1 8 -2 25.5t-2 25.5q0 4 -1 13t-1 14v26v68q0 28 4 82q2 6 2 22l6 111 q0 25 4 65q2 44 2.5 52t-2 50.5t-2.5 49.5q-1 18 -2 53t-2 53q0 39 -4 117q-2 37 -2 111q0 14 -1 39t-1 39q0 4 0.5 14.5t2.5 18.5t7 16z" />
<glyph unicode="X" horiz-adv-x="1110" d="M662 928q6 6 8 10q18 37 68.5 188t64.5 183q23 57 69 143q5 8 11 15t17 17.5t13 12.5t7 3.5t6 0.5q16 -5 28 15q1 2 3 3.5t6 3.5l6 3q11 -15 22 -23q1 0 2 1t2 1q3 1 8 4t7.5 3.5t7.5 -1.5t6.5 -5t-1.5 -10l-3 -7q-3 -15 4 -29q7 -24 -4 -45q-9 -22 -27.5 -65t-27.5 -64 q-52 -117 -60 -137q-38 -107 -41 -113q-9 -20 -59 -118q-24 -41 -6 -74q20 -40 82 -197q78 -189 110 -289q13 -46 45 -127.5t41 -107.5q4 -9 8 -35q0 -3 -3.5 -11t-4.5 -11q-1 -2 -4 -9t-4 -12q-11 -66 -12 -68q0 -6 -8 -10q-20 -20 -23 -41q-3 -17 -14 -24q-8 0 -19 -1 t-16 -1q-2 1 -7 1.5t-8.5 1.5t-5.5 3q-5 4 -12.5 7t-16.5 6t-14 5q-2 -4 -7 -11t-7 -11q-15 10 -16 12q-13 22 -45 77.5t-50 84.5q-23 37 -48.5 114.5t-37.5 104.5q-15 35 -56 99.5t-56 101.5q-6 6 -6 10q-8 -8 -11 -14l-57 -108l-57 -108q-5 -10 -14.5 -31.5t-14.5 -31.5 q-51 -79 -82 -135q-9 -13 -23 -38t-18 -32q-7 -14 -18 -22q-3 -3 -10.5 -10t-12.5 -11.5t-10 -12t-8 -15.5q-4 -10 -37 -48q-3 -4 -8 -11t-8 -11q-15 -23 -45 -45q-2 -2 -19 -8q-6 -2 -16 -2q-2 0 -11 -1.5t-12 -0.5q-2 2 -6.5 5.5t-7 6t-5 7t-3.5 9.5q-2 4 -5 8t-7.5 9 t-6.5 8q-11 8 -8 26q5 32 25 70q42 78 53 115q11 32 43 61q39 34 65 107q32 89 111 213q29 45 80.5 130t60.5 99q13 20 6 43q-10 23 -29.5 69t-29.5 68q-29 76 -33 90q-20 53 -78 224q-24 82 -32 147q-3 19 10 39q5 7 14 19t17 22t16 18q22 23 45 25q18 0 37 16q8 4 33 13 q19 7 30 -4q6 -3 15 -3q25 9 41 -4q0 -2 4 -10q3 -10 7 -31.5t7 -31.5q6 -26 20 -98t27 -115q4 -39 20.5 -130.5t26.5 -111.5q4 -4 7 -10z" />
<glyph unicode="Y" horiz-adv-x="903" d="M156 -133q-9 -9 -15 -12q-32 2 -14 34l49 95q15 30 21 39q38 63 96 170q17 28 50.5 76.5t47.5 70.5q39 55 88 141q37 59 72 117q13 20 2 31q-2 2 -5 7t-4.5 8t-5.5 4.5t-10 0.5q-2 4 -8 11.5t-8 11.5q-16 25 -39.5 74t-34.5 69q-9 18 -23 51.5t-18 42.5q-9 21 -18 39 q-10 20 -10 37q-1 10 -17 47q-28 53 -47 105q-2 8 -10 23.5t-10 19.5q-16 32 -9 55q1 7 -4 39q-1 8 3 15.5t10.5 17t9.5 14.5q4 -1 7.5 1.5t7 7.5t5.5 7q9 6 21 6t20 -6q6 -6 13 -2q1 0 4.5 -1t5.5 -1q29 -11 45 -41q7 -16 23.5 -48.5t23.5 -49.5q13 -27 27 -66 q11 -44 49 -106q36 -57 63 -137q7 -16 22.5 -45.5t22.5 -44.5q3 0 7 -4l24 36q44 57 102 174q61 110 84 142q19 23 27 41q6 9 17.5 28.5t17.5 28.5q22 33 24 37q22 30 33 51q5 10 13.5 18.5t21.5 18.5t18 14q1 2 4.5 2.5t8 0.5t6.5 1q5 2 15 2.5t16 2.5q4 2 9 2t11.5 -1 t9.5 -1l2 -3q1 -2 5 -6.5t5.5 -6t5 -6.5t3.5 -7.5t1.5 -8t-1.5 -8.5q-29 -95 -51 -135q-38 -75 -47 -90q-6 -12 -21.5 -37.5t-21.5 -38.5q-19 -37 -27 -47q-10 -11 -19.5 -25t-15.5 -25t-15 -29t-14 -27q-38 -69 -96 -182l-30 -52.5t-33 -60.5q-3 -6 -9 -23.5t-10 -27.5 q-3 -1 -6 -2.5t-5.5 -5t-3.5 -5.5l-3.5 -7l-3.5 -7q-59 -116 -86 -162q-35 -61 -80 -127q-19 -32 -64 -96q-4 -7 -10.5 -20l-9.5 -19q-12 -26 -27.5 -56.5t-27 -50.5t-32.5 -56t-30 -52q-8 -13 -29 -20q-7 -1 -19 -8t-19 -9q-2 1 -8.5 4.5t-10.5 5.5l-2 -2q-7 -6 -19.5 -1.5 t-17.5 1.5q-26 -10 -37 7q-5 5 -12 2q-10 -2 -16 10z" />
<glyph unicode="Z" horiz-adv-x="1437" d="M512 270q-25 -21 -31 -37q8 -2 19 -2q16 1 51 3.5t55 3.5q103 8 160 14q20 2 43 5t51.5 7t44.5 6q60 8 131 15q20 4 29 4q31 5 106 17.5l117 19.5q3 -2 11 -9t12 -10q4 -1 9 -2t11.5 -2t9.5 -2q9 -9 28 -26.5t28 -26.5q-12 -16 -17 -21q-4 -2 -15 -5.5t-17 -6.5 q8 -4 20 -8q0 -4 -10 -17q15 6 20 11q4 -4 6 -8q1 1 4.5 5t5.5 6t5.5 4t7 1.5t6.5 -2.5q4 -3 7.5 -6.5t8 -8.5t7.5 -8q-7 -5 -45 -16q-19 -6 -21 -8q-19 -22 -47 -25q-4 -12 -4 -16q-4 -2 -11.5 -6.5t-11.5 -6.5q4 -2 13 -8q-59 -22 -111 -35l-6 -6q-8 -2 -26.5 -7t-26.5 -7 v2q-2 0 -72 -10q-10 4 -24 5t-23.5 0t-28.5 -3.5t-26 -3.5q-16 -1 -44.5 -6.5t-35.5 -6.5t-37 -6q-23 0 -33 2q-5 -1 -18.5 -5t-20.5 -5t-18 -3t-20.5 -1t-18.5 4q-9 -6 -20.5 -7t-21 1t-20.5 0q-2 -1 -16 -10q-10 5 -18 2q-56 -4 -84 -8q-23 0 -29 6q-8 5 -25 -2 q-2 -1 -8 -5.5t-8 -5.5q-16 -3 -46 -8t-44 -8q-7 -1 -20.5 -3t-20.5 -3q-16 -2 -46.5 -6t-45.5 -6q0 -1 4 -9h-19v3h-2q-18 -11 -55.5 -3.5t-50.5 5.5q-46 19 -49 61h-4h-7q-14 9 -14 10t-2 8t-4 11q-8 0 -14 -2l-7 6q-8 6 -10 10q-3 12 10 26.5t15 18.5q-8 4 -14 6 q2 5 6 10t9.5 10.5l8.5 8.5q2 4 25 31q7 10 10 26q0 4 -2 8q23 26 59 58q48 52 80 96q19 31 57 64q20 21 61 58t46 42q15 13 44.5 35t39.5 30q97 82 215 185q6 5 51 39q4 4 12.5 12t12.5 12q3 6 12 15q25 20 31 26q25 29 43 35q4 2 8 10q2 6 2 21q8 10 42.5 52t51.5 69 q-19 1 -65 6q-16 2 -33.5 4t-38.5 4.5t-33 3.5q-20 3 -59.5 9t-59.5 9q-13 2 -35.5 7.5t-35.5 7.5q-15 3 -41.5 10.5t-36.5 9.5q-14 3 -25 10q-14 10 -18 15q0 2 -1 7.5t-1 8.5q-3 1 -10.5 2t-10.5 2q-2 3 -9 13t-11 16q13 0 33 -4v4q-32 23 -45 31q-4 35 -25 49q0 17 16 24 l9 -18h34q1 2 -2 12q13 0 21 2q-1 3 -3 7.5t-3 7.5q35 5 41 6q4 6 16 18h10q25 3 68 -3t55 -7q20 -1 65 -4t70 -4q23 -1 70 -4t72 -4q15 -1 43.5 -4.5t44.5 -4.5q39 -1 114.5 -4t114.5 -4q16 0 51.5 2t53.5 2q39 0 112 15q10 4 31 0q10 1 30.5 3t30.5 3q2 -1 14.5 -12 t24.5 -11q3 -11 11 -34t10 -31q-2 -6 -11.5 -23t-13.5 -28q3 2 6.5 5.5t5.5 4.5q11 -4 23 -6q-12 -9 -70 -54q-9 -7 -28 -25.5t-31 -27.5q-107 -57 -152 -92q-4 0 -10.5 1t-11.5 1q-93 -69 -148 -107q-25 -16 -65.5 -51.5t-58.5 -48.5q-3 -2 -25 -24q-14 -15 -39.5 -42 t-38.5 -42q-2 -1 -8 -7q-19 -10 -37.5 -25t-44 -39.5t-33.5 -31.5q-6 -5 -18.5 -15.5t-18.5 -15.5q-24 -19 -51 -49l-18 -6q0 -1 1 -2t1 -2q-82 -78 -125 -117q-18 -3 -27 -9.5t-35 -35.5q0 -2 1 -7.5t1 -8.5v8q-6 -6 -17 -14t-18 -16t-10 -19q12 9 25 16zM1366 242q1 0 3 1 t3 1l-6 6l-4 -2q4 -4 4 -6z" />
<glyph unicode="\" d="M903 1094q1 3 1 8.5t1 7.5q2 12 2 37q-17 93 -37 137q-1 1 -6 33q0 3 -1 9t-1 9v6q-1 1 -1.5 7.5t-2.5 9.5q-1 6 -12 39l-4 14q36 22 26 55l47 29l25 -22l10 28h2q14 0 31 10q10 7 16 7q11 0 23 -15q25 -22 35 -55q4 -14 12 -41.5t12 -40.5l19 -57l2 -11q1 -6 7 -24.5 t7 -28.5q20 -100 17 -198q0 -45 28 -62q0 -2 2 -2q-1 -7 -2 -21t-2 -20q0 -30 -4 -88q-3 -44 -12 -70q-12 -37 -8 -61q1 -3 4.5 -24.5t7.5 -32.5q1 -10 4 -31t4 -31l4 -6q1 -13 4 -35t4 -31q1 -20 2 -61.5t2 -62.5l3 -39v-25v-18v-21q1 -6 1 -13t-0.5 -14.5t-0.5 -11.5v-10 q0 -26 -5 -158q-1 -8 -2.5 -23.5t-2.5 -28t-1 -23.5q-4 -24 -4 -39q-4 -11 -18 -21q-4 -2 -8 -6l-19 10l-14 31l-25 -47q-12 16 -31 16q-8 0 -12 -2q-2 2 -5 7.5t-5 7.5l-6 6q0 18 -21 26q-2 2 -2 4v43q0 11 -4 27q-5 46 -2 57q3 10 -2 19v4q-1 5 -3 15.5t-3 15.5 q-10 38 -10 65q-4 41 -4 125q-1 13 -2 37t-2 37q0 9 -1.5 26t-1.5 25q-1 6 -2 18.5t-2 18.5q-2 25 -2 78q-4 46 -4 67q-4 10 0 21q-4 54 -16 73l2 5v4q0 18 -2 28q0 23 2 35q-1 6 -1 19.5t-1 19.5q0 9 -1 28.5t-1 28.5q0 17 -1 27t-9 23.5t-23 19.5q-4 4 -2 6q-1 5 -3 15.5 t-3 15.5l12 -6z" />
<glyph unicode="^" horiz-adv-x="579" d="M768 1083v-4q-6 -3 -6 -6q-1 -1 -4 -3t-4 -3q-4 0 -4 4l-17 6l-10 -18l-8 -4q-11 -6 -19 -17l-39 9l-20 -27q-4 4 -10 4q-2 0 -4 -2q0 1 -1 2t-1 2q-21 35 -31 64l-6 12q-8 8 -11 18q-7 10 -20 41q-12 41 -47 99q-4 4 -6 8q-4 0 -4 4l-11 12l-14 -16q-9 -9 -10 -11 q-5 -3 -12 -11.5t-9 -10.5q-8 -10 -29.5 -36.5t-31.5 -41.5q-56 -70 -60 -76l-10 -8q-24 -12 -43 -39q0 -1 -2 -3t-2 -3q-2 -4 -8 -10l-12 6q-8 16 -15 20q-2 3 -2 5q0 4 -2 4l6 24q7 31 21 70l12 24q6 6 6 11q5 7 14.5 21.5t14.5 21.5l12 18l6 12q1 3 13 21l22 22 q7 4 19 23q14 35 30 45q2 1 17 16l2 2q10 14 20 17q14 5 21 14q8 8 14 17l6 4l8 10h2q7 0 11 -4l10 -2l18 16q2 0 5.5 -1t5.5 -1h4q8 2 20 6q2 -2 17 -12q12 -6 16 -6h2h2q8 0 14 -17q2 -2 2 -4q16 -25 70 -123q8 -16 12 -26q2 -3 6 -12t5 -11q4 -6 10 -19.5t10 -19.5 q18 -33 29 -57q8 -12 12 -33q-2 -12 -2 -37z" />
<glyph unicode="_" d="M1266 66q-6 -3 -15 -3l-14 -2l-8 -20q-4 -4 -4 -10h-2q-7 -1 -20 -2t-19 -2q-8 -1 -23.5 -4t-17.5 -3q-30 -2 -66 -6q-46 -4 -71 -4q-17 0 -41 4h-2h-11h-10q-8 -4 -27 -4h-22q-8 2 -25 2h-6q-18 -2 -57 -2q-60 0 -74 -2q-65 0 -98 -2q-10 0 -30 -1t-30 -1q-28 -4 -41 -4 h-18h-25q-2 0 -7.5 1t-8.5 1t-8.5 1t-7.5 1h-8v2q-8 14 -29 14q-8 0 -14 9q-10 14 -19 16q-5 0 -10 16q-7 37 16 60q15 18 15 33q6 6 6 12q11 11 2 24q9 9 18 9q6 1 19 2t20 2l19 2h2q8 0 14 2q22 10 59 10q23 0 35 2q85 9 320 14h39q2 0 6.5 -1t7.5 -1q15 -6 37 -6 q21 0 51 6q15 5 39 5q12 0 18 2q6 0 20 1t21 1l23 2q5 0 16 1t17 1q46 4 67 4h6q34 0 72 -10l14 -2l15 -5l-15 -36l-24 -5l12 -24q3 -12 14 -16q-3 -3 -8.5 -9t-7.5 -8q-1 -1 -3 -2t-3 -2q-2 -2 -4 -2h-2q-17 -11 -21 -18l-16 -21l2 -2l-6 -4l6 -10q-1 0 -4 -1t-4 -1 q-24 -4 -41 -4zM776 98l35 13l-14 20v2q0 2 -9 8l-4 2h-4q-6 0 -18 -8l-6 -4l-2 -8v-10v-21z" />
<glyph unicode="`" horiz-adv-x="327" d="M494 995q0 -28 -11 -39q-10 -10 -10 -16q-3 -12 -8 -12l-6 -2l-23 -27q-8 4 -14 4q-4 0 -14 10q-2 2 -6.5 7.5t-6.5 7.5q-1 2 -16 22q-29 32 -39 62l-4 6q-16 49 -17 55q-5 36 -22 90q-17 53 -27 113v4q3 4 9.5 11.5t9.5 11.5l4 6q14 16 24 16h7q5 -1 15 -2t15 -2h15h4 l6 -6q16 -13 22 -25q4 -6 21 -45q5 -21 8 -28q6 -35 25 -72q11 -16 14 -39q6 -9 6 -19q19 -55 19 -88v-4z" />
<glyph unicode="a" horiz-adv-x="948" d="M20 35q5 8 5 31q0 12 -2 18q0 17 10 25q-3 17 2 49q4 26 8 37q12 59 12 61q2 16 12.5 45.5t12.5 34.5q2 2 2 6q6 22 23.5 63.5t21.5 53.5q18 51 70 174q35 87 84 203q7 18 20.5 53t20.5 53q5 14 15 39t15 39q3 7 37.5 79t50.5 111q4 9 13.5 29t13.5 29q3 10 9 30.5 t9 30.5q15 12 19 31q2 8 10 24q0 1 4 5q15 24 33 51q34 17 41 20q1 4 4 15t4 18q4 1 13 2t12 2l8 -4t9 -5t7 -5t5.5 -6.5t2.5 -8.5q26 -9 39 -34q2 -4 9.5 -12.5t9.5 -12.5t6 -12.5t6 -12.5q1 -1 2 -3t2 -3q6 -13 18.5 -37t18.5 -36q26 -72 35 -103q15 -40 24 -84 q1 -10 7.5 -37t7.5 -43q0 -10 3.5 -28.5t4.5 -22.5q2 -13 7 -37.5t7 -36.5q2 -10 5 -30.5t5 -30.5q9 -54 13 -68q0 -12 2 -16q6 -12 6 -23q0 -18 2 -28q18 -122 23 -199q1 -20 4 -61t4 -62v-106q0 -15 1 -42.5t1 -41.5v-29q0 -5 -1 -15t-1 -18.5t2 -15.5q0 -23 -15 -66 q-1 -2 -6 -16h-6q-2 -4 -8 -10q-27 -13 -29 -15q-51 15 -71 31q-8 -4 -15 -4q-2 3 -5 9.5t-5 9.5q-4 7 -4 34q0 64 -4 82q0 4 1 12.5t1 12.5q0 86 -2 129q0 14 1 41t1 41q0 12 -1 25.5t-2.5 29.5t-2.5 25q-1 16 -3 46.5t-3 45.5q-6 19 -9 47q-17 3 -34 -2q-4 -1 -31 -17 q-1 -1 -4 -10q-9 0 -25 -4h-4v2q-28 -4 -43 -4q-46 -3 -94 0q-17 0 -33 -8q-57 -20 -69 -23q-1 -1 -7.5 -3t-7.5 -3q-10 -8 -10 -22q-7 -22 -25 -66t-24 -67q-8 -33 -29.5 -97.5t-28.5 -91.5q-16 -86 -16 -115q-2 -15 -22 -43q-3 -1 -8.5 -3t-8.5 -3q-1 -4 -4 -8.5t-4 -5.5 q-4 0 0 -1t0 -1q-18 9 -21 12q-14 -23 -16 -26q-6 -4 -17.5 -12.5t-17.5 -12.5q-20 -10 -33 -10h-16v2v-2q-8 5 -27 20h-14q-15 9 -29 23zM721 774q-1 2 -1 6t-1 6q-2 15 -7 43.5t-7 42.5q-1 4 -10.5 45.5t-14.5 63.5q0 2 -12 70q-1 6 -3 17t-3 17q-19 74 -25 91 q-2 3 -4.5 7.5t-5 7.5t-6.5 5q-2 -5 -9 -16q-4 -10 -11 -31t-11 -31q-11 -24 -30.5 -72.5t-22.5 -54.5q-2 -5 -12 -26t-15 -33q-5 -11 -15.5 -37.5t-17.5 -40.5q-14 -32 -37 -94q-1 -2 -1 -6t-1 -6h11q10 1 30.5 4t30.5 4q15 3 57 8q37 4 115 4q25 0 39 6zM213 63v3h-6v-3h6 zM664 627v-4q1 0 2 1t2 1v2h-4z" />
<glyph unicode="b" horiz-adv-x="974" d="M868 836q3 -2 31 -23q5 -4 17 -13t18.5 -14t16 -14t16.5 -18q51 -66 69 -127q11 -50 11 -82q0 -7 -4 -22t-5 -19q-8 -34 -16 -49l-10 -15q-2 -7 -6 -17t-5 -15q-6 -28 -30 -56q-20 -25 -35 -37q-5 -5 -15.5 -15t-15.5 -15q-54 -58 -110 -82q-32 -14 -60 -31 q-17 -13 -71 -35q-37 -16 -70 -24q-86 -25 -148 -27q-42 -3 -69 2q-17 4 -36 5t-42 0.5t-35 0.5q-13 1 -34.5 4t-34.5 4q-10 1 -29.5 2t-28.5 2q-2 0 -12 5q-26 -13 -31 -15q-3 2 -9 7.5t-9 7.5q-16 13 -19 30v6q-10 17 4 58q5 16 21.5 48.5t21.5 49.5q7 17 7 25 q13 65 28 106q28 79 43 156q2 20 6 43t10 50.5t9 41.5q1 12 2 35t2 35q4 64 8 102q2 29 10 102q2 8 7.5 30.5t7.5 35.5q0 2 1 6t1 6q0 54 14 129q1 5 1 16.5t1 16.5q1 1 1.5 4.5t2 6t4.5 3.5q10 14 13 27q3 9 12 18q3 2 19.5 12.5t25.5 14.5q65 29 127 43q93 22 151 29 q141 13 244 -13q50 -11 80 -20q9 -3 26.5 -8t25 -8t20 -8.5t22 -13.5t19.5 -19q37 -37 47 -72q11 -59 -8 -105q-4 -9 -16 -55t-25 -65q-5 -9 -16.5 -25.5t-14.5 -21.5q-4 -7 -11 -15t-11.5 -12t-15.5 -14t-13 -11q-13 -12 -39.5 -32t-32.5 -25q-25 -15 -31 -18zM291 244 q9 0 25 -2t29.5 -2t25.5 4q11 3 38.5 9.5t36.5 8.5q8 2 53.5 9t67.5 18q29 14 162 82q48 22 80 59q16 19 21.5 38t3 30.5t0.5 25.5q0 3 -5 13q-40 75 -65 131q-8 14 -41 24q-10 5 -32 6t-29 2q-33 2 -101 2q-30 0 -72 -10q-8 -2 -12 -6q-4 -1 -8 -2.5t-6.5 -2.5t-5.5 -3 l-25 -10q-11 -2 -19 -5.5t-21 -10t-27 -11.5q-3 -2 -19 -12t-22 -13q0 -10 -3 -31.5t-4 -27.5q-3 -25 -10 -59l-12 -60q-4 -26 -2 -39q0 -3 -1 -9.5t-1 -8.5q-2 -14 -1.5 -35t-0.5 -33q-2 -12 -2 -37q2 1 2 -6q1 -10 2 -10q-1 -7 0 -8.5t0 -7.5zM360 852h54q55 8 78 10 q54 6 106 21q121 35 201 84q53 32 84 71q52 63 73 107q16 34 -18 55q-3 1 -7 4t-5 4q-61 21 -68 23q-88 24 -190 18q-74 -3 -150 -18q-18 -2 -88 -17q-18 -4 -22.5 -8t-10.5 -22v-8q-2 -8 -16 -37t-14 -45q1 -16 2 -50t2 -51q-4 -93 -11 -129v-12z" />
<glyph unicode="c" horiz-adv-x="907" d="M807 303q-1 -1 -9 -5.5t-10 -6.5t-2 -4q30 9 57 3t38 -34l-21 -14q0 -18 17 -39q-2 -3 -6.5 -8.5t-6.5 -8.5t-4 -8.5t0 -9.5q3 -6 -12 -16q-6 -4 -24 -15t-25 -18q-4 -5 -8.5 -9t-10 -7.5t-8.5 -5.5t-10 -4.5t-9 -3.5t-10.5 -4t-9.5 -3q-1 -1 -3 -2t-3 -2 q-52 -33 -139 -29q-143 6 -226 92q-77 81 -116 162q-2 4 -6.5 12.5t-6.5 12.5q-15 20 -32 80q-38 126 -41 143q-17 78 -4 174q11 76 57 156q83 136 143 204q49 52 107 101q41 39 106 86q44 29 107 63q50 24 102 45q1 0 23 6q41 12 188 35q53 9 96 -2q46 -14 54 -53 q0 -1 1 -4t1 -4q10 -25 1 -49t-32 -56q-30 -34 -70 -34q-34 -3 -63 0q-7 0 -57 -11q-13 -4 -40.5 -12t-41.5 -12q-157 -48 -275 -160q-113 -106 -174 -229q-47 -90 -47 -191q2 -62 39 -141q20 -56 65 -101q34 -34 103 -45q59 -9 127 7q19 4 51.5 10t40.5 8q13 2 23 -6 t10 -21z" />
<glyph unicode="d" horiz-adv-x="874" d="M66 98q1 -1 2.5 -1.5t4.5 -1t5 -1.5q3 18 0 35q-16 0 -12 25q1 4 4.5 42.5t7.5 59.5q2 8 5 24.5t5 24.5q3 14 8.5 39.5t9.5 47t7 40.5q19 112 30 217q11 84 27 135q13 49 30.5 140t28.5 133q5 26 17.5 74.5t17.5 70.5q15 73 33 117q2 4 7 17t8 19t8 17t11 19t13 16 q8 8 14 12q3 3 12.5 9t12.5 8q7 0 27 4v8q10 7 20 10q18 8 49 0q5 -1 15.5 -3t15.5 -3q25 -5 31 -8q91 -34 141 -82q5 -5 26 -22t31 -27q9 -8 54 -58q7 -6 20.5 -19t20.5 -19q39 -34 57 -66q39 -56 41 -59q3 -5 7 -17.5t7 -17.5q17 -64 17 -66q2 -5 4 -16.5t4 -16.5 q17 -110 14 -202q-3 -68 -27 -135q-10 -35 -28 -64q-8 -16 -26.5 -46t-26.5 -46q-8 -13 -25 -40t-25 -40q-5 -10 -8 -12q-9 -15 -49 -66q-4 -8 -8 -10q-21 -21 -33 -29q-50 -35 -74 -49q-12 -7 -42.5 -26.5t-47.5 -28.5q-57 -33 -94 -51l-39 -13q-52 -13 -63 -18 q-19 -7 -33 -19q-19 -16 -80 -38q-39 -15 -45 -19q-22 -13 -37 -6q-6 1 -12.5 -0.5t-10 -3t-11 -6.5t-9.5 -6q-2 0 -4 -2q-38 9 -57 34q-1 1 -1.5 2.5l-1 3t-1.5 3.5q-5 29 -5 67q0 4 5 6zM506 1292q-3 -15 -6 -24q-1 -3 -2 -11t-2 -12q-3 -10 -10 -32.5t-11.5 -39.5 t-7.5 -34q-1 -4 -3 -13.5t-3 -13.5q-11 -42 -27 -92q-3 -14 -7 -29.5t-9 -33.5t-8 -29t-15.5 -54t-17.5 -67q-13 -57 -27 -131q-4 -16 -10 -48.5t-10 -49.5q-12 -64 -27 -129q-2 -11 -8 -35t-8 -35q-15 -65 -29 -156v-14q10 0 14 2q25 4 74.5 13.5t73.5 13.5q100 18 184 90 q19 15 52 46t44 40q2 2 6.5 7t6.5 7q10 15 36.5 57t41.5 64q22 38 38 80q19 58 21 90q7 100 -8 166q-18 90 -47 137q-40 62 -66 84q-34 30 -49 41q-53 39 -82 76q-18 25 -63 53q-3 3 -14.5 8.5t-14.5 7.5z" />
<glyph unicode="e" horiz-adv-x="729" d="M287 981l12 -4q0 2 2 7t2 7q5 21 15.5 63t15.5 64q9 40 26.5 113t24.5 106q11 33 -8 49q-4 4 -4 17q6 4 16 14q-5 5 -16.5 11t-19 13t-11.5 17l6 12l-18 9q-1 -3 -1 -8t-1 -7q-6 -3 -11 -1.5t-4 7.5q0 6 13 15q4 4 10 4q11 -2 21 1.5t22.5 12t17.5 10.5q5 5 17 9 q7 0 22 1t21 1q32 5 55 20q-6 3 -13.5 3t-15.5 -1.5t-12 -1.5q-8 1 -23 -0.5t-20 -1.5q-25 -4 -41 2q3 1 21 10q-3 3 -7 11q15 3 60 8q7 1 64.5 10.5t86.5 13.5q76 12 154 15q39 4 117 8q5 0 13 -1t13 -1q13 2 33 -14q2 -2 8 -7t8 -8t4 -9t1 -13q4 -2 6 -4q11 -7 22 -11 q-1 -13 -2 -35t-2 -34q-8 -5 -12 -20t-6 -19q-20 -5 -43 -31q-11 -13 -29 -16q-35 -3 -162 -17q-13 -1 -41 -4t-41 -4q-38 -3 -65 -6q-14 -4 -29 -6q-3 -12 -10 -36.5t-10 -37.5q-38 -178 -47 -223q-3 -9 -3 -21h41q27 -1 82 -2t82 -2q5 0 17 -4q4 -3 9.5 -5.5t12 -5.5 t10.5 -5q-1 0 -6 -3.5t-8 -4.5q8 -23 27 -25q16 0 39 -14q12 -7 13 -12.5t-7 -20.5q20 -20 0 -45q-17 -25 -29 -35q-4 -4 -9 -6t-12 -3.5t-10 -2.5q0 -13 -8 -21q-2 -4 -18 -4q-31 -2 -94 -2q-43 0 -66 2l-45 3l-45 3q-18 1 -26 -6t-13 -26q-19 -132 -25 -164 q-30 -133 -36 -158q-15 -61 -27 -123q0 -1 -1 -4.5t-1 -5.5q-3 -14 0 -17.5t16 -3.5q18 1 51.5 4.5t51.5 4.5h129q8 0 25.5 1t25.5 1q19 0 39 -4q2 -1 3.5 -4.5t3.5 -8.5t3 -8q2 0 18 -4q-7 -12 -14 -29q17 0 17 -12q2 -2 9 -5t9 -5q-1 -3 0.5 -8t0.5 -10.5t-7 -10.5l16 -8 q0 -1 -7 -16.5t-14 -21.5t-20 -9q2 -15 -22 -35q-29 -25 -47 -31q-14 -7 -23 -10q-88 0 -131 -2q-19 -1 -51.5 -3.5t-40.5 -2.5q-16 -2 -47 -2q-38 0 -56 -2q-22 -2 -47 12q-41 27 -61 84q-25 66 -6 145q4 20 59 273q0 2 1 6t1 6q3 23 8 49t12.5 58t10.5 49q7 30 20 88 t15 67q6 34 8 39q0 5 -4 15t-4 12zM467 1565l-2 -4q13 -3 24 8q-4 -1 -11.5 -2t-10.5 -2z" />
<glyph unicode="f" horiz-adv-x="907" d="M51 -57q-5 4 -13 10.5t-13 11t-9 8.5q-8 14 -9.5 30.5t0 26.5t7.5 31q15 49 27 99q47 165 53 188q5 22 16.5 64t19 75.5t11.5 63.5q4 31 39 172q7 33 22.5 99.5t22.5 99.5q19 70 23 108q2 8 3 17.5t1.5 20.5t1.5 17t3.5 17.5t4.5 20.5t4 16q5 28 12.5 79.5t10.5 69.5 q1 6 6.5 24.5t7.5 28.5v13q-6 26 25 53l12 6q5 4 22 21q20 3 64 12q0 2 -2 2q30 0 93 -1t93 -1q134 -4 232 14q25 3 71.5 10.5t67.5 10.5q14 2 45 2q6 -3 24.5 -9.5t26.5 -11.5q13 -4 27 -18q4 -3 10 -11.5t10 -11.5q0 -3 -1 -12t-1 -16q9 -9 15 -13q0 -2 -2 -2 q11 -37 14 -45q-8 -7 -37 -26q1 -3 2 -10t2 -11q-4 -3 -11 -9t-11 -9q-1 0 -23 -7.5t-33 -7.5q-6 0 -19.5 -1t-19.5 -1h-43q-20 -3 -43.5 -6t-52.5 -6.5t-45 -5.5q-17 -1 -49.5 -3t-48.5 -3q-22 -1 -68.5 -4t-68.5 -4q-12 -2 -39 -2q0 -15 2 -19h-2q-2 -8 -9.5 -30t-9.5 -35 q-6 -33 -20 -95t-19 -88q-1 -4 -1 -11t-1 -11q11 -4 33 -8q52 -3 107 6q9 2 57 2q2 0 5 -2t5 -2q26 -11 39 -13q1 -1 14.5 -9.5t14.5 -18.5q30 -3 43 -29q0 -2 -2 -6t-2 -6t2 -7.5t2 -7.5q-2 -5 -11 -32q-4 -2 -49 -27q15 -15 0 -35q-20 -4 -30 -4q-96 -4 -144 0 q-23 1 -123 10q-1 -4 -4 -11t-4 -11q-6 -12 -6 -27q-3 -38 -35 -155q-15 -45 -32 -127.5t-27 -116.5q-15 -58 -39 -137q-2 -6 -14.5 -39t-18.5 -54q-15 -15 -43 -51q-3 -3 -11.5 -18.5t-17.5 -22.5h-43q-1 -1 -20.5 -16.5t-34.5 -15.5q-13 13 -41 6z" />
<glyph unicode="g" horiz-adv-x="1013" d="M999 324q1 -4 -1 -9t-6 -10.5t-5 -7.5q-5 -19 -22 -39q0 -1 -1.5 -2l-3 -2t-2.5 -2q-2 -2 -5 -6t-5 -6v-2q-9 -2 -12.5 -16t-7.5 -17q-6 -6 -8 -10v14q-7 -3 -8 -12.5t-3 -12.5q-19 -3 -24 -22q-1 -3 -7 -9l-8 -8q-5 -5 -16.5 -14.5t-15.5 -13.5l-4 -2q-10 -3 -32.5 -17 t-35.5 -16q-6 -1 -15.5 -7t-13.5 -7q-5 -2 -16 -7t-16 -6q-57 -14 -121 -14q-68 4 -99 14q-30 13 -94 29q-23 6 -74 39q-3 3 -11.5 7t-12.5 7q-2 1 -6.5 3.5t-7 4.5t-3.5 5q-54 46 -71 69q-7 8 -13 18t-13.5 26t-10.5 22q-41 90 -47 194q-3 97 26 209q19 81 60 182 q1 4 10 17l4 8q6 15 17.5 43.5t17.5 42.5q0 1 2 6.5t4 7.5q8 23 19 41q3 -2 5.5 -5.5t4.5 -4.5l2 2q30 43 43 68q5 8 13 22t11 19q8 13 14.5 27.5t14 33.5t12.5 29q0 6 2 8q-6 19 15 45q42 59 110 98q56 31 74 37q36 10 84 10q23 0 68.5 1t66.5 1q17 0 49 -4q3 0 15 -6 q35 -19 53 -33q46 -41 55 -51q66 -84 86 -157q10 -35 17 -80q5 -14 10 -52q4 -29 -12 -43q-1 -1 -1.5 -5.5t-2.5 -6.5q-24 -4 -46 -4l-6 -6q-3 6 -12 18q0 -14 -2 -18q-18 0 -37 25q-3 -6 -6 -15q-2 4 -6.5 24.5t-13.5 26.5q-1 -4 -11 -24h-2q-2 6 -5 19.5t-5 19.5 q-10 60 -35 106q-32 59 -72 78q-57 32 -118 4q-6 -3 -18.5 -11t-18.5 -11q-22 -13 -53 -62q-1 1 -3.5 5t-3.5 7q-7 -11 -24 -34.5t-25 -36.5q-40 -61 -90 -166q-42 -95 -80 -199q-26 -69 -35 -110q-40 -152 -10 -256q20 -77 72 -107q28 -18 80 -41q58 -19 114 6q10 5 87 47 q11 11 12 13q66 63 108 137q8 12 7 18t-13 7q-32 4 -47 4q-43 2 -106 24q-4 1 -10.5 4t-8.5 4q-22 3 -22 25q0 3 -3 13.5t-1 17.5q-1 2 -5.5 6t-5.5 6q0 1 3.5 6t4.5 8q-3 2 -11.5 2t-13 4t-3.5 15q8 -2 28 -6q4 3 11.5 9t11.5 9q-13 10 -17.5 11t-13.5 -7q1 2 11 27 q34 4 51 8q2 0 22 10q10 3 17 10q33 10 69 25q11 4 29 18q2 1 6 4.5t6 4.5q46 21 94 30h15q6 -8 33 -8q1 -1 7 -4.5t11 -5.5q-1 -1 -2 -3l-2 -4t-2 -5q26 4 35 8q2 -2 4 -6.5t4 -7.5q24 3 18 -25q13 0 18.5 -5t4.5 -16q6 -6 10 -8q14 -5 14 -22q-1 -5 -2 -15t-2 -16 q3 1 8.5 2t8.5 2l2 -4q-2 -7 -4 -21.5t-4 -21.5q-3 -20 -9 -37q-7 -31 -22 -51q-18 -18 -15 -39q4 -22 -14 -33q-4 -2 -6.5 -6.5t-5 -11t-4.5 -10.5l2 -2q8 12 12 20q0 -36 -29 -61q12 18 11 26q-15 -10 -11 -26zM571 1384q14 -6 19 11q-10 -5 -19 -11z" />
<glyph unicode="h" horiz-adv-x="813" d="M920 1503q8 -4 24 -8q9 -6 21 6l10 15q0 -8 4.5 -12.5t13 -8.5t11.5 -6q-6 -24 10 -43q10 -20 4 -43q-3 -20 -23 -123q-1 -4 1.5 -13t2.5 -12q0 -22 -2 -34q0 -34 -4 -50q0 -3 -18 -100q-2 -10 -12 -47t-13 -57q-8 -39 -20 -113q-1 -12 -2 -35t-2 -35q-2 -26 -15 -100 q0 -5 -12 -47q-2 -4 -6 -8q-15 -13 -19 -35q-16 -74 -22 -111q-14 -62 -16 -77q-7 -28 -17 -48q-7 -13 -11 -27t-7 -34t-4 -27q-9 -58 -15 -110q-3 -23 -5 -47.5t-4 -54t-3 -46.5q-4 -42 -10 -61q-3 -23 -19 -39q-6 -11 -20 -14q-5 0 -14 -9q-8 -4 -11 -10q-4 1 -13.5 4 t-16.5 4q-8 -8 -9 -10q-2 -2 -6 -2q-10 3 -10 16q0 10 -8 13q-10 2 -10 20q0 15 -2 17q-7 18 -3 51v71q3 40 3 82v33q5 93 8 113q2 18 2 55q9 87 16 113q2 7 4 22.5t4 22.5q0 8 -2.5 10t-9.5 2q-79 -4 -108 -6q-12 -4 -23 -4h-18q-1 0 -3.5 1t-3.5 1q-11 -4 -22 -4t-22.5 2 t-18.5 2q-12 0 -33 1t-33 1q-4 0 -8 -2q0 -3 -2.5 -10.5l-3.5 -10.5q-2 -14 -6 -40l-6 -39q-2 -15 -7 -30.5t-14 -38t-12 -30.5q-18 -42 -20 -57q-1 -3 -11 -29q-8 -24 -41 -106q-4 -10 -16 -30.5t-16 -33.5q0 -2 -1.5 -3.5t-4 -2.5t-3.5 -2q-20 -17 -28 -35q-2 -5 -13 -16 q-4 6 -12 14h-2q-6 -12 -19.5 -8.5t-17.5 0.5q-12 29 -22 37q-4 8 -4 24q0 56 16 125v45q0 39 6 52q2 4 6 16q0 19 4 29q3 10 9.5 30.5t9.5 30.5q5 21 16.5 63t16.5 62q2 10 5 29.5t5 29.5q1 13 6 38t6 32q3 18 10.5 55t10.5 56q17 127 26 184q2 23 10 63q2 8 6.5 28.5 t8.5 31.5q7 41 14 72q2 13 4 38t4 37q5 37 15 90q4 31 16 93q4 44 12 63q5 15 9 23t12.5 18t21.5 16q5 3 10 8t10.5 13t8.5 12q7 7 10 8q-3 -24 6 -36q0 -4 11 -9q1 2 4 6.5t4 6.5q4 4 6 8v-25q0 -2 2 -2q9 2 15.5 -1.5t9 -6.5t6.5 -12q15 -21 24 -45q10 -38 -4 -72 q-12 -28 -20 -80q-14 -104 -27 -217q-4 -29 -4 -88q-5 -74 -29 -170q-4 -16 -10 -48t-10 -48q0 -13 2 -16.5t12 -4.5q86 -14 156 -6q10 0 10 4q2 10 21 10q7 1 27.5 3.5t31.5 3.5q2 1 6 2t6 2q3 0 10 2t9 2q23 0 28 24q3 12 29 115q2 7 16.5 58.5t20.5 78.5l2 4 q15 45 37 160q5 21 9 45t8 53t7 45q16 72 31 115q16 39 53 76q1 2 5 6.5t6 7.5zM631 -78h4q0 6 -2 10l-2 -2v-8z" />
<glyph unicode="i" horiz-adv-x="311" d="M260 109q-3 1 -8 3t-8 3q0 -7 -6 -13q-12 -6 -17 -6q-6 4 -17.5 4t-15.5 2q-1 3 -10 14t-8 21l-4 4q-6 2 -10 4.5t-7 6.5t-4.5 7t-2.5 9.5t-1.5 9.5t-1 10.5t-0.5 10.5v141q4 118 13 166q8 37 21 105.5t15 80.5q17 73 27 103q1 7 8.5 22t9.5 23q1 5 16 54.5t21 76.5 q7 28 29 43q3 -6 6 -15q12 16 23 39h4q-3 -11 6 -23t10 -18q4 7 11 18t8 13q9 -29 10 -31q4 3 6 7t3 9.5t1 6.5q7 -11 10 -19q3 -13 19 -16q5 -2 8 -12q11 -25 18 -60q3 -18 -4 -39q-5 -23 -7 -64.5t-3 -51.5q-1 -14 -4 -29t-7.5 -33.5t-6.5 -29.5q-11 -38 -13 -43 q-25 -76 -41 -168q-9 -41 -26 -136q-1 -6 -1 -17t-1 -17q-10 -44 -15 -72q-2 -9 -6 -26.5t-6 -26.5q1 -2 -0.5 -7.5t-1.5 -7.5q-29 -3 -39 -36zM342 1409q8 6 18 8h9v-4q8 2 21 3t23 4t19 10q6 -3 10 -7q0 -5 1.5 -9t5.5 -6.5t6 -3.5t8.5 -3t7.5 -2q11 -5 14 -15 q5 -12 14 -31t11 -24q1 -2 2 -7t2 -7q3 -7 0 -17q1 -2 1 -6t1 -6q0 -2 -4 -6q6 -8 2.5 -30.5t-0.5 -30.5q3 -12 -8 -23q-6 -3 -6 -8q0 -11 -11 -29t-12 -22q-3 -5 -14 -13l-5 5t-9 6q-5 -8 -19 -27q-23 -8 -37 4q-51 27 -80 68q-4 6 -16.5 25t-20.5 28q-4 6 -5 13t0 19t1 15 q1 6 4 16t3 11q6 41 38 73q1 2 3.5 3.5t7 4t6.5 3.5q8 3 8.5 5t-0.5 13z" />
<glyph unicode="j" horiz-adv-x="790" d="M197 705q6 -3 10 -3q14 12 41 31q3 -4 6.5 -6.5t9.5 -4t10 -2t12.5 -1t12.5 -0.5q6 -8 25 -27q-1 0 -2.5 -1t-2.5 -1q2 -7 10 -26.5t11 -30.5v-27q-1 -7 -3 -21.5t-3 -21.5q-8 -46 -8 -63q0 -1 -11 -45q-24 -110 -16 -162q8 -59 13 -59q1 0 4 3q6 9 12 3q3 1 9.5 2t8.5 2 q17 9 71 22t77 35q5 5 20.5 19t22.5 22q4 3 5.5 9t4.5 9q35 50 51 95l4 4q8 10 14 29t11 47t6 30q23 61 35 127q6 19 16 90q3 25 8 73t8 73q5 63 5 73q8 122 10 193q1 19 5 56t5 55q7 84 -12 122q5 30 6 37q30 12 37 15q2 4 6 8q3 1 9 4.5t9 5.5q3 -1 8.5 -4t8.5 -4 q12 4 16 24q8 1 14.5 -7.5t12.5 -10.5v25q6 -2 7 -6.5t-1 -9t0 -9.5q24 -14 67 -35q-2 -13 9 -27.5t12 -17.5q2 -14 2 -37q0 -31 4 -45q3 -9 4 -19.5t1 -24t1 -21.5q0 -8 2 -24.5t2 -24.5q2 -22 5.5 -65t5.5 -64q0 -5 -2.5 -16t-2.5 -17q0 -4 1 -7.5t2 -8.5t2 -9 q-4 -10 -7 -37.5t-12 -42.5q4 -4 8 -6q-3 -9 -9 -28.5t-9 -28.5q-1 -2 -1 -6t-1 -6v-19q-23 -106 -33 -141q-25 -100 -47 -150q-9 -24 -23.5 -72t-21.5 -69q-8 -21 -22.5 -62t-22.5 -61q-6 -14 -20 -39t-19 -35q-8 -18 -29 -49.5t-26 -40.5q-23 -43 -37 -67 q-6 -11 -18.5 -30t-14.5 -22q-6 -7 -31 -32q-17 -24 -41 -29q-3 1 -7 4t-5 4h-4q-7 -4 -16 -5.5t-16.5 -0.5t-16.5 0q-3 -1 -11.5 -6t-11.5 -6h-33q-1 0 -61 6q-4 0 -13 3.5t-16 2.5q-14 -2 -35 5.5t-24 8.5q-15 5 -23 7q-8 6 -24 22q-5 3 -31 14q0 1 -3 3q-2 1 -3 2 q-6 9 -20.5 26.5t-20.5 26.5q-21 36 -27 45q2 6 2 18q-6 5 -8.5 13.5t-3.5 19.5t-2 16q-3 11 -8 70q-3 50 4 88q2 10 18 137q4 29 11 47q17 60 41 109q5 14 41 66zM539 -23q-14 0 -17 -8q10 -5 17 8z" />
<glyph unicode="k" horiz-adv-x="1011" d="M504 717q12 -13 34 -40t33 -40q62 -90 95 -135q55 -79 94 -133q4 -6 19 -29t24 -35q24 -28 35 -39q10 -14 30.5 -41.5t30.5 -42.5q33 -45 37 -51q20 -28 20 -49q1 -11 17 -59l2 -3q-10 -10 -14.5 -12t-16.5 -2q-16 -26 -18 -33q-5 -8 -2 -18q-3 -31 -19 -49 q-17 -20 -41 -6q-41 21 -71 69q2 2 -2 2q-5 -5 -5 -6q2 -2 0 -10q-5 5 -30 25l-5 5t-4.5 5t-5 4.5t-6 3.5t-6.5 1.5t-8 0.5q-6 -2 -14 6q-78 100 -86 111q-55 81 -127 200q-48 82 -109 152q-11 17 -57 70q-1 1 -3 2l-5 2.5t-5 3.5q0 -3 -2 -9t-2 -8q-4 -24 -10 -72t-10 -73 q-2 -18 -9 -62.5t-8 -68.5q-1 -16 -11.5 -44.5t-12.5 -39.5q-2 -13 -5.5 -27t-9.5 -32t-8 -27q-23 -75 -34 -135q0 -11 -7 -21q0 -4 -10 -14q-29 -13 -53 -4q-12 4 -14 4q-33 -7 -46 12q-4 5 -15 11.5t-13 7.5q-33 22 -15 80q9 23 9 30q4 50 28 138q6 19 19 77q4 25 12 74.5 t12 73.5q18 93 25 121q5 26 33 116q1 4 18.5 67t24.5 95q20 94 28 141q2 13 11.5 81t13.5 104q8 92 31 203q2 13 13.5 34.5t14.5 30.5q5 -1 13.5 0t13 0t6.5 -6q4 4 9.5 7.5t13 8.5t12.5 9q-4 -16 -4 -19q5 -5 11 1.5t9 6.5q8 -1 9.5 -13t3.5 -15l10 10q6 -3 8 -5.5t8 -15.5 q2 0 6 4q2 -6 6 -17.5t7 -21t6 -18.5q-3 -16 -11.5 -69t-13.5 -82q-3 -22 -16 -89q-2 -14 -9 -50t-10 -56q-1 -11 -5 -35t-5 -35v-16q22 13 25 16q69 53 127 111q32 34 94 82q90 70 129 113q46 57 102 67h13h16q32 8 48.5 5.5t45.5 -13.5q3 -1 5 -3.5t3.5 -6t3.5 -8t5 -7.5 q-1 -2 -4 -10.5t-5 -13.5q0 -1 -2 -5t-2 -5q4 -4 2.5 -12t-3 -12t-6 -11.5t-5.5 -10.5q0 -4 -6 -10q-10 -5 -19.5 -14.5t-19.5 -22t-16 -18.5q-111 -120 -160 -180q-26 -28 -70 -60q-31 -27 -102 -82q-27 -22 -31 -24q-7 -7 -16 -10q-20 -5 -39 -33z" />
<glyph unicode="l" horiz-adv-x="911" d="M403 1423q7 -23 27 -26q28 -6 25 -43q-3 -30 2 -51q7 -108 -11 -279q-9 -92 -32 -260q-2 -17 -10 -49.5t-9 -38.5q-12 -41 -28 -119q-2 -10 -23 -80q-30 -104 -35 -147q-7 -41 -2 -70q16 -4 53 4q200 43 252 53q56 9 115 15q2 0 34 4t48 8q17 4 33 -8q14 -12 30 -14 q0 -2 -1.5 -6.5t-1 -8t4.5 -6.5q2 -1 2 -3.5t-1 -7t-1 -7.5h17q4 -1 14 -11q-4 -16 -4 -20q3 -3 10 -7.5t9 -6.5q-4 -6 -13 -15q0 -4 8 -8q-18 -13 -20 -14q-2 -2 -5 -2.5t-8 -0.5t-8 -1q-4 -30 -26 -45q-7 -4 -27 -35q-6 -7 -11 -8t-15 4q-22 -19 -47 -25q-33 -5 -156 -33 q-24 -5 -74 -16t-74 -16q-48 -11 -77 -13q-67 -11 -111 -6q-10 2 -25 10q-71 48 -84 119q-4 29 -20 92q-23 92 8 201q2 8 25.5 95t34.5 132q30 125 43 195q1 3 18 110q6 36 10 103q3 32 6 90.5t4 77.5q2 17 7 100q3 19 10 41q0 10 4 10q4 3 13.5 8.5t13.5 8.5q16 16 26 14 q5 -1 18 4.5t21 3.5q1 0 14 4z" />
<glyph unicode="m" horiz-adv-x="1243" d="M1219 123q7 -14 -2 -29q-2 -3 -5 -20q-10 -15 -16 -23q-7 -5 -25 -16q-7 0 -23 -1t-26 -1q-5 6 -39 16q-3 0 -7.5 2t-6.5 2q-1 8 -4 20t-4 17h-2q0 9 4 21q0 31 -4 39q-2 6 -2 24q0 31 1 92t1 90v129q-2 35 -2 109q-1 14 -1 29.5t0.5 35.5t0.5 31q0 113 2 170q0 50 4 152 q-2 6 -2 20l-6 -8t-4 -4q-10 -25 -30 -70.5t-26 -60.5q-4 -9 -11 -26.5t-11 -26.5q-41 -108 -55 -140q-8 -21 -24 -59t-20 -49q-5 -11 -20.5 -47t-22.5 -56q-13 -30 -34 -96q-1 -2 -17 -45q-4 -6 -24 -41q-25 -4 -37 -14q-6 -9 -25 -4l-10 10q-23 0 -43 4q-24 9 -18 31 q-1 2 -2.5 8t-2.5 8q-5 7 -10 39q-2 29 -10 92q-2 17 -4 50.5t-4 50.5q-7 79 -25 198q-4 21 -13 61t-13 60q-2 7 -9 20t-10 19q-6 -12 -8 -18q-9 -28 -35 -95q-15 -38 -26 -69q-4 -10 -14.5 -30t-14.5 -30q-7 -15 -20 -42.5t-23 -50t-17 -42.5q-19 -39 -63 -151 q-9 -22 -26.5 -65.5t-20.5 -49.5q-39 -99 -53 -131q-4 -9 -35 -45q-2 -2 -10.5 -9t-10.5 -10q-13 -3 -20 -6q-5 1 -16 2t-17 2q-6 19 -10 25q-14 7 -23 10q0 3 -2.5 11t-3.5 10v2q0 2 -4 6q-16 16 -2 41q17 33 29 67q2 7 59 162q39 100 74 174q95 201 104 221q17 35 45 101 q3 9 9.5 27.5t9.5 27.5q16 48 33 106q13 30 22 56q3 9 8 29t8 30q18 56 29 72q1 1 2 3t2 3q19 16 19 39q12 12 14 16q3 1 8 2t8 2q14 6 29 0q5 -3 18 -7t19 -7q1 -4 2.5 -9t4 -13t3.5 -13q14 -8 14 -30q9 -33 15 -46q30 -120 61 -217q5 -18 13 -52.5t10 -43.5q1 -5 12 -72 q8 -56 10 -79q1 -2 6 -17q4 4 8 12t5 9q37 82 45 104q7 20 23.5 60.5t23.5 60.5q10 23 29.5 70t29.5 71q33 88 41 113q19 47 39 106q5 15 15.5 46t15.5 47q3 9 8 14q0 4 8 20q1 1 3.5 5t4.5 6h15q18 12 22 14q0 -2 2 -2q2 4 6 4.5t7 5.5h12q2 -4 8 -3.5t8 -2.5q2 0 7 1t6 1 q5 -2 17 -5t17 -5t14 -8.5t13 -8.5q0 1 8 5q3 -3 8 -13v-4q-11 -25 -8 -55q0 -92 4 -137q1 -30 7 -84t8 -74q4 -14 4 -47q4 -16 4 -25q0 -3 -1 -11.5t-1 -12.5q0 -10 1 -31t1 -33q-1 -13 -3 -37t-3 -37v-20q-2 -16 -3 -33t-1.5 -37.5t-1.5 -31.5q-1 -7 -1.5 -29t-2.5 -33 q-3 -33 2 -139q2 -33 2 -98q1 -13 2.5 -34.5t2.5 -40t1 -34.5q1 -16 1 -49.5t1 -50.5q-3 -37 0 -74q0 -32 -10 -45z" />
<glyph unicode="n" horiz-adv-x="944" d="M1081 1352q-10 -17 4 -23q16 -6 19 -22q2 -4 8 -10.5t8 -10.5q4 -4 4 -12v-17q0 -29 11 -40q4 -2 -2 -15q-5 -25 -5 -31q2 -26 -16 -94q-5 -21 -15.5 -62t-15.5 -61q-22 -80 -24 -90q-22 -86 -29 -141l-24 -141q-1 -8 -3.5 -21.5t-3.5 -17.5q-23 -137 -24 -140 q-2 -21 -9.5 -59t-9.5 -49q-3 -20 -9.5 -54t-11.5 -62.5t-9 -53.5q-3 -43 -17 -80v-12q0 -23 -24 -35q-2 -2 -7.5 -6t-7.5 -6q-16 -16 -18 -17q-13 -9 -30.5 -7.5t-26.5 13.5q-29 41 -31 43q-2 3 -8.5 8.5t-8.5 8.5l-10 10q-4 13 -15 37t-15 37q-11 34 -33.5 100t-34.5 100 q-7 22 -21.5 71.5t-23.5 74.5q-20 58 -33 104q-4 15 -16.5 40t-16.5 40q-2 10 -9 27t-9 24q-4 18 -32 59.5t-32 61.5q-6 18 -6 23q-1 0 -3 -1t-3 -1q-1 -4 -6 -29q-1 -6 -3 -18.5t-3 -18.5q-27 -110 -39 -211q-5 -27 -14.5 -82.5t-14.5 -83.5q-3 -12 -17 -75.5t-20 -96.5 q-4 -31 -24 -98q-3 -9 -11.5 -27.5t-11.5 -27.5q-6 -36 -28 -64q-14 -17 -31 -24q-6 -3 5 -6q1 0 4 -1l6 -1l-3 -1q-1 -3 -4 -9t-4 -9q-6 0 -17 -1t-16 -1q-3 5 -11.5 16t-13 21t-3.5 22q-3 -1 -8.5 -3t-8.5 -3h-14q-3 5 -11.5 18.5t-11.5 20.5q-2 0 -8 -1t-8 -1 q-12 6 -8 14q8 17 -8 37q6 16 6 47q0 10 2 32t2 34q1 22 2.5 45t6 52t7 44.5t9 52t8.5 46.5q11 74 20 116q3 17 11.5 51t11.5 52q5 29 20.5 86.5t20.5 85.5q3 15 6 43t4 37q10 98 33 170q19 79 34 122q4 28 29 31q8 0 14 6q8 4 19 15q8 12 35 57q2 0 2 2h4q10 -6 14.5 -5 t11.5 11q1 2 11 12q4 -8 8 -10l-2 -4q4 -14 8.5 -16t19.5 2q16 4 62 -6q3 -7 14.5 -16t14.5 -15q13 -18 53 -45q14 -7 14 -21q4 -26 19 -145q2 -12 4 -35t5 -41.5t9 -34.5q1 -5 3 -11t5 -13.5t4 -11.5q5 -15 16.5 -43.5t16.5 -42.5q3 -9 11.5 -37t13.5 -45q2 -16 5 -49.5 t5 -49.5l6 -30q4 -14 13.5 -39.5t13.5 -38.5q0 -3 1.5 -5.5t4.5 -6.5t4 -7q4 15 8.5 38t5.5 26q3 26 23 131q3 14 9 40.5t11 48t10 40.5q1 5 10.5 38.5t14.5 51.5q23 97 45 178q12 48 23 72q7 16 15 48l9 36q11 45 31 65q17 17 29 17q10 0 16 2q25 5 28.5 4.5t22.5 -10.5h2 h6z" />
<glyph unicode="o" horiz-adv-x="759" d="M434 41l-7 -7q-1 0 -3 3q-4 7 -14 2q-13 -1 -35 -4t-33 -4q-47 -7 -72 8q-10 4 -47 31q-1 1 -41 34q-9 9 -17 21.5t-12.5 21.5t-12.5 26t-11 24q-13 27 -16 36l-3 5q-3 5 -1.5 8t6.5 8q2 4 0 4q-5 3 -1 19t3 20v12q-11 -3 -13 -6l-2 2q8 11 0 19l-6 18q-8 56 6 137 q12 82 43 172q10 32 31 93.5t31 93.5q23 59 39 104q15 38 30 72q8 18 23 53.5t23 54.5q5 13 16.5 36.5t15.5 31.5q2 5 6 9t7.5 6t9.5 5l8 4q6 3 8 5q2 -2 5 -6.5t5 -6.5q9 19 17 29h2l-6 -18q9 -6 14 8q7 20 29 35q7 4 21.5 12t21.5 12q11 8 14 23q-6 0 -10 4l2 4 q51 26 84 31q11 0 26 -3q25 -9 56 3q6 3 12 0q51 -26 74 -80q8 -22 26 -47q15 -25 19 -33q33 -70 59 -160q3 -12 6 -37.5t4 -32.5v-8q13 -42 5 -127q-10 -121 -33 -209q-23 -103 -53 -159q-1 -2 -13 -21q-1 -3 -5.5 -11t-6.5 -11q-8 -26 -25 -41q-3 -3 -8 -13 q-7 -12 -21.5 -36t-21.5 -37q-7 -10 -25 -31.5t-26 -34.5q-21 -29 -82 -86q-1 -1 -5.5 -6t-7 -7.5t-7 -5.5t-8.5 -4.5t-9 -1.5q-4 -6 -9.5 -10.5t-14 -9t-11.5 -6.5q-8 -5 -24.5 -15.5t-24.5 -15.5q-6 -3 -6 -8h2zM705 723v18q1 6 2 19.5t2 19.5q15 78 6 150q-8 45 -35 119 l-6 18q2 8 0 12.5t-6.5 8.5t-5.5 6q-7 12 -27 8q-31 -3 -57 -21q-12 -6 -17 -6q-12 -3 -37 -6q-10 0 -12 6q-2 10 -14 -2q-2 -3 -5.5 -8t-5.5 -8q-29 -65 -45 -92q-23 -42 -39 -91q-12 -31 -33 -92.5t-32 -91.5q-5 -18 -18.5 -52t-18.5 -52q-30 -123 -41 -176 q-10 -42 -6 -103q4 -69 49 -76q4 0 2 -2q18 -15 47 -8q15 4 68 27q2 2 10 6q2 4 19 16q8 8 26 24.5t30.5 29.5t22.5 28q68 93 88 135q10 21 9 23q0 8 8 20q39 85 47 115q4 14 12.5 39.5t12.5 38.5z" />
<glyph unicode="p" horiz-adv-x="925" d="M219 61q-12 24 -8 37q1 4 -1.5 13t-2.5 12q10 80 29 147q8 34 36 133.5t39 153.5q9 37 88 401q6 29 17.5 88.5t17.5 88.5q3 14 9.5 39.5t9.5 39.5v37q-11 -1 -28 8t-26 5q-27 -11 -28 -11q-47 -11 -68 33q-10 18 -14 45q-1 7 -1.5 11.5t0.5 9t1.5 6.5t3.5 6.5t4.5 6.5 t7 8t8.5 10q5 5 15.5 15t15.5 15q7 7 14 11.5t17.5 8t14 4.5t18.5 4t16 3q2 1 7.5 1t8.5 1q52 16 119 16q15 0 30 -1t33.5 -2.5t28.5 -2.5q32 -2 115 -24q26 -9 80 -37q7 -3 65 -39q3 -2 9.5 -7t9.5 -7q72 -53 98 -91q25 -32 35 -63q28 -72 33 -131v-59q-2 -11 -6.5 -33 t-6.5 -33q-6 -18 -41 -64q-3 -3 -11 -12.5t-10 -12t-8.5 -10t-9.5 -10l-9 -7.5t-11 -8t-12 -7t-15 -8q-45 -22 -208 -80q-10 -3 -34.5 -11.5t-35.5 -11.5q-22 -6 -62.5 -10t-62.5 -10q-20 -4 -28 -15t-13 -34q-6 -17 -24 -54t-23 -57q-9 -33 -26.5 -97t-26.5 -97 q-13 -43 -23 -101q-8 -56 -18 -84q-17 -38 -19 -65q0 -12 -8 -17q-4 -4 -3.5 -12.5t-0.5 -15.5q-1 -4 -5.5 -6.5t-6.5 -0.5q-3 2 -7 5t-7 4.5t-7 3t-8 0.5q-2 0 -6 4q-2 2 -7 5t-7 5q-6 7 -24.5 11t-21.5 5q-2 0 -7 -1t-7 -1zM649 1237q-1 -2 -11 -6q-9 -3 -9 -5q0 -1 2 -1 q2 3 7.5 6t9 4.5t1.5 3.5q4 -3 -5.5 -12.5t-6.5 -12.5q4 -8 3 -13.5t-5.5 -15.5t-5.5 -16q-1 -4 -0.5 -15t-1.5 -15q-5 -15 -18.5 -54t-20.5 -61q-4 -11 -11.5 -32.5t-11.5 -33.5q-13 -44 -20 -61q-4 -8 7 -19.5t23 -17.5q15 -7 54 4q164 29 235 58q46 20 56 26q19 10 22 25 q0 6 4 26q4 30 -19 77.5t-46 74.5q-29 37 -113 76q-42 23 -100 26q-15 0 -23 -8q0 -4 4 -8z" />
<glyph unicode="q" horiz-adv-x="1280" d="M981 -31q3 -2 8 -7t8 -7q25 -23 84 -74q15 -11 13 -24q-1 -3 4 -13q9 -14 -2 -34q-17 -28 -17 -29q-5 -19 -30 -33q-2 -2 -4.5 -4t-5 -3.5t-5 -5t-4.5 -7.5q-3 -8 -13.5 -13t-17.5 -2q-4 0 -16 4q-11 5 -34.5 15.5t-35.5 15.5q-49 27 -55 33q-8 5 -15 12t-17.5 20 t-12.5 15q-12 12 -14 20q-13 9 -25 7l-33 -11q-106 -26 -147 -26l-8 1q-8 1 -8 -1q-90 -16 -177 32q-5 2 -16 8t-18 7q-44 14 -76 51q-58 51 -107 158q-30 64 -49 121q-24 58 -31 137q-2 17 1.5 50.5t3.5 45.5q4 40 4 59q0 52 24 154q3 8 9.5 24.5t9.5 24.5q14 33 40.5 98.5 t39.5 98.5q19 47 47 84q10 14 27.5 41.5t27.5 40.5q68 101 108 141q7 7 21.5 17.5t17.5 13.5q8 6 25 17.5t25 17.5q16 12 143 106q15 10 74 41q24 16 43 23q22 9 65 20q6 2 19.5 5t19.5 5q56 14 98 6q1 -1 6.5 -2.5t6.5 -3.5q5 -6 12.5 -9.5t21 -6t15.5 -2.5q30 -4 67 -37 q18 -18 31 -41q23 -36 29 -49q45 -92 53 -176q6 -70 41 -133q3 -8 8 -26t8 -26q2 -7 6.5 -21.5t6.5 -21.5q3 -8 8 -24t8 -23q2 -2 2 -8q10 -11 17.5 -39.5t11.5 -36.5q8 -10 8 -45v-84q3 -78 -27 -157q-40 -99 -80 -170q-8 -13 -20.5 -34.5t-23 -38.5t-21.5 -32 q-16 -22 -84 -104q-29 -34 -35 -47q-26 -40 -78 -82q-8 -8 -10 -9q0 -4 -4 -8zM696 336q2 -1 7.5 -3t7.5 -3q14 -2 22 -19q1 -4 4 -11t4 -11q21 -32 31 -56q10 -36 49 -96q9 -15 23 -26q10 -6 14.5 -5t13.5 13q6 6 17.5 20.5t17.5 20.5q72 77 142 200q0 1 49 101 q46 98 57 176q7 76 2 127q-8 45 -6 67q0 72 -29 164q-3 8 -10.5 28.5t-11.5 31.5t-9.5 28t-9.5 32.5t-6 31.5q-13 54 -20 76q-13 48 -54 61q-6 1 -16 6l-12 6q-7 2 -20.5 7.5t-20.5 7.5q-21 4 -23 14q-3 5 -8 8q-25 6 -22 41q-4 -2 -15.5 -5t-15.5 -5q-42 -21 -49 -25 q-71 -36 -107 -75q-16 -16 -28 -23q-16 -10 -47 -30.5t-46 -30.5q-40 -29 -63 -62q-11 -14 -34 -44t-34 -44q-4 -6 -14.5 -19.5t-15.5 -19.5q-8 -14 -25 -41t-25 -41q-35 -67 -38 -75q-5 -19 -26.5 -79t-27.5 -93q-3 -17 -11 -49t-11 -48q-7 -27 0 -47q5 -9 7 -27t3 -22 q7 -34 4 -84q0 -10 10 -25q3 -8 13.5 -21.5t13.5 -19.5q10 -17 31 -65q3 -5 14.5 -29t16 -33t14 -27t18.5 -31t19 -25q44 -54 106 -62q51 -7 125 -4q10 5 14 6q-7 22 -14 33q-29 59 -31 106q0 13 4 37q7 36 15 62q6 19 12 22q9 9 16 23q1 2 6 5t7 5q3 -1 8.5 -9.5t13.5 -6.5 q1 2 2 5t2 5z" />
<glyph unicode="r" horiz-adv-x="880" d="M119 -63q-9 -3 -15 0q-9 9 -24 6q-8 8 -12 14q-3 1 -12 2t-13 2q1 2 12 35q-8 0 -20 4q-3 15 10 59l-2 2l2 -2q-5 5 -2 11q1 4 2 11.5t2 12.5q2 0 4 -2q3 4 2.5 10t1.5 9q1 3 3.5 12t2.5 14q5 23 17 65t14 52q13 54 33 125q22 84 27 121q5 27 16 76t19.5 90t13.5 77 q0 6 1 20t1 21q1 3 -4 31q0 2 4 6q9 15 12 37q8 63 14 98q-1 2 0.5 7.5t1.5 7.5q-1 14 2 29.5t8 36t7 32.5q2 3 8 10.5t8 10.5h-14q0 16 2 22q3 18 8 51.5t8 50.5q2 13 6.5 36.5t6.5 35.5q2 8 12 76q0 14 2 22q4 8 4 13q4 10 4 30q2 2 6 6.5t6 6.5q1 3 2 8t2 8h3q3 9 12 25 t12 24q9 3 37 11q2 2 6 7t6 7q0 4 -2.5 5.5t-6 2t-5.5 2.5q2 2 5.5 4.5t4.5 3.5q1 2 4.5 8.5t5.5 8.5h2l1 -1q-2 1 -3 1q40 14 119 26q65 8 142 -2q28 -4 40 -4q21 -3 31 -6q2 -1 8.5 -4.5t8.5 -5.5q4 3 12.5 0.5t11 -3.5t10 -5t9.5 -5q38 -21 49 -38q5 -5 8 -5 q21 -3 18 -24q6 -3 11 -8q4 -8 12 -24.5t12 -24.5q18 -11 21 -33q-3 -13 6 -17q4 0 8 -2q-8 -5 -8 -8q-5 -10 4 -10q2 -5 5 -15.5t5 -15.5q-11 -11 0 -16q0 -2 -2.5 -7.5t-3.5 -7.5q4 0 8 -4q4 -12 -4 -20h2q-1 -9 -6 -59q-5 -56 -35 -123l-14 -35q-11 -35 -39 -70 q-10 -7 -22 -23.5t-17 -21.5l-29 -29q-42 -37 -61 -45q-11 -5 -30.5 -16.5t-22.5 -13.5q-10 -6 -21 -4q-16 -12 -26 -17v2q-8 -3 -27 -8q-8 -2 -26.5 -8t-32.5 -9.5t-27 -4.5q-1 0 -4 -1.5t-4 -1.5q-29 -11 -47 -16q-6 -10 2 -18q30 -34 47 -58q3 -5 20.5 -30t24.5 -41 q3 -6 12 -17.5t12 -17.5q1 -3 18.5 -31.5t24.5 -44.5q6 -10 17.5 -29.5t17.5 -29.5q4 -11 21 -37q30 -50 35 -60q0 -2 4 -6q9 -11 24.5 -35.5t26.5 -35.5q10 -15 26 -43q24 -31 43 -58q25 -33 27 -47l2 2q8 -8 4 -14q-1 -2 -5.5 -7t-6.5 -8q-2 -8 -7.5 -15.5t-15.5 -17.5 l-14 -14q-2 1 -5 3.5t-5 3.5l-1 -2q-2 -3 -4 -4.5t-5 -2.5q2 -1 3.5 -4t2.5 -4l-4 -2q-13 0 -19 -2q-3 -1 -9 -4.5t-9 -5.5q-12 4 -17 4q-58 53 -114 147q-11 16 -23 47q-1 2 -8 9q-4 8 -8 24q-4 2 -13 2q-14 17 -14 43q-1 0 -4.5 1t-5.5 1q-3 6 -14 24t-15 28q0 2 -1 7.5 t-1 8.5q-4 12 -4 18l-14 7q0 2 -1 6t-1 6q-10 6 -17 15t-14.5 26.5t-9.5 21.5v-2q-1 2 -29 41q-58 76 -78 101q-3 2 -8 7t-8 7q-4 -2 -10 -19q-2 -12 -17 -86q-31 -149 -37 -172q-11 -46 -22 -71q-23 -71 -27 -92q-4 -18 -16 -58q-5 -15 -19 -74q-4 -12 -6 -14t-2 -4 q0 2 2 4q0 -2 1 -6t1 -6q0 -13 -4 -29q-6 -9 -20 -37q-9 -12 -21 -24q-4 -6 -22 -10h2zM244 1008v-2v2zM702 1059q31 22 50 53q30 44 47 111q2 4 2 16q1 8 0 23.5t0 23.5q-3 34 -21 55q-33 33 -61 45q-44 21 -119 25q-28 2 -82 -2q-6 0 -24 -6q-5 -1 -15.5 -4t-15.5 -4 q-1 -1 -9.5 -4.5t-13.5 -8.5q-1 -7 -24 -163q-20 -134 -23 -166q-19 -123 -20 -162q2 -1 3.5 -2.5t2.5 -1.5q27 0 39 4q22 5 59 16q11 4 32 12.5t32 12.5l12 6q0 1 -1 2t-1 2q-23 0 -33 2q8 3 23.5 10.5t23.5 10.5q4 2 58 26q2 1 5 3t5 3q10 11 18 13q21 9 58 37 q1 1 3.5 4.5t4.5 5.5q-11 0 -15 2zM633 920q5 10 3.5 13t-11.5 3q-7 -5 -4 -14q3 -6 12 -2zM285 1276v-2q0 2 2 2h-2zM666 848l2 2z" />
<glyph unicode="s" horiz-adv-x="690" d="M59 285q7 3 18.5 9t20.5 10.5l17 8.5q3 4 3 15.5t3 17.5q5 9 -4 37q-3 14 4 23t20 8q4 0 7 2t6 5t6 5q3 -3 10 -8t10 -8q56 -49 123 -52q63 -5 90 2q106 27 146 127q6 16 10 70q-7 7 -9.5 27.5t-9.5 27.5q-15 18 -73 68q-4 3 -16.5 13.5t-17.5 15t-15.5 14t-16.5 16 t-14.5 15.5t-14.5 18t-12 19q-19 34 -39 79q-6 9 -6 21q-15 88 -16 104q-5 87 -2 113q13 86 20 119q18 86 84 159q11 11 15 17q28 50 96 67q20 5 45 5q12 -1 57 12q6 2 12 2q40 -4 54 -8q27 -6 55 -6q20 1 40 -4.5t43 -14.5t36 -12q5 -1 10 -4.5t11 -10.5t7 -8q-5 -11 3 -25 t8 -20q3 -7 -2 -12q-7 -12 2 -29q-7 -16 -25 -45q-30 8 -33 8q-6 -21 9 -34q-13 -1 -32.5 -3.5t-27.5 -3.5q-2 -2 -10 -14q-7 1 -18 4t-15 4q-61 15 -104 6q-4 -1 -15 -3t-19 -4.5t-15 -6.5q-27 -18 -31 -22q-82 -105 -70 -220q2 -17 11 -33t17 -24t25 -24q35 -28 84 -70 q0 -1 3.5 -3.5t3.5 -4.5q0 -9 5 -14.5t13.5 -10.5t11.5 -8q23 -23 43 -61q6 -10 14.5 -32.5t10.5 -27.5q22 -49 22 -96q-1 -6 9 -41q5 -20 0 -29l-5 -6q5 -10 5 -22.5t-2.5 -21t-7.5 -23t-7 -21.5q-3 -9 -9 -19t-17.5 -24.5t-14.5 -19.5q-4 -7 -11.5 -21.5t-10.5 -19.5 q-30 -57 -61 -96t-79 -66q-60 -34 -81 -39q-3 -1 -18.5 -4t-24.5 -4q-5 0 -47 -7.5t-62 -1.5q-6 2 -18.5 2t-16.5 1q-2 1 -50 7.5t-71 16.5q-10 5 -22 17q-32 48 -39 57q-8 11 0 24q4 11 -2 17q-17 34 -19 37zM530 1462q-28 0 -34 -2.5t-13 -19.5q3 1 11 2.5t13 3t11.5 6 t11.5 10.5zM733 440h-8q0 -4 -6 -16q2 -2 6 -2q4 6 8 18z" />
<glyph unicode="t" horiz-adv-x="1239" d="M348 1458h86q13 0 36.5 3.5t33.5 4.5q9 1 26 1t25 1q197 0 338 5q33 0 203 10q34 1 100 2t100 2q34 3 72 6q54 0 64 -25q11 -28 43 -28q2 0 10 -4q-9 -17 -10 -23q-12 -26 2 -47q11 -14 2 -33q-14 -14 -17 -20q-17 -27 -43 -27q-8 0 -24 -1t-26 -1t-24 -2t-26 -6 q-13 0 -19 2q-11 4 -32 0q-22 -4 -59.5 -7.5t-43.5 -4.5q-37 -6 -69 -6q-11 -1 -34 -2.5t-34 -2.5h-24q-4 -12 -5 -14q0 -3 -6 -45q-9 -35 -12 -63q-4 -29 -11.5 -85.5t-11.5 -84.5q-4 -61 -20 -168q-4 -29 -12.5 -88t-12.5 -89q-30 -182 -53 -296q-3 -13 -24.5 -99 t-30.5 -131q-16 -70 -27 -102q-10 -33 -51 -51q-1 -1 -5 -1t-5 1q-11 9 -43 14q-7 0 -10 6q-13 25 -13 27q-7 18 -18 22q-2 2 -6 10q-10 45 -11 54q-1 4 5 39q2 9 20 82t29 112q21 76 24 178q0 56 11 146q2 35 2 104q-12 107 -5 172q1 8 6.5 31.5t6.5 34.5l6 57l6 57 q1 23 4 71t4 73q1 11 -1.5 13.5t-14.5 2.5q-41 2 -123 2q-19 -4 -27 10q-7 7 -12 7q-50 4 -72 4q-71 0 -106 2q-41 3 -60 35q-2 4 -8 10q-10 13 -10 28q0 3 -6 27q-3 27 14 47q2 3 10 10t9 13q0 1 2 2t2 2q16 0 16 14z" />
<glyph unicode="u" horiz-adv-x="720" d="M782 492q-1 -17 -9.5 -47.5t-10.5 -38.5q-1 -3 -3 -10.5t-3 -10.5q-4 -22 -11 -37q-4 -6 -6.5 -13t-4.5 -16.5t-3 -13.5q-4 -16 -12 -46.5t-12 -45.5q-16 -43 -41 -78q-46 -54 -70 -78q-50 -47 -102 -71q1 1 2.5 3.5t3.5 4.5q-2 1 -21 -4q-21 -7 -35 -2q-8 2 -26 2 q-10 1 -28 1.5t-33 1.5t-29 3q-40 3 -78 18q-37 15 -49 43q-26 71 -23 162q1 14 1 42t1 42q5 63 8 78q4 24 14 71t11 54q12 74 8 108q0 67 15 181q3 32 16 120q0 11 -4 35q4 70 4 107q0 23 2 33q0 21 6 45q3 8 4.5 22.5t3.5 20.5q0 1 6 43q6 17 2 22q-2 2 -2 8q13 40 13 95 q3 24 14 40q2 4 6 12.5t6 12.5v2q8 5 20 20.5t21 22.5q0 -15 4 -43q10 10 11 12q3 -7 9 -24t11 -25q25 -35 27 -67q0 -11 2 -19q2 2 4 6.5t4 6.5l-2 -3v-34q-20 -143 -23 -170q-2 -16 -4 -46.5t-4 -45.5t-7 -46.5t-7 -46.5q-5 -28 -15.5 -82t-15.5 -81q-2 -17 -5 -50.5 t-5 -50.5q0 -7 -1.5 -18.5t-3.5 -24.5t-3 -18q1 -30 3 -89t3 -89q1 -17 -3.5 -49t-4.5 -46q0 -1 1.5 -53.5t-1.5 -54.5q-1 -8 4.5 -11.5t17.5 -3.5h21q13 1 39.5 1.5t40.5 1.5q1 0 9 -1t16.5 -0.5t17.5 3.5q2 0 6 8q6 15 24 48t23 50q6 23 20.5 66.5t20.5 66.5 q4 18 14.5 69.5t18.5 80.5q4 16 7.5 45t4.5 33q17 73 33 157q3 20 8 62.5t8 64.5q4 35 16 105q16 115 11 211q1 10 0.5 29.5t0.5 36t5 32.5q2 5 7.5 25t10.5 32q10 0 10 -2q7 27 16.5 36.5t39.5 18.5q5 -2 14 -5t14 -5v-6l2 -2q16 4 19 -8q2 -2 7 -6t7 -6q3 -2 8 -11 q0 -4 4 -4q9 0 9 -12q2 -14 2 -45q0 -8 -4 -12q-7 -10 -7 -37q-1 -22 -2 -65.5t-2 -65.5q0 -15 -4 -47q-3 -61 -12 -123q-1 -7 -4.5 -64.5t-7.5 -87.5q-6 -31 -13.5 -88.5t-9.5 -71.5q-8 -72 -18 -106q-16 -53 -19 -100z" />
<glyph unicode="v" horiz-adv-x="946" d="M1092 1364l4 -16q26 10 28 12q3 3 5.5 7t6.5 11t7 11v-19q0 -5 1 -7.5t2 -2.5t6 -1q1 0 2.5 -0.5t2.5 -0.5q17 -4 17 -12q2 -3 -7 -25q0 -5 4 -21q0 -1 1.5 -4t1.5 -4q-5 -6 -6.5 -14t-0.5 -14.5t0 -14.5q-5 -25 -8 -30q-33 -72 -47 -119q-1 -4 -6 -12.5t-6 -12.5 q-5 -18 -21 -65q-5 -14 -14 -41.5t-14 -42.5q-23 -65 -23 -66q-7 -17 -21.5 -52t-21.5 -52q-1 -4 -24 -80q-3 -8 -13.5 -35t-15.5 -41q-18 -44 -21 -59q-7 -38 -41 -125q-34 -80 -69 -162q-5 -11 -37 -98q-2 -6 -10.5 -22t-10.5 -25q-2 -8 -2 -29q0 -29 -6 -45v-4 q-6 -4 -9.5 -10.5t-5 -10t-3 -12.5t-2.5 -12q-9 -40 -45 -60q-13 6 -20 3.5t-13 -15.5q-9 -12 -12 -25q-3 -20 -19 -26q-12 -5 -20 8q0 1 -3.5 6t-4.5 8q-26 -5 -37 23q-16 37 -19 72q-2 29 -10 92q-42 287 -47 325q-5 40 -16.5 120t-16.5 120q-4 17 -29 100q-25 86 -71 258 q-7 30 -20.5 89.5t-20.5 89.5q-2 10 -9.5 29t-9.5 24q-10 19 -2 28l2 5q-1 12 3.5 24t11.5 25.5t10 21.5q2 4 2 12q4 1 9.5 5t6.5 4q-1 3 -1 8t-1 8q40 16 45 43q3 3 14.5 5.5t14.5 10.5q8 0 10 -2q9 18 11 23q3 -5 8 -13t6 -10q1 0 3 1t3 1q-2 6 -2 21q20 -3 31 -18 q22 -27 24 -29l6 12q2 0 2 -2q5 -12 23 -49q2 -6 18 -10q4 -2 13 -5t10 -4q13 -26 14 -30q1 -8 4 -23.5t4 -23.5q3 -68 23 -148q1 -7 2 -22.5t2 -22.5q2 -19 7 -55.5t7 -54.5q1 -8 3.5 -25t3.5 -25q0 -6 12 -108q15 -90 20 -109q2 -13 35 -153q0 -2 2 -21.5t4 -29.5 q4 -14 6 -29q26 29 41 59q49 106 68 180q6 27 31 84q26 55 49 127q35 94 59 144q28 68 43 117q1 2 29 67q7 15 51 100q1 3 4 6t7.5 8t7.5 9z" />
<glyph unicode="w" horiz-adv-x="1343" d="M303 1395q-6 16 2 30q2 3 6 23q14 21 17 25q20 12 28 18q34 0 52 2q8 -9 47 -18q3 0 6.5 -2.5t5.5 -2.5q2 -6 5 -18.5t5 -19.5h2q-4 -16 -4 -25q-6 -22 2 -41q4 -6 4 -27q-4 -132 -4 -198q-2 -46 2 -137q2 -39 2 -117v-105q-1 -31 -2 -93t-2 -93q0 -28 -1 -82t-1 -82 q0 -12 2 -22q8 11 8 14q10 23 31 70.5t31 70.5q4 9 11 29t11 29q8 21 30 72.5t32 78.5q8 20 23.5 60t23.5 59q3 7 21 47t26 61q26 69 37 107q15 40 18 49q2 2 11.5 17.5t15.5 23.5q27 9 39 19q8 8 26 4l11 -11q33 -3 49 -6q23 -9 20 -33q-2 -7 2 -16q6 -9 11 -43 q2 -8 12 -100q2 -22 4 -64t2 -45q14 -131 31 -215q3 -26 13.5 -72.5t12.5 -58.5q3 -8 11.5 -22.5t11.5 -20.5q2 4 4 11t4 10q23 66 37 102q4 14 14.5 39.5t14.5 36.5q19 32 30 63q43 91 66 148q31 66 67 161q43 102 52 127q9 23 28.5 70.5t28.5 71.5q6 14 39 47q6 8 22 20 q4 1 11.5 3t11.5 3q5 0 15 -1t16 -1q5 -6 12 -28q9 -3 25 -11q4 -6 8 -22v-2q1 -1 2 -3t2 -3q16 -19 4 -45q-12 -20 -33 -72q-12 -32 -63 -176q-50 -125 -80 -191q-19 -41 -115 -237q-7 -18 -47 -111q-4 -9 -20 -57q-6 -19 -18.5 -58t-18.5 -59q-3 -10 -10.5 -29.5 t-10.5 -29.5q-7 -16 -20 -66q-16 -53 -31 -75q0 -5 -4 -9q-21 -18 -21 -41q-3 -3 -8 -9t-8 -9q-2 -1 -7 -2t-7 -2q-18 -6 -33 0q-15 8 -41 14q-6 15 -12 39q-12 9 -15 33q-2 8 -6 24.5t-6 24.5q-59 201 -68 236q-13 35 -24 104q-4 12 -14 76q-2 17 -6.5 46.5t-6.5 41.5 q-4 8 -4 16q-5 -3 -7.5 -6t-5 -8t-3.5 -6q-34 -78 -47 -115q-7 -19 -16 -40.5t-20.5 -48t-17.5 -40.5q-29 -83 -61 -156q-37 -91 -47 -118q-7 -21 -41 -119q-15 -50 -33 -99q0 -4 -8 -16q-1 -3 -2.5 -6t-4 -7t-3.5 -7q0 -3 -8 -11q-3 0 -8 -1t-7 -1q-4 -2 -12 -7t-12 -7 l-2 2q-3 -4 -7 -5t-6 -5h-16q-3 3 -9 2.5t-9 3.5q-2 0 -6 -1t-5 -1q-6 2 -19.5 5t-19.5 5q-4 2 -8.5 4.5t-10 6.5t-9.5 6q-3 0 -9 -3q-2 2 -5 6.5t-5 6.5v4q14 23 10 61q0 74 -6 148q-1 27 -16 170q-1 8 -2 25.5t-2 25.5q0 4 -1 13t-1 14v26v68q0 28 4 82q2 6 2 22l6 111 q0 25 4 65q2 44 2.5 52t-2 50.5t-2.5 49.5q-1 18 -2 53t-2 53q0 39 -4 117q-2 37 -2 111q0 14 -1 39t-1 39q0 4 0.5 14.5t2.5 18.5t7 16z" />
<glyph unicode="x" horiz-adv-x="1110" d="M662 928q6 6 8 10q18 37 68.5 188t64.5 183q23 57 69 143q5 8 11 15t17 17.5t13 12.5t7 3.5t6 0.5q16 -5 28 15q1 2 3 3.5t6 3.5l6 3q11 -15 22 -23q1 0 2 1t2 1q3 1 8 4t7.5 3.5t7.5 -1.5t6.5 -5t-1.5 -10l-3 -7q-3 -15 4 -29q7 -24 -4 -45q-9 -22 -27.5 -65t-27.5 -64 q-52 -117 -60 -137q-38 -107 -41 -113q-9 -20 -59 -118q-24 -41 -6 -74q20 -40 82 -197q78 -189 110 -289q13 -46 45 -127.5t41 -107.5q4 -9 8 -35q0 -3 -3.5 -11t-4.5 -11q-1 -2 -4 -9t-4 -12q-11 -66 -12 -68q0 -6 -8 -10q-20 -20 -23 -41q-3 -17 -14 -24q-8 0 -19 -1 t-16 -1q-2 1 -7 1.5t-8.5 1.5t-5.5 3q-5 4 -12.5 7t-16.5 6t-14 5q-2 -4 -7 -11t-7 -11q-15 10 -16 12q-13 22 -45 77.5t-50 84.5q-23 37 -48.5 114.5t-37.5 104.5q-15 35 -56 99.5t-56 101.5q-6 6 -6 10q-8 -8 -11 -14l-57 -108l-57 -108q-5 -10 -14.5 -31.5t-14.5 -31.5 q-51 -79 -82 -135q-9 -13 -23 -38t-18 -32q-7 -14 -18 -22q-3 -3 -10.5 -10t-12.5 -11.5t-10 -12t-8 -15.5q-4 -10 -37 -48q-3 -4 -8 -11t-8 -11q-15 -23 -45 -45q-2 -2 -19 -8q-6 -2 -16 -2q-2 0 -11 -1.5t-12 -0.5q-2 2 -6.5 5.5t-7 6t-5 7t-3.5 9.5q-2 4 -5 8t-7.5 9 t-6.5 8q-11 8 -8 26q5 32 25 70q42 78 53 115q11 32 43 61q39 34 65 107q32 89 111 213q29 45 80.5 130t60.5 99q13 20 6 43q-10 23 -29.5 69t-29.5 68q-29 76 -33 90q-20 53 -78 224q-24 82 -32 147q-3 19 10 39q5 7 14 19t17 22t16 18q22 23 45 25q18 0 37 16q8 4 33 13 q19 7 30 -4q6 -3 15 -3q25 9 41 -4q0 -2 4 -10q3 -10 7 -31.5t7 -31.5q6 -26 20 -98t27 -115q4 -39 20.5 -130.5t26.5 -111.5q4 -4 7 -10z" />
<glyph unicode="y" horiz-adv-x="903" d="M156 -133q-9 -9 -15 -12q-32 2 -14 34l49 95q15 30 21 39q38 63 96 170q17 28 50.5 76.5t47.5 70.5q39 55 88 141q37 59 72 117q13 20 2 31q-2 2 -5 7t-4.5 8t-5.5 4.5t-10 0.5q-2 4 -8 11.5t-8 11.5q-16 25 -39.5 74t-34.5 69q-9 18 -23 51.5t-18 42.5q-9 21 -18 39 q-10 20 -10 37q-1 10 -17 47q-28 53 -47 105q-2 8 -10 23.5t-10 19.5q-16 32 -9 55q1 7 -4 39q-1 8 3 15.5t10.5 17t9.5 14.5q4 -1 7.5 1.5t7 7.5t5.5 7q9 6 21 6t20 -6q6 -6 13 -2q1 0 4.5 -1t5.5 -1q29 -11 45 -41q7 -16 23.5 -48.5t23.5 -49.5q13 -27 27 -66 q11 -44 49 -106q36 -57 63 -137q7 -16 22.5 -45.5t22.5 -44.5q3 0 7 -4l24 36q44 57 102 174q61 110 84 142q19 23 27 41q6 9 17.5 28.5t17.5 28.5q22 33 24 37q22 30 33 51q5 10 13.5 18.5t21.5 18.5t18 14q1 2 4.5 2.5t8 0.5t6.5 1q5 2 15 2.5t16 2.5q4 2 9 2t11.5 -1 t9.5 -1l2 -3q1 -2 5 -6.5t5.5 -6t5 -6.5t3.5 -7.5t1.5 -8t-1.5 -8.5q-29 -95 -51 -135q-38 -75 -47 -90q-6 -12 -21.5 -37.5t-21.5 -38.5q-19 -37 -27 -47q-10 -11 -19.5 -25t-15.5 -25t-15 -29t-14 -27q-38 -69 -96 -182l-30 -52.5t-33 -60.5q-3 -6 -9 -23.5t-10 -27.5 q-3 -1 -6 -2.5t-5.5 -5t-3.5 -5.5l-3.5 -7l-3.5 -7q-59 -116 -86 -162q-35 -61 -80 -127q-19 -32 -64 -96q-4 -7 -10.5 -20l-9.5 -19q-12 -26 -27.5 -56.5t-27 -50.5t-32.5 -56t-30 -52q-8 -13 -29 -20q-7 -1 -19 -8t-19 -9q-2 1 -8.5 4.5t-10.5 5.5l-2 -2q-7 -6 -19.5 -1.5 t-17.5 1.5q-26 -10 -37 7q-5 5 -12 2q-10 -2 -16 10z" />
<glyph unicode="z" horiz-adv-x="1437" d="M512 270q-25 -21 -31 -37q8 -2 19 -2q16 1 51 3.5t55 3.5q103 8 160 14q20 2 43 5t51.5 7t44.5 6q60 8 131 15q20 4 29 4q31 5 106 17.5l117 19.5q3 -2 11 -9t12 -10q4 -1 9 -2t11.5 -2t9.5 -2q9 -9 28 -26.5t28 -26.5q-12 -16 -17 -21q-4 -2 -15 -5.5t-17 -6.5 q8 -4 20 -8q0 -4 -10 -17q15 6 20 11q4 -4 6 -8q1 1 4.5 5t5.5 6t5.5 4t7 1.5t6.5 -2.5q4 -3 7.5 -6.5t8 -8.5t7.5 -8q-7 -5 -45 -16q-19 -6 -21 -8q-19 -22 -47 -25q-4 -12 -4 -16q-4 -2 -11.5 -6.5t-11.5 -6.5q4 -2 13 -8q-59 -22 -111 -35l-6 -6q-8 -2 -26.5 -7t-26.5 -7 v2q-2 0 -72 -10q-10 4 -24 5t-23.5 0t-28.5 -3.5t-26 -3.5q-16 -1 -44.5 -6.5t-35.5 -6.5t-37 -6q-23 0 -33 2q-5 -1 -18.5 -5t-20.5 -5t-18 -3t-20.5 -1t-18.5 4q-9 -6 -20.5 -7t-21 1t-20.5 0q-2 -1 -16 -10q-10 5 -18 2q-56 -4 -84 -8q-23 0 -29 6q-8 5 -25 -2 q-2 -1 -8 -5.5t-8 -5.5q-16 -3 -46 -8t-44 -8q-7 -1 -20.5 -3t-20.5 -3q-16 -2 -46.5 -6t-45.5 -6q0 -1 4 -9h-19v3h-2q-18 -11 -55.5 -3.5t-50.5 5.5q-46 19 -49 61h-4h-7q-14 9 -14 10t-2 8t-4 11q-8 0 -14 -2l-7 6q-8 6 -10 10q-3 12 10 26.5t15 18.5q-8 4 -14 6 q2 5 6 10t9.5 10.5l8.5 8.5q2 4 25 31q7 10 10 26q0 4 -2 8q23 26 59 58q48 52 80 96q19 31 57 64q20 21 61 58t46 42q15 13 44.5 35t39.5 30q97 82 215 185q6 5 51 39q4 4 12.5 12t12.5 12q3 6 12 15q25 20 31 26q25 29 43 35q4 2 8 10q2 6 2 21q8 10 42.5 52t51.5 69 q-19 1 -65 6q-16 2 -33.5 4t-38.5 4.5t-33 3.5q-20 3 -59.5 9t-59.5 9q-13 2 -35.5 7.5t-35.5 7.5q-15 3 -41.5 10.5t-36.5 9.5q-14 3 -25 10q-14 10 -18 15q0 2 -1 7.5t-1 8.5q-3 1 -10.5 2t-10.5 2q-2 3 -9 13t-11 16q13 0 33 -4v4q-32 23 -45 31q-4 35 -25 49q0 17 16 24 l9 -18h34q1 2 -2 12q13 0 21 2q-1 3 -3 7.5t-3 7.5q35 5 41 6q4 6 16 18h10q25 3 68 -3t55 -7q20 -1 65 -4t70 -4q23 -1 70 -4t72 -4q15 -1 43.5 -4.5t44.5 -4.5q39 -1 114.5 -4t114.5 -4q16 0 51.5 2t53.5 2q39 0 112 15q10 4 31 0q10 1 30.5 3t30.5 3q2 -1 14.5 -12 t24.5 -11q3 -11 11 -34t10 -31q-2 -6 -11.5 -23t-13.5 -28q3 2 6.5 5.5t5.5 4.5q11 -4 23 -6q-12 -9 -70 -54q-9 -7 -28 -25.5t-31 -27.5q-107 -57 -152 -92q-4 0 -10.5 1t-11.5 1q-93 -69 -148 -107q-25 -16 -65.5 -51.5t-58.5 -48.5q-3 -2 -25 -24q-14 -15 -39.5 -42 t-38.5 -42q-2 -1 -8 -7q-19 -10 -37.5 -25t-44 -39.5t-33.5 -31.5q-6 -5 -18.5 -15.5t-18.5 -15.5q-24 -19 -51 -49l-18 -6q0 -1 1 -2t1 -2q-82 -78 -125 -117q-18 -3 -27 -9.5t-35 -35.5q0 -2 1 -7.5t1 -8.5v8q-6 -6 -17 -14t-18 -16t-10 -19q12 9 25 16zM1366 242q1 0 3 1 t3 1l-6 6l-4 -2q4 -4 4 -6z" />
<glyph unicode="&#xa3;" horiz-adv-x="841" d="M813 66q-1 -2 -4 -6.5t-4 -6.5l-8 -10l4 -10q3 -9 -15 -23q-5 -3 -13 -14t-7 -21q-2 -2 -4 -2q-12 -9 -60 -34q-37 -18 -104 -25l-8 -2q-62 -4 -103 -4q-43 0 -133 4l-12 2h-33q-23 0 -51 -4q-4 0 -12 -4q-23 20 -60 20h-10h-10h-16h-7h-6q-31 0 -61 -18l-19 -10l-10 24 l-24 -20l-19 14l6 12q15 27 10 54q-5 13 -10 49q-2 20 6 28q3 3 9 10t8 9v2q5 12 16 12q1 0 3 -1t3 -1h13q22 0 53 27q38 38 53 90q30 103 96 186q31 37 88 119q4 6 12.5 18.5t12.5 18.5q4 5 16 29l7 14l16 31l-33 -2h-4l4 22l-31 2h-22h-2h-21q-3 0 -9 -1t-9 -1 q-13 0 -21 4q-3 1 -8.5 2t-7.5 2q-27 7 -31 19q-5 13 -18 26l14 15l2 10q0 33 27 45q13 7 16 12l8 4q14 9 19 9q18 3 56 8t55 8l36 4q30 7 39 20q11 15 6 39q-12 56 -24 80l-6 13q-15 41 -41 77q-18 23 -25 76v6q-18 108 -16 150q5 36 10 49q3 12 7.5 25t11.5 30t10 25 l10 -4l12 18q4 4 4 8q2 2 4.5 6.5t4.5 6.5q4 5 14 18t16 21l2 2q22 4 39 18q10 10 27 14q65 21 98 27q20 4 33 4q12 0 18 -2q91 -20 127 -63q10 -10 4 -35l-24 -17l16 -18q6 -4 6 -23q-2 0 -6 4l-14 21l-21 -27l-6 -4h-2q-18 25 -63 41q-20 4 -31 4q-60 0 -102 -51 q-47 -53 -39 -139q7 -58 41 -148q2 -5 6 -16t6 -16q2 -13 10 -35q17 -40 25 -72q11 -25 14 -59q1 -4 6 -29l2 -14h15h8q2 0 7.5 -1t8.5 -1q6 0 8 2h29q26 0 76 -4q20 -4 33 -4q18 -2 43 -23q0 -18 20 -33l-20 -20l6 -21q-6 -2 -21 -2h-6h-18l-13 -24q-10 0 -16 -2 q-56 -9 -72 -9q-36 -2 -94 -32l-10 -6q-33 -16 -47 -62l-6 -12q-17 -34 -29 -64q-5 -10 -8 -22q-6 -9 -10 -21l-23 -55l6 2q-14 -24 -20 -31l-13 6l-39 -57l13 -6q-26 -41 -43 -76q-11 -15 -13 -22q-17 -24 -32 -62q-3 -5 -8 -14t-7 -12q-14 -31 -4 -50q9 -20 37 -20h14 q8 4 17 4q2 1 7 2t7 2q1 0 4.5 1t5.5 1q6 2 13 2h6q8 -4 14 -4q13 0 25 6h4q32 12 53 19l8 2q13 -8 41 -8q25 0 37 4q12 -16 17 -21q24 -10 26 -10q2 -1 7 -2t7 -2l9 -4l10 6q8 4 14 4h8q6 -2 17 -2q9 0 33 4q12 4 16 6q4 -4 4 -20v-8z" />
<glyph unicode="&#xa7;" horiz-adv-x="690" d="M786 659q-4 -30 -28 -75q-20 -11 -27 -29q-3 -7 -10 -10q-3 -3 -7.5 -8t-6.5 -7l-9 9l-18 -17q-6 -6 -8 -10l-10 -8l2 -12q2 -7 6 -9l4 -20q2 -14 10 -37l-2 -2l2 -4q-4 -14 -4 -41v-17q-1 -3 -2 -10t-2 -10q-8 -55 -14 -72l-13 -26q-18 -49 -37 -70q-17 -15 -32 -37 q-2 -2 -9.5 -10.5t-10 -11l-9.5 -9.5l-10 -10t-9.5 -8t-11 -8.5t-10.5 -7t-12 -6.5q-24 -15 -54 -25q-72 -27 -139 -49l-10 -2q-24 -8 -35 -8h-8l-4 2q-4 0 -13.5 1t-13.5 1h-8h-18q-44 0 -99 20q-10 0 -18 4l-4 4q8 12 2 23q-2 5 6 29q4 4 4 8q12 30 29 47q11 8 39 8h6h33 q18 -2 55 -2q54 0 88 10h6q60 15 92 33q33 20 46.5 42.5t13.5 55.5q4 43 -35 101l-4 22q0 6 -1.5 12t-3.5 10t-6 8l-6 6t-6.5 5t-5.5 4l-4 2q-51 35 -70 47q-35 22 -45 29l-24 18q-15 9 -25 19q-3 1 -11 4.5t-11 5.5q-1 0 -4 1t-5 1q-2 2 -4 2h-2l-6 6q-2 1 -8.5 7t-11.5 8 t-9.5 5.5t-9 10t-6 9t-6.5 12t-6 10.5q-1 6 -11 20v15v10q0 41 31 92q5 9 16.5 28.5t16.5 28.5q1 2 7 13.5t11 17.5q1 3 3 6t5.5 7t4.5 6q18 18 32 26q12 7 41 31q8 8 17 14q21 15 14 43q-2 6 -4 18t-2 13q-6 36 -18 70q-13 26 -5 59l2 8q7 61 23 105q8 25 45 92l4 4 q13 22 29 33l2 2q55 45 98 75q31 20 62 33q16 11 22 13q10 -5 14 -5q10 0 25 5q1 1 3 2t3 2q36 4 47 4q50 0 72 -51q6 -12 4 -21q-2 -6 -2 -16q-16 -8 -25 -19l-6 -6l-2 -6l-32 27l-9 -27l-6 2l-12 -16l-33 6l-6 -23h-16q-3 0 -5 2q-12 6 -30 6q-43 0 -62 -43 q-22 -42 -28 -82q-24 -147 96 -233l14 -10q103 -79 131 -107q15 -10 29 -35q2 -2 5 -7t5 -7q0 -19 13 -45q5 -16 8 -20v-29l-2 -4q-1 -20 -11 -101zM582 563l28 -14l2 37q4 16 4 24q8 55 -8 82q-6 9 -6 21q0 21 -20 53q-6 7 -16 21.5t-15 19.5q-6 11 -19 14q-24 5 -49 33h-2 q-16 18 -53 41q-4 8 -20 8q-22 0 -37 -22q-7 -10 -25 -33q-2 -3 -6 -9.5t-6 -9.5q-36 -48 0 -94q26 -33 55 -53q59 -37 72 -45q11 -6 39 -25q5 -3 16 -10t16 -10q3 -3 11.5 -8.5t11.5 -8.5q3 -1 6 -2.5l6 -3t4 -2.5q3 0 11 -4z" />
<glyph unicode="&#xa8;" d="M774 1190q12 96 78 180q30 39 66 39q6 0 15.5 1t14.5 1l6 2h13q51 0 51 -47q3 -25 16 -33q14 -10 6 -47v-12q-3 -21 -20 -82q-1 -7 -5 -20.5t-5 -18.5q-2 -10 -21 -33l-22 -22q-4 -6 -19 -21q-14 -14 -24 -20h-13h-24l-8 -25q-2 -4 -21 -8q-6 -2 -22 -6h-9q-2 0 -7.5 1 t-8.5 1q-2 0 -7 -1t-7 -1q-1 4 -13 16q-22 31 -18 51q6 30 6 64q0 7 1 20.5t1 20.5zM1397 1380q18 -6 22 -6h4q2 0 2 -2q17 -38 17 -49v-31v-41q-3 -49 -19 -112q-9 -27 -22 -35q-20 -15 -29 -37q-8 -8 -16 -8h-2l-13 8l-67 -35h-2q-24 8 -45 8h-4l-4 2q-2 3 0 9 q-5 20 -5 22v6l-2 15l-14 4q-2 1 -5 2l-4.5 1.5t-2.5 0.5q0 6 2 12q1 6 4 19.5t4 19.5q4 16 10.5 48.5t10.5 49.5q17 82 102 133h14h19q25 0 39 -2q4 -2 6 -2z" />
<glyph unicode="&#xad;" horiz-adv-x="808" d="M911 803q1 -1 5 -3t5.5 -3t4 -3t2.5 -4t-1.5 -4.5t-4.5 -5.5h-25q3 -22 0 -45q0 -13 -18 -20q-37 -11 -82 -21q-16 -3 -32 -3.5t-38 0.5t-31 1q-14 0 -39 -1t-39 -1q-17 0 -49 4q-19 0 -59 4q-59 3 -107 9q-26 0 -38 2q-67 10 -113 26q-49 18 -62 41q-4 3 -4 17 q-2 5 -2.5 16t-3.5 16q-9 15 6.5 35t42.5 31q29 11 45 20q21 12 29.5 13t32.5 -6q35 -12 65 -7q2 0 22 3.5t30 3.5q29 2 84 2q15 -1 41.5 -3.5t37.5 -3.5q15 0 23 2q-4 1 -12.5 4.5t-12.5 4.5l2 2q40 -3 84 -6q13 0 58 -5q6 -1 17.5 -2.5t18.5 -2.5t16.5 -4t16.5 -7 q9 -6 32.5 -13t29.5 -9q9 -2 20 -13q4 -4 10.5 -13t10.5 -13q12 -14 9 -19t-28 -16z" />
<glyph unicode="&#xc0;" d="M1272 100q0 -27 -12 -57q-1 -2 -2.5 -4t-2 -3.5t-1 -3.5t-1.5 -3h-6q-5 -10 -6 -11q-12 -3 -27 -12q-6 2 -20 7t-24.5 9.5t-18.5 10.5q-1 0 -5 -1t-5 -1t-11 16q-9 11 -2 31q-1 8 -1.5 33.5t-2.5 38.5v22v115v71q0 24 -4 70q-4 52 -8 82q0 1 -6 43q-15 4 -29 -2 q-6 -1 -15 -6.5t-13 -7.5q0 -3 -5 -11q-4 0 -10 -1t-10 -1h-4q-6 0 -18.5 -1t-18.5 -1q-45 -3 -84 0q-18 0 -29 -8q-10 -3 -31.5 -10t-31.5 -10q-1 -1 -6 -2.5t-6 -2.5q-7 -7 -11 -20q-5 -19 -21 -58t-20 -61q-6 -22 -25 -79t-26 -87q-14 -70 -16 -102q0 -5 -3.5 -11.5 t-8.5 -14t-7 -11.5q-9 -3 -12 -6q-4 -6 -10 -12q-4 0 -0.5 -1t0.5 -1q-4 2 -9.5 5t-9.5 5q-3 -4 -6.5 -12.5t-5.5 -10.5q-6 -4 -17.5 -11t-17.5 -11q-16 -8 -26 -8h-15q-8 4 -22 18h-12q-6 2 -16.5 9.5t-12.5 8.5q3 4 4 9t1 11t1 9q0 2 -1 7.5t-1 8.5q0 16 8 21q-4 17 2 45 q1 5 3 15.5t3 15.5q1 4 6.5 24t6.5 31t4.5 22.5t9 26.5t8.5 23q0 2 2 4q4 16 10.5 33t16 38.5t14.5 32.5q21 64 60 154q14 34 39.5 97t33.5 83q6 15 18.5 46.5t18.5 47.5q2 6 29 68q11 25 37.5 81.5t40.5 88.5q8 20 22 49q14 43 17 55q9 7 14 27q2 4 6 11t6 11q0 1 1 2.5 t1 2.5q9 15 31 45q4 2 16.5 8.5t18.5 9.5q0 5 8 29q4 1 10.5 2t9.5 2q3 -2 9 -5.5t9.5 -6t6.5 -6.5t4 -9q21 -7 35 -31q1 -1 7.5 -9t8.5 -13q1 -1 5 -9t8 -12q0 -4 2 -6q14 -23 32 -65q18 -43 33 -90q19 -71 19 -74q13 -52 14 -72q0 -3 6 -45q8 -31 14 -65q1 -9 4.5 -27 t4.5 -27q2 -10 5 -30.5t5 -30.5q1 -1 1.5 -6.5t2.5 -7.5q4 -12 4 -19q0 -16 2 -26q18 -126 21 -177q0 -16 1 -33.5t2.5 -39.5t2.5 -35q0 -61 2 -94v-74q0 -5 -1 -13.5t-1 -13.5q1 -6 0.5 -21.5t1.5 -21.5zM637 45v2h-6v-2h6zM1034 539q1 0 3 1t3 1l-2 2h-2zM1053 668 q22 0 32 6q0 8 -2 10q-2 21 -10 78q-4 17 -11.5 49t-10.5 45q-12 62 -13 64q0 6 -4 30q-11 52 -22 80l-3 6q-3 5 -5.5 7.5t-6.5 3.5q0 -2 -2.5 -7.5t-3.5 -7.5q-9 -21 -20 -53q-34 -79 -47 -113q-3 -8 -23 -53q-22 -52 -29 -68q-21 -44 -32 -83q-2 -4 -2 -13h8q9 1 27.5 4 t27.5 4q24 6 51 9q33 2 101 2zM961 1499q-1 4 -19 78q0 2 2 4q1 2 4.5 7t5.5 7l7 4q10 13 16 13h4q6 -2 20 -2h11v-2q2 0 6 -4q14 -14 16 -17q10 -17 13 -31q4 -12 6 -20q9 -37 18 -49q8 -15 10 -27q0 -1 2 -6.5t4 -7.5q1 -6 4.5 -18.5t5.5 -22.5t1 -19v-4q0 -18 -8 -26 q-1 -1 -2.5 -4t-3 -5t-1.5 -4q0 -8 -6 -8h-4l-14 -18q-4 2 -10 2q-5 0 -11 6q-2 2 -5 6t-5 6q-1 2 -2.5 4t-4 5.5t-3.5 5.5q-15 15 -29 43v4q-12 24 -12 39q-3 28 -16 61z" />
<glyph unicode="&#xc1;" d="M1270 100q2 -20 -13 -57q-2 -3 -3.5 -8t-2.5 -6h-4q-5 -9 -8 -11q-16 -5 -25 -12q-51 18 -63 27l-10 -2q-4 3 -13 16q-5 11 -2 31v32.5t-4 39.5v22q3 56 0 115q0 11 1 34.5t1 36.5q0 1 -2 28.5t-4 41.5q0 1 -6 82q-6 42 -6 43q-18 4 -29 -2q-7 -1 -16 -6.5t-14 -7.5 q0 -3 -5 -11q-3 0 -9 -1t-9 -1h-4q-6 0 -19.5 -1t-19.5 -1q-42 -3 -84 0q-16 0 -29 -8q-10 -3 -30.5 -10t-30.5 -10q-2 -1 -6.5 -2.5t-5.5 -2.5q-6 -5 -11 -20q-5 -18 -21.5 -57.5t-21.5 -61.5q-5 -21 -23.5 -78t-25.5 -88q-16 -78 -16 -102q0 -5 -3 -11t-9.5 -15t-8.5 -11 l-12 -6q-4 -6 -10 -12q-3 0 0.5 -1t-0.5 -1q-3 2 -8.5 5t-8.5 5q-3 -5 -8 -13t-6 -10q-5 -4 -16.5 -11t-16.5 -11q-16 -8 -26 -8h-15q-3 1 -24 18h-12q-9 4 -27 18q4 7 4 29q0 2 -1 7.5t-1 8.5q7 19 8 21q-2 16 4 45q1 5 3 15.5t3 15.5q1 4 6.5 24t6.5 31q1 13 20 72 q0 2 2 4q4 16 10.5 33t16 38.5t14.5 32.5q10 26 30.5 78t29.5 76q12 26 75 180q33 85 37 94q10 29 27 68q14 31 41.5 88.5t38.5 81.5q2 10 22 49q8 25 15 55q11 7 16 27q9 18 10 22q0 1 1 2.5t1 2.5q23 32 31 45q3 2 16.5 8.5t20.5 9.5q0 5 8 29q3 1 10 2t10 2q2 -2 9 -5.5 t9.5 -6t5.5 -6.5t3 -9q20 -6 37 -31q1 -3 7.5 -10.5t8.5 -11.5q4 -12 13 -21q-3 -3 0 -6q14 -23 32 -65q18 -43 33 -90l10.5 -35t10.5 -39q2 -12 7 -35t7 -37q0 -24 6 -45q1 -5 6 -28.5t6 -36.5q2 -9 5.5 -27t5.5 -27q2 -10 4 -30.5t4 -30.5q1 -1 1.5 -6.5t2.5 -7.5 q6 -9 6 -19q-3 -12 0 -26q15 -85 21 -177q4 -72 8 -108v-94l1 -37q1 -37 -1 -37v-27q1 -7 0 -21.5t0 -21.5zM637 45v2h-6v-2h6zM1034 539q1 0 3 1t3 1l-2 2h-4v-4zM1053 668q20 0 32 6q0 8 -2 10q-8 57 -10 78q-20 77 -24 94q-2 18 -11 64q-4 20 -4 30q-23 76 -24 80 q-1 1 -3 6t-4.5 7.5t-7.5 3.5q0 -2 -2 -7t-2 -8q-4 -9 -11 -26.5t-11 -26.5q-13 -35 -47 -113q-1 -3 -23 -53q-11 -33 -29 -68q-20 -49 -32 -83q-2 -4 -2 -13h10q7 1 25 4t28 4q24 6 51 9q33 2 103 2zM901 1343q0 9 -2 13q-3 6 4 26v4q15 30 39 60q1 2 5 7t5 7q9 15 21 27 q12 11 41 49q6 12 14 20q9 15 25 31q2 2 22 17q4 4 6 4q1 0 3 1t3 1h11q12 0 20 2h4q8 0 13 -13v-4q2 -6 6 -14v-4q-20 -35 -54 -78q-26 -37 -38 -61q-4 -8 -15 -21t-14 -18l-6 -4q-16 -21 -45 -43q-11 -11 -19 -15l-12 -12q-6 -6 -14 -6q-7 0 -11 -2l-6 18h-4q-2 0 -2 8z " />
<glyph unicode="&#xc7;" d="M643 -199q-11 3 -16 9q-1 3 -1 6t0.5 7t0.5 7h39v3.5t-1 2.5l-1.5 1.5t-2 1t-3.5 1.5l-5 2.5t-6 3.5q-6 3 -17 6t-14 5q6 19 27 14q3 8 8 16h2v-12q19 4 19 21q22 5 65 16t64 16q8 22 -8 41q1 2 5 8t7 11l-12 -4q-6 11 -7 12q-6 3 -9.5 8t-5 8.5t-3 13t-2.5 11.5 q-1 5 -2 17t-2 18q-5 25 2 61q2 7 4 19t2 14q0 18 -18 24q-9 2 -18 6.5t-19.5 12t-16.5 10.5q-1 0 -2 1t-2 1q-10 2 -18 8t-15.5 15.5t-11.5 13.5q-3 6 -14 6q1 -10 15.5 -23.5t13.5 -29.5q-2 1 -5 2t-4 2q-51 39 -71 94q-4 9 -15 51q-16 55 -20 80q-5 18 -10 52t-7 43 q-2 7 -4 20.5t-4 19.5q-4 17 2 25q2 6 2 21q-8 24 0 77q8 74 19 121q4 27 28 121q16 43 17 45q0 12 6 21q19 39 20 41q13 23 19 43q3 10 8 19.5t15 23t12 16.5q15 24 69 86q44 51 88 76q5 3 20.5 14t24.5 16q5 3 23.5 14.5t27.5 16.5t24 12t28 11q8 2 23 4t22 4q67 19 82 24 q55 20 78 15h4q14 6 28 7t33 -1t27 -2q23 2 57 -2q15 0 35 -8q26 -15 43 -27q3 -1 10 -12q-2 -1 -20 -13q4 -8 6 -10q-2 -7 -11 -7.5t-12 -2.5q3 -17 12.5 -27.5t28.5 -23.5q-6 -3 -14.5 -9.5t-9.5 -7.5q-12 -4 -17 -4q-2 0 -9.5 1.5t-10.5 0.5t-9 -6.5t-10 -7.5 q3 -5 2.5 -7.5t-4 -6.5t-4.5 -6q-27 -9 -32 -9t-13.5 2.5t-11.5 3.5q-1 -5 0.5 -8t4 -5t3.5 -3q-21 0 -31 -2q-31 -6 -55 6q-6 4 -16 4h-31q-3 0 -20.5 -1t-24.5 -2t-20.5 -4t-24.5 -9q-1 -1 -3 -2t-3 -2q-102 -32 -174 -142q-11 -16 -54 -90q-1 -2 -4 -6t-4 -6 q-9 -9 -18 -31q-4 -8 -9.5 -25.5t-9.5 -25.5q-2 -5 0.5 -12t-0.5 -12q-8 -8 -8 -23q-1 -7 -2 -20.5t-2 -20.5q-6 -42 -6 -43q-4 -34 -8 -98q-3 -85 20 -174q23 -75 92 -125q8 -6 25.5 -14t22.5 -11q24 -11 100 -24q19 -2 54 -2.5t46 -1.5q16 0 19 -5q3 -1 6 -0.5l9 1.5t9 1 q67 13 99 13q0 -9 -2 -15q6 0 19 -1t19 -1q44 4 58 -20q7 1 10 -7l2 -9q11 -3 21 -13q-15 -12 -23 -18q1 -1 4.5 -2t5.5 -2q-5 -6 -16.5 -18.5t-16.5 -18.5q-1 -1 -28 -17q-20 -10 -23 -12q-4 -4 -8 -4q-2 0 -9 -1.5t-9.5 -1.5t-8.5 -1t-9 -1t-8 0.5t-8 1.5t-6.5 2.5 t-6.5 4.5q-6 -2 -20.5 -5t-20.5 -5q0 -2 -4 -14q-3 -1 -9.5 -3.5t-9.5 -3.5q-8 -1 -31 -3t-31 -2t-30 1q-21 5 -25 11q-10 -6 -37 -15q6 -17 27 -47q24 -21 45 -45q7 -4 2 -12q0 -9 6 -15q-2 -1 -5 -3t-5 -3q6 -6 10 -8q2 -2 0 -4q-8 -13 -4 -33q3 -13 -2 -26q-4 -6 -4 -19 q-3 -13 -9 -15q-3 -1 -7 -1h-2q-8 -7 -23 -21t-22 -20q-4 -3 -11 -10t-10 -9q-9 -6 -26.5 -17.5t-31.5 -20.5t-28 -15q-26 -16 -33 -26q-3 -5 -6.5 -7.5t-9 -3t-6.5 -0.5t-7 4.5t-8 4.5q-15 0 -22 10v-8q-20 -13 -41 4q-2 2 -2 6q-9 -7 -21 -2t-16 4q-1 0 -4 1t-4 1 q-3 18 -21 0q1 5 6 12.5t6.5 10.5t-3.5 10q-1 3 -9.5 1.5t-15.5 -7.5q5 20 6 22q-16 -26 -47 -33v2q5 15 6 19q-5 -4 -6.5 -7t-0.5 -7t1 -5zM1282 244q-4 0 -4 -2q-2 -2 -2 -4l8 4z" />
<glyph unicode="&#xc8;" d="M1112 1583q-20 42 -33 88q-4 0 0 4q0 1 11 17l4 6q11 16 18 16h6h25q2 0 6.5 1t5.5 1h4l6 -6q14 -6 21 -16q1 -1 20 -33q3 -10 11 -23q8 -27 28 -57q5 -5 17 -29q0 -2 2.5 -6.5t3.5 -7.5q20 -47 22 -68v-2q0 -27 -4 -32q-8 -12 -8 -15q-3 -10 -6 -10l-4 -2l-17 -23 q-2 0 -5 1.5t-5 1.5q-7 -2 -16 4q-2 2 -5.5 6t-5.5 6q-4 6 -16 14q-24 21 -37 47l-4 4l-6.5 13t-7.5 16.5t-4 13.5q-7 19 -27 70zM1182 143q0 -1 -3 -9t-4.5 -11t-5 -8.5t-9 -8t-13.5 -4.5q3 -4 0 -9.5t-4.5 -7t-7 -6.5t-7.5 -7q-25 -21 -41 -27q-4 -3 -20 -8q-78 0 -115 -2 q-7 -1 -35 -3t-45 -3h-41q-33 0 -49 -2q-22 -3 -41 10q-33 22 -53 74q-20 63 -6 127q9 45 28 127.5t25 109.5q0 6 2 10q5 36 27 136q6 26 16.5 76.5t12.5 60.5q6 29 8 33l-6 24q2 0 10 -4q0 2 2 6t2 6q2 9 11.5 49t13.5 62q35 139 47 190q11 28 -7 43q-2 1 -4 7.5t-2 7.5 q9 6 15 12q-4 4 -21 15t-20 22q6 6 6 10l-6 3q-7 3 -11 5v-12q-14 -6 -14 4q0 7 10 12q4 4 11 4q9 -2 17 1.5t18 10t16 9.5l16 8q6 0 18.5 1t18.5 1q27 5 49 19q-5 2 -12 2t-14.5 -1t-10.5 -1q-6 0 -18 -1t-18 -1q-19 -4 -37 2q10 0 18 8q-1 1 -2 4t-2 4q17 4 51 8 q14 2 60.5 10.5t72.5 10.5q68 12 133 12q29 4 103 8q4 0 11.5 -1t12.5 -1q4 1 8 0t6 -2.5l6 -4.5t7 -5q22 -17 18 -33q5 -2 5 -4q3 -1 10 -4t10 -4q-4 -46 -4 -62q-5 -3 -7 -8t-3.5 -12.5t-3.5 -11.5q-21 -5 -39 -27q-9 -11 -23 -14q-25 -2 -72.5 -7.5t-70.5 -7.5 q-12 -1 -36 -4t-38 -4q-9 -1 -27.5 -2t-27.5 -2q-9 -3 -27 -6q-2 -10 -8 -32t-8 -32q-7 -33 -21.5 -98t-21.5 -98q0 -1 -0.5 -4.5t-0.5 -6.5t1 -6h37q23 -1 70.5 -2t70.5 -2q6 0 14 -4q17 -7 29 -14q-2 -1 -5 -3t-5 -3q8 -21 20 -23q19 0 35 -12q7 -4 9.5 -7.5t1.5 -7.5 t-5 -14q17 -17 0 -39q-2 -3 -7 -10t-9.5 -11.5t-9.5 -8.5q-4 -3 -13.5 -6.5t-11.5 -4.5q-4 -12 -8 -18q-4 -4 -19 -4h-82h-57q-62 5 -76 6q-30 3 -35 -29q-5 -38 -22 -143q-5 -27 -17 -78t-14 -59q-4 -18 -11 -53.5t-11 -53.5q0 -1 -1 -4.5t-1 -5.5q-3 -10 -1.5 -13t13.5 -3 q46 3 90 6h113q7 0 22.5 1t22.5 1q15 0 35 -4q3 -4 8 -17q6 0 14 -4q-8 -20 -10 -24q13 0 16 -13q0 -1 2.5 -2t6.5 -2.5t6 -3.5q-1 -2 -0.5 -11t-6.5 -13q11 -6 13 -9zM952 1321q3 -2 9.5 0t9.5 6q-3 -1 -10 -2t-9 -2v-2z" />
<glyph unicode="&#xc9;" d="M1032 1421v15q-8 10 8 32v2q6 11 14.5 22t20.5 25t17 21l14 14q19 23 29 29q9 8 53 57q2 3 9 11.5t9 11.5q3 3 9.5 10t12.5 13t11 10q13 9 29 16q2 2 10 6h4q1 0 3.5 -1t4.5 -1h25h6q9 0 14 -16v-6q0 -2 1.5 -8t0.5 -9q4 -4 0 -4q-37 -54 -69 -88q-30 -33 -56 -70 q-12 -18 -38 -43l-5 -4q-19 -19 -59 -47q-13 -7 -23 -14q-4 -4 -16 -12q-9 -9 -14 -4q-2 0 -7.5 -1.5t-7.5 -1.5l-4 23l-4 2q-5 0 -2 10zM1182 143q0 -1 -3 -9t-4.5 -11t-5 -8.5t-9 -8t-13.5 -4.5q3 -4 0 -9.5t-4.5 -7t-7 -6.5t-7.5 -7q-25 -21 -41 -27q-4 -3 -20 -8 q-78 0 -115 -2q-7 -1 -35 -3t-45 -3h-41q-33 0 -49 -2q-22 -3 -41 10q-33 22 -53 74q-20 63 -6 127q9 45 28 127.5t25 109.5q0 6 2 10q5 36 27 136q6 26 16.5 76.5t12.5 60.5q6 29 8 33l-6 24q2 0 10 -4q0 2 2 6t2 6q2 9 11.5 49t13.5 62q35 139 47 190q11 28 -7 43 q-2 1 -4 7.5t-2 7.5q9 6 15 12q-4 4 -21 15t-20 22q6 6 6 10l-6 3q-7 3 -11 5v-12q-14 -6 -14 4q0 7 10 12q4 4 11 4q9 -2 17 1.5t18 10t16 9.5l16 8q6 0 18.5 1t18.5 1q27 5 49 19q-5 2 -12 2t-14.5 -1t-10.5 -1q-6 0 -18 -1t-18 -1q-19 -4 -37 2q10 0 18 8q-1 1 -2 4t-2 4 q17 4 51 8q14 2 60.5 10.5t72.5 10.5q68 12 133 12q29 4 103 8q4 0 11.5 -1t12.5 -1q4 1 8 0t6 -2.5l6 -4.5t7 -5q22 -17 18 -33q5 -2 5 -4q3 -1 10 -4t10 -4q-4 -46 -4 -62q-5 -3 -7 -8t-3.5 -12.5t-3.5 -11.5q-21 -5 -39 -27q-9 -11 -23 -14q-25 -2 -72.5 -7.5t-70.5 -7.5 q-12 -1 -36 -4t-38 -4q-9 -1 -27.5 -2t-27.5 -2q-9 -3 -27 -6q-2 -10 -8 -32t-8 -32q-7 -33 -21.5 -98t-21.5 -98q0 -1 -0.5 -4.5t-0.5 -6.5t1 -6h37q23 -1 70.5 -2t70.5 -2q6 0 14 -4q17 -7 29 -14q-2 -1 -5 -3t-5 -3q8 -21 20 -23q19 0 35 -12q7 -4 9.5 -7.5t1.5 -7.5 t-5 -14q17 -17 0 -39q-2 -3 -7 -10t-9.5 -11.5t-9.5 -8.5q-4 -3 -13.5 -6.5t-11.5 -4.5q-4 -12 -8 -18q-4 -4 -19 -4h-82h-57q-62 5 -76 6q-30 3 -35 -29q-5 -38 -22 -143q-5 -27 -17 -78t-14 -59q-4 -18 -11 -53.5t-11 -53.5q0 -1 -1 -4.5t-1 -5.5q-3 -10 -1.5 -13t13.5 -3 q46 3 90 6h113q7 0 22.5 1t22.5 1q15 0 35 -4q3 -4 8 -17q6 0 14 -4q-8 -20 -10 -24q13 0 16 -13q0 -1 2.5 -2t6.5 -2.5t6 -3.5q-1 -2 -0.5 -11t-6.5 -13q11 -6 13 -9zM952 1321q3 -2 9.5 0t9.5 6q-3 -1 -10 -2t-9 -2v-2z" />
<glyph unicode="&#xd9;" d="M1268 467q-1 -15 -9 -41.5t-10 -38.5q-4 -12 -4 -18q-11 -34 -12 -35q-9 -22 -12 -41q-2 -10 -23 -86q-18 -45 -41 -74q-8 -11 -61 -72q-50 -47 -97 -67q1 1 3 3.5t4 4.5q-2 1 -21 -4q-19 -6 -33 -2q-8 2 -24 2q-2 0 -34.5 2t-49.5 4q-37 0 -74 16q-33 13 -45 41 q-26 66 -20 152v78q0 24 8 74q5 35 22 116q12 70 8 103q0 61 15 168q2 20 12 112q0 23 -2 33q4 66 4 100v31q5 35 8 43q2 6 3 19.5t3 19.5q0 6 1 13.5t3 15.5l3 12q5 16 0 20q0 1 1 4.5t1 4.5q10 48 10 88q3 23 14 39q2 4 8 22l2 2q9 5 19.5 20t17.5 21q0 -20 6 -41 q2 3 6 6.5t5 5.5q6 -25 18 -47q23 -34 25 -63l1 -5q1 -6 1 -11l6 12v-2q0 -6 -1 -17t-1 -16q-1 -13 -9 -71.5t-10 -88.5q-2 -14 -5 -43t-5 -43q-1 -13 -3 -27.5t-5 -31.5t-4 -27q-3 -18 -9.5 -49t-11 -56t-8.5 -48q-1 -11 -4 -43.5t-6 -51.5q1 -8 -6 -57q0 -29 2 -85t2 -83 q1 -16 -2.5 -46t-3.5 -42q0 -83 -2 -102q0 -13 22 -13h21q13 1 37 1t36 1q2 0 9.5 -1t15 -1t14.5 2q3 0 7 9q5 12 22 43.5t21 48.5q30 92 38 125q7 24 16.5 70t16.5 71q3 12 6 36t6 36q4 18 10 48t10.5 54t8.5 45q9 59 15 121q6 33 14 96q17 113 12 199q1 10 0.5 28 t0.5 33.5t5 30.5q2 8 17 53q8 0 10 -2q6 26 14.5 35t36.5 18q4 -2 13 -5t14 -5q0 -4 2 -6v-2q13 3 18 -8l15 -10q6 -6 6 -11q-4 -4 2 -4q3 0 5 -1t2.5 -2.5t1.5 -3.5t1 -3q2 -14 2 -43q0 -8 -4 -12q-6 -8 -6 -35q-4 -78 -4 -123q0 -15 -4 -43q-1 -20 -5.5 -58.5t-5.5 -56.5 q0 -3 -4 -58.5t-8 -84.5q-15 -92 -22 -149q-2 -41 -17 -101q-15 -46 -18 -94zM981 1497q-13 16 -41 70q0 2 2 4q2 4 6 16l4 4q8 17 15 17h4q8 0 24 4q7 0 9 2h4l8 -4q17 -11 18 -13q12 -7 23 -26q4 -8 10 -17q12 -24 33 -45q12 -12 16 -22q1 -2 4 -6t4 -6q20 -27 29 -56v-2 q6 -14 0 -26q-4 -4 -4 -13l-6 -10l-4 -2l-13 -20h-10q-3 -2 -14 2l-10 10q-8 4 -17 10q-24 20 -39 35l-2 4q-18 22 -22 35q-11 26 -31 55z" />
<glyph unicode="&#xda;" d="M1268 469q-1 -16 -9 -43.5t-10 -38.5q-4 -12 -4 -18q-11 -33 -12 -35q-6 -15 -10 -41q-4 -14 -12.5 -43t-12.5 -43q-18 -45 -41 -74q-8 -11 -61 -72q-50 -47 -97 -67q1 1 3 3.5t4 4.5q-2 1 -21 -4q-18 -7 -33 -2q-8 2 -24 2q-2 0 -34.5 2t-49.5 4q-42 3 -74 16 q-33 13 -45 41q-24 59 -20 152v78q0 24 8 74q5 35 22 116q12 70 8 103q0 61 15 168q2 20 6 57t6 57q0 21 -2 33q4 62 4 98v31q5 35 8 43q2 6 3 20t3 21q0 7 3.5 22.5t3.5 16.5q6 17 2 23v6q10 36 10 88q4 26 14 39q8 16 8 22l2 2q8 5 19.5 20t19.5 21q0 -27 4 -41q2 3 6 6.5 t5 5.5q15 -41 18 -45q23 -38 27 -63v-18l6 12v-2q0 -21 -2 -33q-1 -13 -9 -71.5t-10 -88.5q-2 -14 -5 -43t-5 -43q-1 -13 -3 -27.5t-5 -31.5t-4 -27q-3 -18 -9.5 -49t-11 -56t-8.5 -48q-1 -11 -4 -43.5t-6 -51.5q1 -8 -6 -57q0 -29 2 -85t2 -83q1 -16 -2.5 -46t-3.5 -42 q0 -83 -2 -102q0 -13 22 -13h21q13 1 37 1t36 1q1 0 9 -1t15.5 -0.5t14.5 3.5q3 0 7 7q5 12 22 43.5t21 48.5q30 92 38 125q7 24 16.5 70t16.5 71q3 12 6 36t6 36q28 142 29 149q8 55 15 119q6 31 14 96q18 99 12 199q1 10 0.5 28t0.5 33.5t5 30.5q2 8 17 53q8 0 10 -2 q6 26 14.5 35t36.5 18q4 -2 13 -5t14 -5q0 -4 2 -6v-2q13 3 18 -8l15 -10q5 -5 8 -11q-4 -4 0 -4q3 0 5 -1t2.5 -2.5t1.5 -3.5t1 -3q2 -14 2 -43q0 -8 -4 -12q-6 -8 -6 -33q-4 -82 -4 -123q0 -17 -4 -45q-1 -20 -5.5 -58.5t-5.5 -56.5q0 -3 -4 -58.5t-8 -84.5 q-4 -26 -11 -76t-11 -73q-2 -41 -17 -101q-15 -47 -18 -92zM1010 1356v14q-5 10 8 33v2q6 11 14 22t20.5 25.5t16.5 20.5q10 10 14 16q3 3 9 9.5t11 11t9 8.5q14 11 53 55q6 9 19 22l33 33q17 12 28 17q2 2 10 6h5q1 0 4.5 -1t5.5 -1h24h6q8 0 13 -17v-4q1 -3 2 -9t2 -9 q0 -4 -2 -4q-34 -49 -70 -88q-39 -44 -55 -70q-10 -14 -39 -43l-4 -4q-23 -23 -60 -45q-3 -3 -10 -8.5t-10 -8.5q-2 -1 -5 -3.5t-6 -4.5t-7 -4q-10 -7 -15 -4q-2 0 -6 -1t-6 -1l-6 22l-6 3v10z" />
<glyph unicode="&#xe0;" horiz-adv-x="845" d="M821 100q0 -27 -12 -57q-2 -4 -3.5 -8.5t-2.5 -5.5h-6q-5 -10 -6 -11q-12 -3 -27 -12q-6 2 -20 6.5t-25 9.5t-19 11q-1 0 -5 -1t-5 -1q-4 2 -6.5 8.5t-3.5 7.5q-9 11 -2 31q-1 8 -1.5 33.5t-2.5 38.5v22v115v71q0 24 -4 70q-4 52 -8 82q0 8 -3.5 24t-3.5 19q-14 4 -28 -2 q-6 -1 -15.5 -7t-13.5 -7q0 -5 -4 -11q-4 0 -10.5 -1t-10.5 -1h-4q-6 0 -18.5 -1t-18.5 -1q-44 -3 -83 0q-18 0 -29 -8q-10 -3 -32 -10t-32 -10q-1 -1 -5.5 -2.5t-6.5 -2.5q-5 -5 -10 -20q-5 -19 -21 -58t-20 -61q-6 -22 -25 -79t-26 -87q-16 -76 -17 -102q0 -5 -3 -11.5 t-8 -14t-7 -11.5q-9 -3 -12 -6q-2 -3 -11 -12q-4 0 -0.5 -1t0.5 -1q-4 2 -9 5t-9 5q-3 -4 -6.5 -12.5t-5.5 -10.5q-6 -4 -17.5 -11t-17.5 -11q-16 -8 -27 -8h-14q-10 5 -23 18h-12q-6 2 -16.5 9.5t-12.5 8.5q3 4 4 9t1 11t1 9q0 2 -1 7.5t-1 8.5q0 15 9 21q-4 17 2 45 q1 5 3 15.5t3 15.5q12 53 12 55q1 11 4.5 23t9.5 26.5t9 22.5q0 2 2 4q4 16 10.5 33t16 38.5t14.5 32.5q24 73 59 154q7 17 74 180q6 15 18.5 46.5t18.5 47.5q6 18 28 68q11 25 37.5 81.5t40.5 88.5q5 12 23 49q11 34 16 55q9 7 14 27q2 4 6.5 11t6.5 11q0 1 1 2.5t1 2.5 q12 21 30 45q3 2 15.5 8.5t19.5 9.5q0 5 8 29q4 1 11 2t10 2q3 -2 9 -5.5t9.5 -6t6.5 -6.5t4 -9q20 -7 34 -31q1 -2 8 -9.5t9 -12.5l5 -10t7 -11q0 -4 2 -6q17 -29 33 -65q18 -43 33 -90q16 -61 18 -74q13 -52 14 -72q0 -9 3.5 -26t3.5 -19q8 -31 14 -65q1 -9 4 -27t4 -27 q2 -10 5 -30.5t5 -30.5q1 -1 1.5 -6.5t2.5 -7.5q5 -15 5 -19q0 -16 2 -26q16 -112 20 -177q0 -16 1 -33.5t2.5 -39.5t2.5 -35q0 -61 2 -94v-74q0 -5 -1 -13.5t-1 -13.5q1 -6 0.5 -21.5t1.5 -21.5zM186 45v2h-6v-2h6zM584 539q1 0 3 1t3 1l-2 2h-2zM602 668q23 0 33 6 q0 8 -2 10q-2 21 -10 78q-3 14 -23 94q-1 4 -4.5 28t-7.5 36q0 6 -4 30q-10 45 -23 80q-1 1 -3.5 6t-4.5 7.5t-6 3.5q0 -2 -2.5 -7.5t-3.5 -7.5q-13 -30 -21 -53q-34 -79 -47 -113q-8 -22 -22 -53q-23 -52 -29 -68q-24 -49 -33 -83q-2 -4 -2 -13h8q9 1 28 4t28 4q24 6 51 9 q33 2 100 2zM510 1499q-5 15 -11 44t-7 34q0 2 2 4q1 2 4.5 7t5.5 7l6 4q10 13 16 13h4q6 -2 21 -2h10v-2q2 0 6 -4q2 -2 6 -5.5t6.5 -6t4.5 -5.5q9 -15 12 -31q4 -12 6 -20q9 -34 19 -49q8 -15 10 -27q0 -1 2 -6.5t4 -7.5q11 -53 10 -60v-4q0 -18 -8 -26q-6 -12 -6 -13 q0 -8 -6 -8h-4l-15 -18q-4 2 -10 2q-4 0 -10 6q-2 2 -5 6t-5 6q-1 2 -5 7t-6 8q-13 13 -28 43v4q-13 26 -13 39q-3 28 -16 61z" />
<glyph unicode="&#xe1;" d="M1270 100q2 -20 -13 -57q-2 -3 -3.5 -8t-2.5 -6h-4q-5 -9 -8 -11q-16 -5 -25 -12q-51 18 -63 27l-10 -2q-4 3 -13 16q-5 11 -2 31v32.5t-4 39.5v22q3 56 0 115q0 11 1 34.5t1 36.5q0 1 -2 28.5t-4 41.5q0 1 -6 82q-6 42 -6 43q-18 4 -29 -2q-7 -1 -16 -6.5t-14 -7.5 q0 -3 -5 -11q-3 0 -9 -1t-9 -1h-4q-6 0 -19.5 -1t-19.5 -1q-42 -3 -84 0q-16 0 -29 -8q-10 -3 -30.5 -10t-30.5 -10q-2 -1 -6.5 -2.5t-5.5 -2.5q-6 -5 -11 -20q-5 -18 -21.5 -57.5t-21.5 -61.5q-5 -21 -23.5 -78t-25.5 -88q-16 -78 -16 -102q0 -5 -3 -11t-9.5 -15t-8.5 -11 l-12 -6q-4 -6 -10 -12q-3 0 0.5 -1t-0.5 -1q-3 2 -8.5 5t-8.5 5q-3 -5 -8 -13t-6 -10q-5 -4 -16.5 -11t-16.5 -11q-16 -8 -26 -8h-15q-3 1 -24 18h-12q-9 4 -27 18q4 7 4 29q0 2 -1 7.5t-1 8.5q7 19 8 21q-2 16 4 45q1 5 3 15.5t3 15.5q1 4 6.5 24t6.5 31q1 13 20 72 q0 2 2 4q4 16 10.5 33t16 38.5t14.5 32.5q10 26 30.5 78t29.5 76q12 26 75 180q33 85 37 94q10 29 27 68q14 31 41.5 88.5t38.5 81.5q2 10 22 49q8 25 15 55q11 7 16 27q9 18 10 22q0 1 1 2.5t1 2.5q23 32 31 45q3 2 16.5 8.5t20.5 9.5q0 5 8 29q3 1 10 2t10 2q2 -2 9 -5.5 t9.5 -6t5.5 -6.5t3 -9q20 -6 37 -31q1 -3 7.5 -10.5t8.5 -11.5q4 -12 13 -21q-3 -3 0 -6q14 -23 32 -65q18 -43 33 -90l10.5 -35t10.5 -39q2 -12 7 -35t7 -37q0 -24 6 -45q1 -5 6 -28.5t6 -36.5q2 -9 5.5 -27t5.5 -27q2 -10 4 -30.5t4 -30.5q1 -1 1.5 -6.5t2.5 -7.5 q6 -9 6 -19q-3 -12 0 -26q15 -85 21 -177q4 -72 8 -108v-94l1 -37q1 -37 -1 -37v-27q1 -7 0 -21.5t0 -21.5zM637 45v2h-6v-2h6zM1034 539q1 0 3 1t3 1l-2 2h-4v-4zM1053 668q20 0 32 6q0 8 -2 10q-8 57 -10 78q-20 77 -24 94q-2 18 -11 64q-4 20 -4 30q-23 76 -24 80 q-1 1 -3 6t-4.5 7.5t-7.5 3.5q0 -2 -2 -7t-2 -8q-4 -9 -11 -26.5t-11 -26.5q-13 -35 -47 -113q-1 -3 -23 -53q-11 -33 -29 -68q-20 -49 -32 -83q-2 -4 -2 -13h10q7 1 25 4t28 4q24 6 51 9q33 2 103 2zM901 1343q0 9 -2 13q-3 6 4 26v4q15 30 39 60q1 2 5 7t5 7q9 15 21 27 q12 11 41 49q6 12 14 20q9 15 25 31q2 2 22 17q4 4 6 4q1 0 3 1t3 1h11q12 0 20 2h4q8 0 13 -13v-4q2 -6 6 -14v-4q-20 -35 -54 -78q-26 -37 -38 -61q-4 -8 -15 -21t-14 -18l-6 -4q-16 -21 -45 -43q-11 -11 -19 -15l-12 -12q-6 -6 -14 -6q-7 0 -11 -2l-6 18h-4q-2 0 -2 8z " />
<glyph unicode="&#xe7;" horiz-adv-x="1003" d="M272 -199q-10 3 -16 9v20h39v3.5t-1 2.5l-1.5 1.5t-2 1t-3.5 1.5l-5 2.5t-6 3.5q-6 3 -16.5 6t-13.5 5q5 19 26 14q2 5 9 16h2v-12q18 4 18 21q21 5 64 16t65 16q8 22 -8 41q1 2 5 8t7 11l-12 -4l-6 12q-5 2 -8 5.5t-5 8.5t-3 8t-2.5 10t-2.5 9q-1 5 -2 17t-2 18 q-5 25 2 61q2 7 4 19t2 14q0 18 -18 24q-9 2 -17.5 6.5t-19 12t-16.5 10.5q-1 0 -2 1t-2 1q-10 2 -18 8t-15.5 15.5t-11.5 13.5q-3 6 -15 6q1 -10 15.5 -23.5t13.5 -29.5l-8 4q-53 40 -72 94q-3 5 -14 51q-18 62 -21 80q-5 18 -9.5 51t-6.5 44q-2 7 -4 20.5t-4 19.5 q-4 17 2 25q2 6 2 21q-8 24 0 77q8 81 18 121q3 18 29 121q2 6 7.5 21.5t8.5 23.5q0 12 6 21l9 16q10 17 12 25q11 20 18 43q3 10 8 19.5t15 23t12 16.5q12 19 70 86q44 51 88 76q5 3 20.5 14t24.5 16q6 4 23.5 15t27 16.5t24 12t27.5 10.5q8 2 23 4t22 4q67 19 82 24 q55 20 78 15h4q14 6 28 7t33 -1t27 -2q23 2 58 -2q14 0 34 -8q26 -15 43 -27q4 -2 11 -12q-6 -3 -21 -13q4 -8 6 -10q-2 -7 -10.5 -7.5t-11.5 -2.5q3 -17 12.5 -27.5t28.5 -23.5q-6 -4 -15 -11l-10 -6q-12 -4 -16 -4q-2 0 -10 1.5t-11 0.5t-8.5 -6.5t-9.5 -7.5 q3 -5 2.5 -7.5t-4 -6.5t-4.5 -6q-27 -9 -33 -9q-5 0 -13.5 2.5t-11.5 3.5q-1 -5 1 -8t4.5 -5t3.5 -3q-21 0 -31 -2q-31 -6 -56 6q-6 4 -16 4h-31q-3 0 -20.5 -1t-24.5 -2t-20.5 -4t-24.5 -9q-1 -1 -3 -2t-3 -2q-102 -32 -174 -142q-5 -7 -53 -90q-1 -2 -4 -6t-4 -6 q-11 -11 -19 -31q-4 -8 -9 -25.5t-9 -25.5q-2 -5 0.5 -12t-0.5 -12q-8 -8 -8 -23q-1 -7 -2.5 -20.5t-2.5 -20.5q-6 -42 -6 -43q-4 -34 -8 -98q-3 -81 21 -174q23 -75 92 -125q8 -6 25.5 -14.5t21.5 -10.5q24 -11 100 -24q19 -2 54.5 -2.5t46.5 -1.5q15 0 18 -5 q3 -1 6.5 -0.5t9.5 1.5t9 1q67 13 98 13q0 -9 -2 -15q6 0 19.5 -1t19.5 -1q43 4 57 -20q7 1 9 -7l3 -9q11 -3 21 -13q-15 -12 -23 -18q1 -1 5 -2t6 -2q-5 -6 -16.5 -18.5t-16.5 -18.5q-5 -4 -16 -10t-13 -7q-16 -8 -22 -12q-4 -4 -9 -4q-2 0 -9 -1.5t-9.5 -1.5t-8.5 -1 t-9 -1t-8 0.5t-8 1.5t-6.5 2.5t-6.5 4.5q-6 -2 -20.5 -5t-20.5 -5q0 -2 -4 -14q-3 -1 -9.5 -3.5t-9.5 -3.5q-8 -1 -31 -3t-31 -2t-30 1q-19 5 -24 11q-10 -6 -37 -15q7 -20 26 -47q24 -21 45 -45q8 -4 3 -12q0 -9 6 -15q-2 -1 -5.5 -3t-5.5 -3q5 -5 11 -8q2 -2 0 -4 q-8 -13 -4 -33q3 -13 -2 -26q-5 -7 -5 -19q-1 -4 -2 -7.5t-4.5 -6t-9.5 -2.5h-2q-8 -7 -23 -21t-22 -20q-4 -3 -11 -10t-10 -9q-9 -6 -26.5 -17.5t-31.5 -20.5t-28 -15q-24 -15 -32 -26q-3 -5 -7 -7.5t-9.5 -3t-6.5 -0.5q-1 1 -6.5 5t-7.5 4q-15 0 -23 10v-8q-20 -13 -41 4 q-2 2 -2 6q-9 -7 -21 -2t-16 4q-1 0 -4 1t-4 1q-3 17 -20 0q1 5 6 12.5t6 10.5t-4 10q-1 3 -9.5 1.5t-15.5 -7.5q5 20 6 22q-16 -26 -47 -33v2q1 2 3.5 8t3.5 11q-5 -4 -7 -6.5t-1 -7.5zM911 244q-4 0 -4 -2q-2 -2 -2 -4l8 4z" />
<glyph unicode="&#xe8;" horiz-adv-x="641" d="M559 1583q-20 42 -33 88q-4 0 0 4q0 1 11 17l4 6q11 16 18 16h6h25q2 0 6.5 1t5.5 1h4l6 -6q14 -6 21 -16q1 -1 20 -33q3 -10 11 -23q8 -27 28 -57q5 -5 17 -29q0 -2 2.5 -6.5t3.5 -7.5q20 -47 22 -68v-2q0 -27 -4 -32q-8 -12 -8 -15q-3 -10 -6 -10l-4 -2l-17 -23 q-2 0 -5 1.5t-5 1.5q-7 -2 -16 4q-2 2 -5 6t-5 6q-3 5 -17 14q-24 21 -37 47l-4 4l-6.5 13t-7.5 16.5t-4 13.5q-7 19 -27 70zM629 143q0 -1 -3 -9t-4.5 -11t-5 -8.5t-9 -8t-13.5 -4.5q3 -4 0 -9.5t-4.5 -7t-7 -6.5t-7.5 -7q-26 -22 -40 -27q-3 -2 -21 -8q-78 0 -115 -2 q-7 -1 -35 -3t-45 -3h-40q-34 0 -50 -2q-22 -3 -41 10q-33 22 -53 74q-20 63 -6 127q9 45 28 127.5t25 109.5q0 6 2 10q5 36 27 136q6 26 16.5 76.5t12.5 60.5q6 30 8 33l-6 24q2 0 10 -4q0 2 2 6t2 6q2 9 12 49t13 62q35 139 47 190q11 29 -6 43q-2 1 -3 3.5t-2 6.5t-2 5 q9 6 15 12q-4 4 -21 15t-20 22q6 6 6 10l-16 8v-12q-15 -6 -15 4q0 7 10 12q4 4 11 4q9 -2 17 1.5t18 10t16 9.5l16 8q6 0 18.5 1t18.5 1q27 5 49 19q-5 2 -12 2t-14.5 -1t-10.5 -1q-6 0 -18 -1t-18 -1q-19 -4 -37 2q10 0 18 8q-1 1 -2 4t-2 4q17 4 51 8q14 2 60.5 10.5 t72.5 10.5q68 12 133 12q29 4 103 8q4 0 11.5 -1t12.5 -1q4 1 8 0t6 -2.5l6 -4.5t7 -5q22 -17 18 -33q5 -2 5 -4q3 -1 10 -4t10 -4q-4 -46 -4 -62q-5 -3 -7 -8t-3.5 -12.5t-3.5 -11.5q-21 -5 -39 -27q-9 -11 -23 -14q-25 -2 -72.5 -7.5t-70.5 -7.5q-12 -1 -36 -4t-38 -4 q-9 -1 -27.5 -2t-27.5 -2q-9 -3 -27 -6q-2 -10 -8 -32t-8 -32q-7 -33 -21.5 -98t-21.5 -98q0 -1 -0.5 -4.5t-0.5 -6.5t1 -6h37q23 -1 70.5 -2t70.5 -2q6 0 14 -4q17 -7 29 -14q-2 -1 -5 -3t-5 -3q8 -21 20 -23q19 0 35 -12q7 -4 9.5 -7.5t1.5 -7.5t-5 -14q17 -17 0 -39 q-2 -3 -7 -10t-9.5 -11.5t-9.5 -8.5q-4 -3 -13.5 -6.5t-11.5 -4.5q-4 -12 -8 -18q-4 -4 -19 -4h-82h-57q-62 5 -76 6q-30 3 -35 -29q-5 -38 -22 -143q-5 -27 -17 -78t-14 -59q-4 -17 -11 -53t-11 -54q0 -1 -1 -4.5t-1 -5.5q-3 -10 -1.5 -13t13.5 -3q47 3 90 6h113 q7 0 22.5 1t22.5 1q15 0 35 -4q4 -4 8 -17q6 0 14 -4q-8 -20 -10 -24q13 0 16 -13q0 -1 2.5 -2t6.5 -2.5t6 -3.5q-1 -2 -0.5 -11t-6.5 -13q11 -6 13 -9zM399 1321q3 -2 9.5 0t9.5 6q-3 -1 -10 -2t-9 -2v-2z" />
<glyph unicode="&#xe9;" d="M1032 1421v15q-8 10 8 32v2q6 11 14.5 22t20.5 25t17 21l14 14q19 23 29 29q9 8 53 57q2 3 9 11.5t9 11.5q3 3 9.5 10t12.5 13t11 10q13 9 29 16q2 2 10 6h4q1 0 3.5 -1t4.5 -1h25h6q9 0 14 -16v-6q0 -2 1.5 -8t0.5 -9q4 -4 0 -4q-37 -54 -69 -88q-30 -33 -56 -70 q-12 -18 -38 -43l-5 -4q-19 -19 -59 -47q-13 -7 -23 -14q-4 -4 -16 -12q-9 -9 -14 -4q-2 0 -7.5 -1.5t-7.5 -1.5l-4 23l-4 2q-5 0 -2 10zM1182 143q0 -1 -3 -9t-4.5 -11t-5 -8.5t-9 -8t-13.5 -4.5q3 -4 0 -9.5t-4.5 -7t-7 -6.5t-7.5 -7q-25 -21 -41 -27q-4 -3 -20 -8 q-78 0 -115 -2q-7 -1 -35 -3t-45 -3h-41q-33 0 -49 -2q-22 -3 -41 10q-33 22 -53 74q-20 63 -6 127q9 45 28 127.5t25 109.5q0 6 2 10q5 36 27 136q6 26 16.5 76.5t12.5 60.5q6 29 8 33l-6 24q2 0 10 -4q0 2 2 6t2 6q2 9 11.5 49t13.5 62q35 139 47 190q11 28 -7 43 q-2 1 -4 7.5t-2 7.5q9 6 15 12q-4 4 -21 15t-20 22q6 6 6 10l-6 3q-7 3 -11 5v-12q-14 -6 -14 4q0 7 10 12q4 4 11 4q9 -2 17 1.5t18 10t16 9.5l16 8q6 0 18.5 1t18.5 1q27 5 49 19q-5 2 -12 2t-14.5 -1t-10.5 -1q-6 0 -18 -1t-18 -1q-19 -4 -37 2q10 0 18 8q-1 1 -2 4t-2 4 q17 4 51 8q14 2 60.5 10.5t72.5 10.5q68 12 133 12q29 4 103 8q4 0 11.5 -1t12.5 -1q4 1 8 0t6 -2.5l6 -4.5t7 -5q22 -17 18 -33q5 -2 5 -4q3 -1 10 -4t10 -4q-4 -46 -4 -62q-5 -3 -7 -8t-3.5 -12.5t-3.5 -11.5q-21 -5 -39 -27q-9 -11 -23 -14q-25 -2 -72.5 -7.5t-70.5 -7.5 q-12 -1 -36 -4t-38 -4q-9 -1 -27.5 -2t-27.5 -2q-9 -3 -27 -6q-2 -10 -8 -32t-8 -32q-7 -33 -21.5 -98t-21.5 -98q0 -1 -0.5 -4.5t-0.5 -6.5t1 -6h37q23 -1 70.5 -2t70.5 -2q6 0 14 -4q17 -7 29 -14q-2 -1 -5 -3t-5 -3q8 -21 20 -23q19 0 35 -12q7 -4 9.5 -7.5t1.5 -7.5 t-5 -14q17 -17 0 -39q-2 -3 -7 -10t-9.5 -11.5t-9.5 -8.5q-4 -3 -13.5 -6.5t-11.5 -4.5q-4 -12 -8 -18q-4 -4 -19 -4h-82h-57q-62 5 -76 6q-30 3 -35 -29q-5 -38 -22 -143q-5 -27 -17 -78t-14 -59q-4 -18 -11 -53.5t-11 -53.5q0 -1 -1 -4.5t-1 -5.5q-3 -10 -1.5 -13t13.5 -3 q46 3 90 6h113q7 0 22.5 1t22.5 1q15 0 35 -4q3 -4 8 -17q6 0 14 -4q-8 -20 -10 -24q13 0 16 -13q0 -1 2.5 -2t6.5 -2.5t6 -3.5q-1 -2 -0.5 -11t-6.5 -13q11 -6 13 -9zM952 1321q3 -2 9.5 0t9.5 6q-3 -1 -10 -2t-9 -2v-2z" />
<glyph unicode="&#xf9;" d="M1268 467q-1 -15 -9 -41.5t-10 -38.5q-4 -12 -4 -18q-11 -34 -12 -35q-9 -22 -12 -41q-2 -10 -23 -86q-18 -45 -41 -74q-8 -11 -61 -72q-50 -47 -97 -67q1 1 3 3.5t4 4.5q-2 1 -21 -4q-19 -6 -33 -2q-8 2 -24 2q-2 0 -34.5 2t-49.5 4q-37 0 -74 16q-33 13 -45 41 q-26 66 -20 152v78q0 24 8 74q5 35 22 116q12 70 8 103q0 61 15 168q2 20 12 112q0 23 -2 33q4 66 4 100v31q5 35 8 43q2 6 3 19.5t3 19.5q0 6 1 13.5t3 15.5l3 12q5 16 0 20q0 1 1 4.5t1 4.5q10 48 10 88q3 23 14 39q2 4 8 22l2 2q9 5 19.5 20t17.5 21q0 -20 6 -41 q2 3 6 6.5t5 5.5q6 -25 18 -47q23 -34 25 -63l1 -5q1 -6 1 -11l6 12v-2q0 -6 -1 -17t-1 -16q-1 -13 -9 -71.5t-10 -88.5q-2 -14 -5 -43t-5 -43q-1 -13 -3 -27.5t-5 -31.5t-4 -27q-3 -18 -9.5 -49t-11 -56t-8.5 -48q-1 -11 -4 -43.5t-6 -51.5q1 -8 -6 -57q0 -29 2 -85t2 -83 q1 -16 -2.5 -46t-3.5 -42q0 -83 -2 -102q0 -13 22 -13h21q13 1 37 1t36 1q2 0 9.5 -1t15 -1t14.5 2q3 0 7 9q5 12 22 43.5t21 48.5q30 92 38 125q7 24 16.5 70t16.5 71q3 12 6 36t6 36q4 18 10 48t10.5 54t8.5 45q9 59 15 121q6 33 14 96q17 113 12 199q1 10 0.5 28 t0.5 33.5t5 30.5q2 8 17 53q8 0 10 -2q6 26 14.5 35t36.5 18q4 -2 13 -5t14 -5q0 -4 2 -6v-2q13 3 18 -8l15 -10q6 -6 6 -11q-4 -4 2 -4q3 0 5 -1t2.5 -2.5t1.5 -3.5t1 -3q2 -14 2 -43q0 -8 -4 -12q-6 -8 -6 -35q-4 -78 -4 -123q0 -15 -4 -43q-1 -20 -5.5 -58.5t-5.5 -56.5 q0 -3 -4 -58.5t-8 -84.5q-15 -92 -22 -149q-2 -41 -17 -101q-15 -46 -18 -94zM981 1497q-13 16 -41 70q0 2 2 4q2 4 6 16l4 4q8 17 15 17h4q8 0 24 4q7 0 9 2h4l8 -4q17 -11 18 -13q12 -7 23 -26q4 -8 10 -17q12 -24 33 -45q12 -12 16 -22q1 -2 4 -6t4 -6q20 -27 29 -56v-2 q6 -14 0 -26q-4 -4 -4 -13l-6 -10l-4 -2l-13 -20h-10q-3 -2 -14 2l-10 10q-8 4 -17 10q-24 20 -39 35l-2 4q-18 22 -22 35q-11 26 -31 55z" />
<glyph unicode="&#xfa;" d="M1268 469q-1 -16 -9 -43.5t-10 -38.5q-4 -12 -4 -18q-11 -33 -12 -35q-6 -15 -10 -41q-4 -14 -12.5 -43t-12.5 -43q-18 -45 -41 -74q-8 -11 -61 -72q-50 -47 -97 -67q1 1 3 3.5t4 4.5q-2 1 -21 -4q-18 -7 -33 -2q-8 2 -24 2q-2 0 -34.5 2t-49.5 4q-42 3 -74 16 q-33 13 -45 41q-24 59 -20 152v78q0 24 8 74q5 35 22 116q12 70 8 103q0 61 15 168q2 20 6 57t6 57q0 21 -2 33q4 62 4 98v31q5 35 8 43q2 6 3 20t3 21q0 7 3.5 22.5t3.5 16.5q6 17 2 23v6q10 36 10 88q4 26 14 39q8 16 8 22l2 2q8 5 19.5 20t19.5 21q0 -27 4 -41q2 3 6 6.5 t5 5.5q15 -41 18 -45q23 -38 27 -63v-18l6 12v-2q0 -21 -2 -33q-1 -13 -9 -71.5t-10 -88.5q-2 -14 -5 -43t-5 -43q-1 -13 -3 -27.5t-5 -31.5t-4 -27q-3 -18 -9.5 -49t-11 -56t-8.5 -48q-1 -11 -4 -43.5t-6 -51.5q1 -8 -6 -57q0 -29 2 -85t2 -83q1 -16 -2.5 -46t-3.5 -42 q0 -83 -2 -102q0 -13 22 -13h21q13 1 37 1t36 1q1 0 9 -1t15.5 -0.5t14.5 3.5q3 0 7 7q5 12 22 43.5t21 48.5q30 92 38 125q7 24 16.5 70t16.5 71q3 12 6 36t6 36q28 142 29 149q8 55 15 119q6 31 14 96q18 99 12 199q1 10 0.5 28t0.5 33.5t5 30.5q2 8 17 53q8 0 10 -2 q6 26 14.5 35t36.5 18q4 -2 13 -5t14 -5q0 -4 2 -6v-2q13 3 18 -8l15 -10q5 -5 8 -11q-4 -4 0 -4q3 0 5 -1t2.5 -2.5t1.5 -3.5t1 -3q2 -14 2 -43q0 -8 -4 -12q-6 -8 -6 -33q-4 -82 -4 -123q0 -17 -4 -45q-1 -20 -5.5 -58.5t-5.5 -56.5q0 -3 -4 -58.5t-8 -84.5 q-4 -26 -11 -76t-11 -73q-2 -41 -17 -101q-15 -47 -18 -92zM1010 1356v14q-5 10 8 33v2q6 11 14 22t20.5 25.5t16.5 20.5q10 10 14 16q3 3 9 9.5t11 11t9 8.5q14 11 53 55q6 9 19 22l33 33q17 12 28 17q2 2 10 6h5q1 0 4.5 -1t5.5 -1h24h6q8 0 13 -17v-4q1 -3 2 -9t2 -9 q0 -4 -2 -4q-34 -49 -70 -88q-39 -44 -55 -70q-10 -14 -39 -43l-4 -4q-23 -23 -60 -45q-3 -3 -10 -8.5t-10 -8.5q-2 -1 -5 -3.5t-6 -4.5t-7 -4q-10 -7 -15 -4q-2 0 -6 -1t-6 -1l-6 22l-6 3v10z" />
<glyph unicode="&#x2000;" horiz-adv-x="858" />
<glyph unicode="&#x2001;" horiz-adv-x="1716" />
<glyph unicode="&#x2002;" horiz-adv-x="858" />
<glyph unicode="&#x2003;" horiz-adv-x="1716" />
<glyph unicode="&#x2004;" horiz-adv-x="572" />
<glyph unicode="&#x2005;" horiz-adv-x="429" />
<glyph unicode="&#x2006;" horiz-adv-x="286" />
<glyph unicode="&#x2007;" horiz-adv-x="286" />
<glyph unicode="&#x2008;" horiz-adv-x="214" />
<glyph unicode="&#x2009;" horiz-adv-x="343" />
<glyph unicode="&#x200a;" horiz-adv-x="95" />
<glyph unicode="&#x2010;" horiz-adv-x="808" d="M911 803q1 -1 5 -3t5.5 -3t4 -3t2.5 -4t-1.5 -4.5t-4.5 -5.5h-25q3 -22 0 -45q0 -13 -18 -20q-37 -11 -82 -21q-16 -3 -32 -3.5t-38 0.5t-31 1q-14 0 -39 -1t-39 -1q-17 0 -49 4q-19 0 -59 4q-59 3 -107 9q-26 0 -38 2q-67 10 -113 26q-49 18 -62 41q-4 3 -4 17 q-2 5 -2.5 16t-3.5 16q-9 15 6.5 35t42.5 31q29 11 45 20q21 12 29.5 13t32.5 -6q35 -12 65 -7q2 0 22 3.5t30 3.5q29 2 84 2q15 -1 41.5 -3.5t37.5 -3.5q15 0 23 2q-4 1 -12.5 4.5t-12.5 4.5l2 2q40 -3 84 -6q13 0 58 -5q6 -1 17.5 -2.5t18.5 -2.5t16.5 -4t16.5 -7 q9 -6 32.5 -13t29.5 -9q9 -2 20 -13q4 -4 10.5 -13t10.5 -13q12 -14 9 -19t-28 -16z" />
<glyph unicode="&#x2011;" horiz-adv-x="808" d="M911 803q1 -1 5 -3t5.5 -3t4 -3t2.5 -4t-1.5 -4.5t-4.5 -5.5h-25q3 -22 0 -45q0 -13 -18 -20q-37 -11 -82 -21q-16 -3 -32 -3.5t-38 0.5t-31 1q-14 0 -39 -1t-39 -1q-17 0 -49 4q-19 0 -59 4q-59 3 -107 9q-26 0 -38 2q-67 10 -113 26q-49 18 -62 41q-4 3 -4 17 q-2 5 -2.5 16t-3.5 16q-9 15 6.5 35t42.5 31q29 11 45 20q21 12 29.5 13t32.5 -6q35 -12 65 -7q2 0 22 3.5t30 3.5q29 2 84 2q15 -1 41.5 -3.5t37.5 -3.5q15 0 23 2q-4 1 -12.5 4.5t-12.5 4.5l2 2q40 -3 84 -6q13 0 58 -5q6 -1 17.5 -2.5t18.5 -2.5t16.5 -4t16.5 -7 q9 -6 32.5 -13t29.5 -9q9 -2 20 -13q4 -4 10.5 -13t10.5 -13q12 -14 9 -19t-28 -16z" />
<glyph unicode="&#x2012;" horiz-adv-x="808" d="M911 803q1 -1 5 -3t5.5 -3t4 -3t2.5 -4t-1.5 -4.5t-4.5 -5.5h-25q3 -22 0 -45q0 -13 -18 -20q-37 -11 -82 -21q-16 -3 -32 -3.5t-38 0.5t-31 1q-14 0 -39 -1t-39 -1q-17 0 -49 4q-19 0 -59 4q-59 3 -107 9q-26 0 -38 2q-67 10 -113 26q-49 18 -62 41q-4 3 -4 17 q-2 5 -2.5 16t-3.5 16q-9 15 6.5 35t42.5 31q29 11 45 20q21 12 29.5 13t32.5 -6q35 -12 65 -7q2 0 22 3.5t30 3.5q29 2 84 2q15 -1 41.5 -3.5t37.5 -3.5q15 0 23 2q-4 1 -12.5 4.5t-12.5 4.5l2 2q40 -3 84 -6q13 0 58 -5q6 -1 17.5 -2.5t18.5 -2.5t16.5 -4t16.5 -7 q9 -6 32.5 -13t29.5 -9q9 -2 20 -13q4 -4 10.5 -13t10.5 -13q12 -14 9 -19t-28 -16z" />
<glyph unicode="&#x2013;" horiz-adv-x="1068" d="M1162 803q1 -1 6.5 -3t7.5 -3t5 -3t3 -4t-2 -4.5t-6 -5.5h-33q4 -22 0 -45q0 -13 -24 -20q-50 -11 -110 -21q-22 -3 -43.5 -3.5t-51 0.5t-41.5 1q-19 0 -52.5 -1t-52.5 -1q-22 0 -65 4q-26 0 -80 4q-79 3 -143 9q-35 0 -51 2q-90 10 -152 26q-66 18 -83 41q-6 3 -6 17 q-2 5 -3 16t-5 16q-12 15 9 35t57 31q39 11 61 20q28 12 39.5 13t43.5 -6q47 -12 87 -7q3 0 29.5 3.5t40.5 3.5q39 2 113 2q20 -1 55.5 -3.5t50.5 -3.5q20 0 31 2q-6 1 -17.5 4.5t-16.5 4.5l3 2q53 -3 112 -6q18 0 78 -5q8 -1 23.5 -2.5t25 -2.5t22 -4t22.5 -7 q12 -6 43.5 -13t39.5 -9q12 -2 27 -13q5 -4 14 -13t14 -13q16 -14 12 -19t-37 -16z" />
<glyph unicode="&#x2014;" horiz-adv-x="2092" d="M2147 803q3 -1 13.5 -3t14.5 -3t11 -3t7 -4t-4 -4.5t-12 -5.5h-67q8 -22 0 -45q0 -13 -49 -20q-99 -11 -220 -21q-43 -3 -86 -3.5t-102 0.5t-83 1q-38 0 -105 -1t-104 -1q-46 0 -132 4q-51 0 -158 4q-159 3 -287 9q-70 0 -102 2q-180 10 -304 26q-131 18 -166 41 q-11 3 -11 17q-5 5 -6.5 16t-9.5 16q-24 15 17.5 35t113.5 31q78 11 121 20q57 12 79.5 13t87.5 -6q94 -12 174 -7q6 0 59.5 3.5t80.5 3.5q78 2 225 2q40 -1 111.5 -3.5t100.5 -3.5q41 0 62 2q-11 1 -33.5 4.5t-33.5 4.5l5 2q108 -3 226 -6q35 0 155 -5q17 -1 47.5 -2.5 t49.5 -2.5t44.5 -4t44.5 -7q24 -6 87 -13t79 -9q24 -2 54 -13q11 -4 28 -13t28 -13q32 -14 24 -19t-75 -16z" />
<glyph unicode="&#x202f;" horiz-adv-x="343" />
<glyph unicode="&#x205f;" horiz-adv-x="429" />
<glyph unicode="&#x20ac;" d="M1399 211q-11 -8 -30 -25.5t-21 -19.5l-19 -19q-39 -37 -90 -53q-20 -6 -63 -35l-11 -6q-51 -33 -88 -41q-24 -6 -39 -12q-35 -10 -37 -10q-21 -2 -67 -17q-27 -10 -39 -10h-4q-171 20 -244 111q-48 57 -67 131q-13 41 -17 125q-6 52 -6 53q0 4 2 18t2 23q4 8 4 14 q11 51 -22 82q-24 30 -49 55q-23 29 -11 66l2 4q13 38 11 53q30 45 100 93q3 0 7.5 1t6.5 1l49 10l29 112q4 22 8 35q3 17 17 64q12 33 43 86l6 12q7 14 16 29q4 8 14.5 23.5t14.5 21.5q43 92 141 190q7 6 28 26.5t32 29.5q24 24 36 34q8 12 35 15q20 4 56 8h2q43 3 90 12 q10 2 28 2q39 0 82 -22q16 -7 44.5 -22.5t33.5 -18.5t16.5 -9.5t16.5 -9.5h2q74 -78 92 -145q12 -44 -6 -88q-6 -5 -20.5 -16.5t-20.5 -16.5v-2q-10 6 -31 6q-35 0 -71 -26q-7 -3 -11 -3q-3 -1 -10 -3t-10 -3q-22 22 -55 25q-25 72 -115 72q-4 0 -11 -1t-10 -1 q-77 -6 -127 -68q-4 -4 -10.5 -13t-9.5 -12q-9 -15 -18 -24q-41 -26 -50 -78q-14 -55 -26 -113l-21 -100l56 -4q8 -2 22 -2q36 -4 53 -4q2 0 5.5 -1t5.5 -1q17 0 71 4h4q10 2 25 2q12 0 16 -4q18 -10 47 -10h3l28 -5q12 -1 35.5 -4t36.5 -4q4 -5 33 -28q3 -2 16 -15 q8 -29 6 -57l-6 -6q-3 -1 -23 -6q-30 -10 -36 -11l-35 -14q-8 -4 -10 -4l-80 -35l18 -31q-6 -2 -13.5 -7.5t-10.5 -6.5q-4 -4 -7 -4l-8 -4q-24 -3 -75.5 -9.5t-75.5 -9.5l-82 -10q-3 -1 -9.5 -2t-9.5 -2h-4l-47 -10l-14 -45q-8 -24 -8 -37q2 -18 3.5 -26t7 -31.5t12.5 -37 t20.5 -33.5t31 -31.5t44 -20t59.5 -8.5q6 0 18.5 1t18.5 1q94 11 172 65q7 5 30 14q5 2 15.5 6.5t15.5 6.5q32 -8 64 -8h10q13 0 28 6q15 -15 23 -21l2 -4q0 -25 -4 -65q-2 -24 -8 -27z" />
<glyph unicode="&#x25fc;" horiz-adv-x="1525" d="M0 1526h1526v-1526h-1526v1526z" />
</font>
</defs>
</svg>
